<svg id="Capa_1" enable-background="new 0 0 512 512" height="512" viewBox="0 0 512 512" width="512" xmlns="http://www.w3.org/2000/svg"><g><g><path d="m332 233.5c0 24.81-20.19 45-45 45h-90c-8.28 0-15 6.72-15 15v60h75c60 0 90-60 90-120v-15c-8.28 0-15 6.72-15 15z" fill="#575f64"/></g><path d="m347 218.5v15c0 60-30 120-90 120h-30v-75h60c24.81 0 45-20.19 45-45 0-8.28 6.72-15 15-15z" fill="#32393f"/><g><path d="m362 233.5c0 69.24-36.49 135-105 135h-90c-8.28 0-15-6.72-15-15s6.72-15 15-15h90c51.53 0 75-54.43 75-105 0-8.28 6.72-15 15-15s15 6.72 15 15z" fill="#d3d3d8"/></g><path d="m362 233.5c0 69.24-36.49 135-105 135h-30v-30h30c51.53 0 75-54.43 75-105 0-8.28 6.72-15 15-15s15 6.72 15 15z" fill="#babac0"/><g><path d="m437 398.5c-41.355 0-75-33.645-75-75s33.645-75 75-75 75 33.645 75 75-33.645 75-75 75zm0-120c-24.813 0-45 20.187-45 45s20.187 45 45 45 45-20.187 45-45-20.187-45-45-45z" fill="#32393f"/></g><g><path d="m75 398.5c-41.355 0-75-33.645-75-75s33.645-75 75-75 75 33.645 75 75-33.645 75-75 75zm0-120c-24.813 0-45 20.187-45 45s20.187 45 45 45 45-20.187 45-45-20.187-45-45-45z" fill="#575f64"/></g><g><path d="m423.793 330.611-64.615-120c-3.928-7.294-1.198-16.391 6.096-20.318 7.291-3.929 16.39-1.2 20.318 6.096l64.615 120c3.928 7.294 1.198 16.391-6.096 20.318-7.279 3.921-16.382 1.212-20.318-6.096z" fill="#d3d3d8"/></g><g><path d="m339.688 174.417-16.647-30.917h-44.828l-25.606 25.606c-5.857 5.858-15.355 5.858-21.213 0s-5.858-15.355 0-21.213l30-30c2.813-2.813 6.628-4.394 10.606-4.394h60c5.519 0 10.591 3.03 13.207 7.889l20.896 38.806c3.928 7.294 1.198 16.391-6.096 20.318-7.279 3.922-16.383 1.214-20.319-6.095z" fill="#d3d3d8"/></g><g><path d="m347 188.5c-54.83 0-92.24 15.55-120 28.27l-10 46.73 10 45h60c41.36 0 75-33.65 75-75v-30c0-8.28-6.72-15-15-15z" fill="#d3d3d8"/><path d="m227 216.77v91.73h-92c-8.28 0-15-6.72-15-15v-60c0-5.68 3.21-10.87 8.29-13.41 5.08-2.55 11.15-2 15.7 1.4 30.173 22.597 47.534 11.377 83.01-4.72z" fill="#ff641a"/></g><g><path d="m124.476 244.188c-1.083-1.049-27.109-25.688-79.476-25.688-8.284 0-15-6.716-15-15s6.716-15 15-15c65.461 0 99.202 32.989 100.606 34.394l-21.213 21.213z" fill="#ff641a"/></g><g><path d="m407 218.5h-60c-8.284 0-15-6.716-15-15v-33.6c0-5.948 3.515-11.334 8.959-13.729l60-26.4c9.901-4.357 21.041 2.906 21.041 13.729v60c0 8.284-6.716 15-15 15z" fill="#ff641a"/></g><g><circle cx="75" cy="323.5" fill="#575f64" r="15"/></g></g></svg>