<?xml version="1.0"?>
<svg xmlns="http://www.w3.org/2000/svg" id="Layer_1" data-name="Layer 1" viewBox="0 0 512 512" width="512" height="512"><title>Auto Rickshaw</title><path d="M401,171.08a7,7,0,0,1-5.2-11.683l16.685-18.539,5.638-30.068a7,7,0,1,1,13.76,2.58l-6,32a7.005,7.005,0,0,1-1.677,3.393l-18,20A6.984,6.984,0,0,1,401,171.08Z" style="fill:#2561a1"/><path d="M111,171.08a6.982,6.982,0,0,1-5.2-2.317l-18-20a7.005,7.005,0,0,1-1.677-3.393l-6-32a7,7,0,0,1,13.76-2.58l5.638,30.068L116.2,159.4A7,7,0,0,1,111,171.08Z" style="fill:#2561a1"/><path d="M426.64,82.41A14.835,14.835,0,1,1,411.8,97.24,14.833,14.833,0,0,1,426.64,82.41Z" style="fill:#6fe3ff"/><path d="M421.83,369.46H401.1c.24-15.86.55-36.89.84-58.44C420.33,322.02,421.83,369.46,421.83,369.46Z" style="fill:#f8ec7d"/><path d="M407.12,369.46v66.13a9.918,9.918,0,0,1-9.89,9.89h-16.7a9.918,9.918,0,0,1-9.89-9.89V416.07c9.13-.13,15.24-.27,15.72-.44A21.4,21.4,0,0,0,400.65,397c.04-.55.21-11.37.45-27.54Z" style="fill:#2561a1"/><path d="M400.75,171.07c-.42-5.12-.88-10.36-1.36-15.66-2.75-30.05-6.24-61.81-7.54-81.99-1.39-21.72-19.91-40.94-41.63-42.4-24-1.64-65.75-5.02-96.06-5.02-31.02,0-69.11,3.38-92.11,4.97-21.71,1.5-40.24,20.73-41.65,42.45-1.3,20.21-4.83,52.14-7.58,82.22-.48,5.22-.93,10.39-1.34,15.42-1.32,16.01-2.23,30.74-2.24,41.91-.01,12.53.46,56.4.96,98.17.26,21.53.53,42.5.74,58.32.21,16.19.37,27,.41,27.54a21.4,21.4,0,0,0,14.56,18.73c.44.15,6.14.28,14.73.39,29.38.4,92.66.62,96.07.63h38.72s64.59-.24,95.21-.68c9.13-.13,15.24-.27,15.72-.44A21.4,21.4,0,0,0,400.65,397c.04-.55.21-11.37.45-27.54.24-15.86.55-36.89.84-58.44.57-41.38,1.1-84.69,1.1-97.06C403.04,202.55,402.1,187.46,400.75,171.07Zm-42.68,21.12H153.53a18.114,18.114,0,0,1-18.3-19.73l6.91-91.12a21.746,21.746,0,0,1,21.28-19.73H348.18a21.753,21.753,0,0,1,21.28,19.73l6.9,91.12A18.112,18.112,0,0,1,358.07,192.19Z" style="fill:#e48e66"/><path d="M376.36,172.46a18.112,18.112,0,0,1-18.29,19.73H153.53a18.114,18.114,0,0,1-18.3-19.73l6.91-91.12a21.746,21.746,0,0,1,21.28-19.73H348.18a21.753,21.753,0,0,1,21.28,19.73Z" style="fill:#f8ec7d"/><path d="M374.21,219.89v16.82a1.976,1.976,0,0,1-1.97,1.98H342.56a1.985,1.985,0,0,1-1.98-1.98V219.89a1.985,1.985,0,0,1,1.98-1.98h29.68A1.976,1.976,0,0,1,374.21,219.89Z" style="fill:#2561a1"/><path d="M280.89,235.08a18.112,18.112,0,0,1,18.29,19.73l-8.53,111.17c-5.31-9.75-12.22-19.67-19.46-22.5a20.275,20.275,0,1,0-30.39,0c-7.29,2.43-14.3,12.78-19.62,22.88l-.54-.28-7.82-111.27a18.112,18.112,0,0,1,18.29-19.73Z" style="fill:#f8ec7d"/><path d="M290.65,365.98a182.953,182.953,0,0,1,9.99,21.95,97.424,97.424,0,0,1-25.35,8.26,104.666,104.666,0,0,1-19.65,1.89,101.224,101.224,0,0,1-18.93-1.79c-15.4-2.91-25.07-8.36-25.07-8.36a185.56,185.56,0,0,1,9.54-21.57c5.32-10.1,12.33-20.45,19.62-22.88a20.259,20.259,0,0,0,30.39,0C278.43,346.31,285.34,356.23,290.65,365.98Z" style="fill:#f8ec7d"/><path d="M236.71,416.75V396.29a101.224,101.224,0,0,0,18.93,1.79,104.666,104.666,0,0,0,19.65-1.89V476.1a9.927,9.927,0,0,1-9.89,9.9H246.6a9.927,9.927,0,0,1-9.89-9.9Z" style="fill:#2561a1"/><path d="M240.8,343.48a20.259,20.259,0,1,1,15.2,6.86A20.219,20.219,0,0,1,240.8,343.48Z" style="fill:#6fe3ff"/><path d="M171.42,219.89v16.82a1.985,1.985,0,0,1-1.98,1.98H139.76a1.976,1.976,0,0,1-1.97-1.98V219.89a1.976,1.976,0,0,1,1.97-1.98h29.68A1.985,1.985,0,0,1,171.42,219.89Z" style="fill:#2561a1"/><path d="M140.64,416.13v19.46a9.918,9.918,0,0,1-9.89,9.89H114.34a9.921,9.921,0,0,1-9.9-9.89V369.46h6.5c.21,16.19.37,27,.41,27.54a21.4,21.4,0,0,0,14.56,18.73c.44.15,6.14.28,14.73.39Z" style="fill:#2561a1"/><path d="M110.94,369.46H90.47s1.37-47.32,19.71-58.32h.02C110.46,332.67,110.73,353.64,110.94,369.46Z" style="fill:#f8ec7d"/><path d="M85.36,82.41A14.835,14.835,0,1,1,70.52,97.24,14.839,14.839,0,0,1,85.36,82.41Z" style="fill:#6fe3ff"/></svg>
