<?xml version="1.0" encoding="utf-8"?>
<!-- Generator: Adobe Illustrator 16.0.0, SVG Export Plug-In . SVG Version: 6.00 Build 0)  -->
<!DOCTYPE svg PUBLIC "-//W3C//DTD SVG 1.1//EN" "http://www.w3.org/Graphics/SVG/1.1/DTD/svg11.dtd">
<svg version="1.1" id="Layer_1" xmlns="http://www.w3.org/2000/svg" xmlns:xlink="http://www.w3.org/1999/xlink" x="0px" y="0px"
	 width="1400px" height="980px" viewBox="0 0 1400 980" enable-background="new 0 0 1400 980" xml:space="preserve">
<g>
	<g>
		<g>
			<rect fill="#FFFFFF" width="1400" height="980"/>
		</g>
	</g>
	<g>
		<g>
			<path fill="#4EBED9" d="M473.4,709.1c5.1,0,10.1,1,14.6,2.6V248.3h-59.4v463.4c4.6-1.7,9.5-2.6,14.6-2.6H473.4z"/>
			<path d="M488.1,713c-0.1,0-0.3,0-0.4-0.1c-4.6-1.7-9.4-2.6-14.2-2.6h-30.1c-4.8,0-9.6,0.9-14.2,2.6c-0.4,0.1-0.8,0.1-1.1-0.1
				c-0.3-0.2-0.5-0.6-0.5-1V248.3c0-0.7,0.6-1.2,1.2-1.2h59.4c0.7,0,1.2,0.6,1.2,1.2v463.4c0,0.4-0.2,0.8-0.5,1
				C488.6,712.9,488.3,713,488.1,713z M443.3,707.9h30.1c4.5,0,9,0.7,13.4,2.1V249.5h-56.9V710C434.3,708.6,438.8,707.9,443.3,707.9
				z"/>
		</g>
		<g>
			<path fill="#46ABC4" d="M488.1,711.7c-4.6-1.7-9.5-2.6-14.6-2.6h-30.1c-5.1,0-10.1,1-14.6,2.6c-16.3,6-27.9,21.6-27.9,39.9V764
				H516v-12.4C516,733.3,504.3,717.7,488.1,711.7z"/>
			<path d="M516,765.3H400.8c-0.7,0-1.2-0.6-1.2-1.2v-12.4c0-18.3,11.5-34.8,28.7-41.1c4.9-1.8,10-2.7,15-2.7h30.1
				c5.1,0,10.1,0.9,15,2.7c17.2,6.3,28.7,22.8,28.7,41.1V764C517.2,764.7,516.7,765.3,516,765.3z M402,762.8h112.7v-11.2
				c0-17.2-10.9-32.8-27.1-38.7c-4.6-1.7-9.4-2.6-14.2-2.6h-30.1c-4.8,0-9.6,0.9-14.2,2.6c-16.2,5.9-27.1,21.5-27.1,38.7V762.8z"/>
		</g>
		<g>
			<path fill="#56CFED" d="M504.4,232.1c0,8.9-7.2,16.2-16.2,16.2h-59.6c-8.9,0-16.2-7.2-16.2-16.2l0,0c0-8.9,7.2-16.2,16.2-16.2
				h59.6C497.1,216,504.4,223.2,504.4,232.1L504.4,232.1z"/>
			<path d="M488.2,249.5h-59.6c-9.6,0-17.4-7.8-17.4-17.4c0-9.6,7.8-17.4,17.4-17.4h59.6c9.6,0,17.4,7.8,17.4,17.4
				C505.6,241.7,497.8,249.5,488.2,249.5z M428.6,217.2c-8.2,0-14.9,6.7-14.9,14.9s6.7,14.9,14.9,14.9h59.6
				c8.2,0,14.9-6.7,14.9-14.9s-6.7-14.9-14.9-14.9H428.6z"/>
		</g>
		<g>
			<path fill="#4EBED9" d="M960.8,709.1c5.1,0,10.1,1,14.6,2.6V248.3h-59.4v463.4c4.6-1.7,9.5-2.6,14.6-2.6H960.8z"/>
			<path d="M975.5,713c-0.1,0-0.3,0-0.4-0.1c-4.6-1.7-9.4-2.6-14.2-2.6h-30.1c-4.8,0-9.6,0.9-14.2,2.6c-0.4,0.1-0.8,0.1-1.1-0.1
				c-0.3-0.2-0.5-0.6-0.5-1V248.3c0-0.7,0.6-1.2,1.2-1.2h59.4c0.7,0,1.2,0.6,1.2,1.2v463.4c0,0.4-0.2,0.8-0.5,1
				C976,712.9,975.7,713,975.5,713z M917.3,249.5V710c4.4-1.4,8.9-2.1,13.4-2.1h30.1c4.5,0,9,0.7,13.4,2.1V249.5H917.3z"/>
		</g>
		<g>
			<path fill="#46ABC4" d="M975.5,711.7c-4.6-1.7-9.5-2.6-14.6-2.6h-30.1c-5.1,0-10.1,1-14.6,2.6c-16.3,6-27.9,21.6-27.9,39.9V764
				h115.2v-12.4C1003.4,733.3,991.7,717.7,975.5,711.7z"/>
			<path d="M1003.4,765.3H888.2c-0.7,0-1.2-0.6-1.2-1.2v-12.4c0-18.3,11.5-34.8,28.7-41.1c4.9-1.8,10-2.7,15-2.7h30.1
				c5.1,0,10.1,0.9,15,2.7c17.2,6.3,28.7,22.8,28.7,41.1V764C1004.6,764.7,1004.1,765.3,1003.4,765.3z M889.4,762.8h112.7v-11.2
				c0-17.2-10.9-32.8-27.1-38.7c-4.6-1.7-9.4-2.6-14.2-2.6h-30.1c-4.8,0-9.6,0.9-14.2,2.6c-16.2,5.9-27.1,21.5-27.1,38.7V762.8z"/>
		</g>
		<g>
			<path fill="#56CFED" d="M991.8,232.1c0,8.9-7.2,16.2-16.2,16.2H916c-8.9,0-16.2-7.2-16.2-16.2l0,0c0-8.9,7.2-16.2,16.2-16.2h59.6
				C984.5,216,991.8,223.2,991.8,232.1L991.8,232.1z"/>
			<path d="M975.6,249.5H916c-9.6,0-17.4-7.8-17.4-17.4c0-9.6,7.8-17.4,17.4-17.4h59.6c9.6,0,17.4,7.8,17.4,17.4
				C993,241.7,985.2,249.5,975.6,249.5z M916,217.2c-8.2,0-14.9,6.7-14.9,14.9s6.7,14.9,14.9,14.9h59.6c8.2,0,14.9-6.7,14.9-14.9
				s-6.7-14.9-14.9-14.9H916z"/>
		</g>
		<g>
			<g>
				<path fill="#FFB882" d="M568.3,408.8l-0.1-10c0,0-40.8-2.7-40.8,17.7c0,0,5,10.7,29.7,6.6L568.3,408.8z"/>
				<path d="M546.7,425.2C546.7,425.2,546.7,425.2,546.7,425.2c-16.3,0-20.2-7.9-20.4-8.2c-0.1-0.2-0.1-0.3-0.1-0.5
					c0-17.2,26.1-19,37.3-19c2.9,0,4.7,0.1,4.7,0.1c0.6,0,1.1,0.6,1.2,1.2l0.1,10c0,0.3-0.1,0.6-0.3,0.8l-11.2,14.3
					c-0.2,0.2-0.5,0.4-0.8,0.5C553.5,424.9,550,425.2,546.7,425.2z M528.7,416.1c0.7,1.1,4.9,6.6,18.1,6.6c0,0,0,0,0,0
					c3,0,6.2-0.3,9.7-0.8l10.6-13.5L567,400C560.5,399.7,529.1,399.5,528.7,416.1z"/>
			</g>
			<g>
				<path fill="#58595B" d="M545.8,569.5c0,6,4.8,10.8,10.8,10.8h31.3c6,0,10.8-4.8,10.8-10.8v-37.2h-52.9V569.5z"/>
				<path d="M587.9,581.6h-31.3c-6.6,0-12.1-5.4-12.1-12.1v-37.2c0-0.7,0.6-1.2,1.2-1.2h52.9c0.7,0,1.2,0.6,1.2,1.2v37.2
					C599.9,576.2,594.5,581.6,587.9,581.6z M547,533.6v36c0,5.3,4.3,9.6,9.6,9.6h31.3c5.3,0,9.6-4.3,9.6-9.6v-36H547z"/>
			</g>
			<g>
				<path fill="#58595B" d="M805.4,569.5c0,6,4.8,10.8,10.8,10.8h31.3c6,0,10.8-4.8,10.8-10.8v-37.2h-52.9V569.5z"/>
				<path d="M847.5,581.6h-31.3c-6.6,0-12.1-5.4-12.1-12.1v-37.2c0-0.7,0.6-1.2,1.2-1.2h52.9c0.7,0,1.2,0.6,1.2,1.2v37.2
					C859.6,576.2,854.2,581.6,847.5,581.6z M806.7,533.6v36c0,5.3,4.3,9.6,9.6,9.6h31.3c5.3,0,9.6-4.3,9.6-9.6v-36H806.7z"/>
			</g>
			<g>
				<path fill="#FFB882" d="M855.8,444.2L830.7,415l-27.4-50.3c0,0-7.1-12.8-20.8-12.8h-80.3h-80.3c-13.8,0-20.8,12.8-20.8,12.8
					L573.5,415l-25.1,29.2c-26.4,24.3-14,69.1-14,69.1l11.4,19h52.9h21.1l7.8,4.3h74.5h74.5l7.8-4.3h21.1h52.9l11.4-19
					C869.7,513.3,882.2,468.5,855.8,444.2z"/>
				<path d="M776.6,537.8h-149c-0.2,0-0.4-0.1-0.6-0.2l-7.5-4.1h-73.7c-0.4,0-0.8-0.2-1.1-0.6l-11.4-19c-0.1-0.1-0.1-0.2-0.1-0.3
					c-0.1-0.5-12.3-45.8,14.3-70.3l24.9-29l27.4-50.2c0.3-0.6,7.6-13.5,21.9-13.5h160.7c14.3,0,21.6,12.9,21.9,13.4l27.4,50.2
					l25,29.1c26.5,24.4,14.4,69.8,14.2,70.2c0,0.1-0.1,0.2-0.1,0.3l-11.4,19c-0.2,0.4-0.6,0.6-1.1,0.6h-73.7l-7.5,4.1
					C777,537.8,776.8,537.8,776.6,537.8z M627.9,535.4h148.4l7.5-4.1c0.2-0.1,0.4-0.2,0.6-0.2h73.3l11-18.3
					c0.8-2.9,11.1-44.9-13.7-67.7l-25.2-29.3c-0.1-0.1-0.1-0.1-0.1-0.2l-27.4-50.3c-0.1-0.1-6.9-12.2-19.7-12.2H621.7
					c-12.9,0-19.7,12.1-19.7,12.2l-27.4,50.3c0,0.1-0.1,0.1-0.1,0.2L549.3,445c-24.9,22.9-14.5,64.9-13.8,67.8l11,18.3h73.3
					c0.2,0,0.4,0.1,0.6,0.2L627.9,535.4z"/>
			</g>
			<g>
				<polygon fill="#C3E9FF" points="788.2,364.3 702.1,364.3 615.9,364.3 591.7,410.8 702.1,410.8 812.5,410.8 				"/>
				<path d="M812.5,412.1H591.7c-0.4,0-0.8-0.2-1.1-0.6c-0.2-0.4-0.2-0.8,0-1.2l24.3-46.6c0.2-0.4,0.6-0.7,1.1-0.7h172.3
					c0.5,0,0.9,0.3,1.1,0.7l24.3,46.6c0.2,0.4,0.2,0.8,0,1.2C813.3,411.8,812.9,412.1,812.5,412.1z M593.7,409.6h216.8l-23-44.1
					H616.7L593.7,409.6z"/>
			</g>
			<g>
				<path fill="#FFB882" d="M835.9,408.8l0.1-10c0,0,40.8-2.7,40.8,17.7c0,0-5,10.7-29.7,6.6L835.9,408.8z"/>
				<path d="M857.4,425.2c-3.2,0-6.8-0.3-10.6-0.9c-0.3-0.1-0.6-0.2-0.8-0.5l-11.2-14.3c-0.2-0.2-0.3-0.5-0.3-0.8l0.1-10
					c0-0.6,0.5-1.2,1.2-1.2c0,0,1.8-0.1,4.7-0.1c11.2,0,37.3,1.9,37.3,19c0,0.2,0,0.4-0.1,0.5C877.7,417.3,873.8,425.2,857.4,425.2z
					 M847.7,421.9c3.5,0.6,6.7,0.8,9.7,0.8c13.1,0,17.3-5.5,18.1-6.6c-0.4-16.7-31.8-16.4-38.3-16.2l-0.1,8.4L847.7,421.9z"/>
			</g>
			<g>
				<g>
					<rect x="669.9" y="462.9" fill="#58595B" width="21.5" height="39.5"/>
					<path d="M691.3,503.6h-21.5c-0.7,0-1.2-0.6-1.2-1.2v-39.5c0-0.7,0.6-1.2,1.2-1.2h21.5c0.7,0,1.2,0.6,1.2,1.2v39.5
						C692.6,503.1,692,503.6,691.3,503.6z M671.1,501.2h19v-37h-19V501.2z"/>
				</g>
				<g>
					<rect x="691.3" y="462.9" fill="#58595B" width="21.5" height="39.5"/>
					<path d="M712.8,503.6h-21.5c-0.7,0-1.2-0.6-1.2-1.2v-39.5c0-0.7,0.6-1.2,1.2-1.2h21.5c0.7,0,1.2,0.6,1.2,1.2v39.5
						C714,503.1,713.5,503.6,712.8,503.6z M692.6,501.2h19v-37h-19V501.2z"/>
				</g>
				<g>
					<path fill="#58595B" d="M630.7,481.5v2.2c0,9.9,7.9,18,17.7,18.5V463C638.6,463.5,630.7,471.6,630.7,481.5z"/>
					<path d="M648.4,503.5C648.4,503.5,648.3,503.5,648.4,503.5c-10.7-0.5-19-9.2-19-19.8v-2.2c0-10.6,8.3-19.2,18.9-19.8
						c0.3,0,0.7,0.1,0.9,0.3c0.2,0.2,0.4,0.6,0.4,0.9v39.3c0,0.3-0.1,0.7-0.4,0.9C649,503.4,648.7,503.5,648.4,503.5z M647.2,464.3
						c-8.7,1.1-15.3,8.4-15.3,17.2v2.2c0,8.8,6.6,16.1,15.3,17.2V464.3z"/>
				</g>
				<g>
					<path fill="#58595B" d="M649.3,462.9c-0.3,0-0.6,0.1-0.9,0.1v39.3c0.3,0,0.6,0.1,0.9,0.1h20.6v-39.5H649.3z"/>
					<path d="M669.9,503.6h-20.6c-0.2,0-0.4,0-0.7-0.1c-0.1,0-0.2,0-0.3,0c-0.7,0-1.2-0.6-1.2-1.2V463c0-0.7,0.5-1.2,1.2-1.2
						c0.1,0,0.2,0,0.3,0c0.2,0,0.4-0.1,0.7-0.1h20.6c0.7,0,1.2,0.6,1.2,1.2v39.5C671.1,503.1,670.5,503.6,669.9,503.6z M649.6,501.2
						h19v-37h-19V501.2z"/>
				</g>
				<g>
					<path fill="#58595B" d="M755.8,463v39.3c9.8-0.5,17.7-8.6,17.7-18.5v-2.2C773.5,471.6,765.6,463.5,755.8,463z"/>
					<path d="M755.8,503.5c-0.3,0-0.6-0.1-0.8-0.3c-0.2-0.2-0.4-0.6-0.4-0.9V463c0-0.3,0.1-0.7,0.4-0.9c0.2-0.2,0.6-0.3,0.9-0.3
						c10.6,0.5,18.9,9.2,18.9,19.8v2.2C774.7,494.3,766.4,503,755.8,503.5C755.8,503.5,755.8,503.5,755.8,503.5z M757,464.3V501
						c8.7-1.1,15.3-8.4,15.3-17.2v-2.2C772.3,472.7,765.7,465.4,757,464.3z"/>
				</g>
				<g>
					<rect x="712.8" y="462.9" fill="#58595B" width="21.5" height="39.5"/>
					<path d="M734.3,503.6h-21.5c-0.7,0-1.2-0.6-1.2-1.2v-39.5c0-0.7,0.6-1.2,1.2-1.2h21.5c0.7,0,1.2,0.6,1.2,1.2v39.5
						C735.5,503.1,735,503.6,734.3,503.6z M714,501.2h19v-37h-19V501.2z"/>
				</g>
				<g>
					<path fill="#58595B" d="M754.9,462.9h-20.6v39.5h20.6c0.3,0,0.6-0.1,0.9-0.1V463C755.5,463,755.2,462.9,754.9,462.9z"/>
					<path d="M754.9,503.6h-20.6c-0.7,0-1.2-0.6-1.2-1.2v-39.5c0-0.7,0.6-1.2,1.2-1.2h20.6c0.2,0,0.5,0,0.7,0.1c0.1,0,0.2,0,0.3,0
						c0.7,0,1.2,0.6,1.2,1.2v39.3c0,0.7-0.5,1.2-1.2,1.2c-0.1,0-0.2,0-0.3,0C755.3,503.6,755.1,503.6,754.9,503.6z M735.5,501.2h19
						v-37h-19V501.2z"/>
				</g>
			</g>
			<g>
				<path fill="#E6E7E8" d="M577,446.3l-21.3,3.8c0,0-3.3,27.1,15.5,29.4h27.4l16.5-14.2C615.1,465.3,601.7,446.3,577,446.3z"/>
				<path d="M598.6,480.7h-27.4c-20-2.5-16.8-30.5-16.8-30.8c0.1-0.5,0.5-1,1-1.1l21.3-3.8c0,0,0,0,0,0c25.2,0,38.7,18.8,39.3,19.6
					c0.4,0.5,0.3,1.2-0.2,1.6l-16.5,14.2C599.2,480.6,598.9,480.7,598.6,480.7z M556.8,451.1c-0.3,4.6-1,25.2,14.5,27.1l26.8,0
					l15.3-13.1c-3-3.7-15.8-17.6-36.4-17.6L556.8,451.1z"/>
			</g>
			<g>
				<path fill="#E6E7E8" d="M827.1,446.3l21.3,3.8c0,0,3.3,27.1-15.5,29.4h-27.4L789,465.3C789,465.3,802.5,446.3,827.1,446.3z"/>
				<path d="M832.9,480.7h-27.4c-0.3,0-0.6-0.1-0.8-0.3l-16.5-14.2c-0.5-0.4-0.6-1.1-0.2-1.6c0.6-0.8,14.1-19.6,39.1-19.6l21.6,3.8
					c0.5,0.1,0.9,0.5,1,1.1c0,0.3,3.2,28.3-16.6,30.8C833,480.7,833,480.7,832.9,480.7z M806,478.3h26.9c15.4-2,14.8-22.5,14.5-27.1
					l-20.4-3.6c-20.5,0-33.2,14-36.2,17.7L806,478.3z"/>
			</g>
		</g>
		<g>
			<polygon fill="#3C96AB" points="488.1,648.8 598.7,618.1 598.7,592.7 547.8,592.7 547.8,601.4 488.1,611.6 			"/>
			<path d="M488.1,650.1c-0.3,0-0.5-0.1-0.7-0.3c-0.3-0.2-0.5-0.6-0.5-1v-37.2c0-0.6,0.4-1.1,1-1.2l58.8-10v-7.7
				c0-0.7,0.6-1.2,1.2-1.2h50.9c0.7,0,1.2,0.6,1.2,1.2v25.4c0,0.6-0.4,1-0.9,1.2L488.4,650C488.3,650.1,488.2,650.1,488.1,650.1z
				 M489.3,612.7v34.6l108.2-30V594h-48.4v7.5c0,0.6-0.4,1.1-1,1.2L489.3,612.7z"/>
		</g>
		<g>
			<polygon fill="#3C96AB" points="916.1,648.8 805.4,618.1 805.4,592.7 856.3,592.7 856.3,601.4 916.1,611.6 			"/>
			<path d="M916.1,650.1c-0.1,0-0.2,0-0.3,0l-110.6-30.7c-0.5-0.1-0.9-0.6-0.9-1.2v-25.4c0-0.7,0.6-1.2,1.2-1.2h50.9
				c0.7,0,1.2,0.6,1.2,1.2v7.7l58.8,10c0.6,0.1,1,0.6,1,1.2v37.2c0,0.4-0.2,0.7-0.5,1C916.6,650,916.3,650.1,916.1,650.1z
				 M806.7,617.2l108.2,30v-34.6l-58.8-10c-0.6-0.1-1-0.6-1-1.2V594h-48.4V617.2z"/>
		</g>
		<g>
			<g>
				<path d="M412.4,441.8H347c-0.7,0-1.2-0.6-1.2-1.2v-20.3c0-18.7,15.2-33.9,33.9-33.9s33.9,15.2,33.9,33.9v20.3
					C413.6,441.3,413.1,441.8,412.4,441.8z M348.2,439.4h62.9v-19.1c0-17.4-14.1-31.5-31.5-31.5s-31.5,14.1-31.5,31.5V439.4z"/>
			</g>
			<g>
				<path d="M379.7,537.8c-18.7,0-33.9-15.2-33.9-33.9v-63.3c0-0.7,0.6-1.2,1.2-1.2h65.4c0.7,0,1.2,0.6,1.2,1.2v63.3
					C413.6,522.6,398.4,537.8,379.7,537.8z M348.2,441.8v62.1c0,17.4,14.1,31.5,31.5,31.5s31.5-14.1,31.5-31.5v-62.1H348.2z"/>
			</g>
		</g>
		<g>
			<path d="M363.3,489.8c-0.7,0-1.2-0.6-1.2-1.2v-48c0-0.7,0.6-1.2,1.2-1.2c0.7,0,1.2,0.6,1.2,1.2v48
				C364.5,489.3,364,489.8,363.3,489.8z"/>
		</g>
		<g>
			<path d="M379.7,489.8c-0.7,0-1.2-0.6-1.2-1.2v-48c0-0.7,0.6-1.2,1.2-1.2s1.2,0.6,1.2,1.2v48C380.9,489.3,380.4,489.8,379.7,489.8
				z"/>
		</g>
		<g>
			<path d="M396.1,489.8c-0.7,0-1.2-0.6-1.2-1.2v-48c0-0.7,0.6-1.2,1.2-1.2s1.2,0.6,1.2,1.2v48C397.3,489.3,396.8,489.8,396.1,489.8
				z"/>
		</g>
		<g>
			<g>
				<path d="M400.8,645.4h-20.1c-0.7,0-1.2-0.6-1.2-1.2v-90.4c0-0.7,0.6-1.2,1.2-1.2h20.1c0.7,0,1.2,0.6,1.2,1.2v90.4
					C402,644.8,401.5,645.4,400.8,645.4z M381.9,642.9h17.7V555h-17.7V642.9z"/>
			</g>
			<g>
				<path d="M428.7,645.4h-27.9c-0.7,0-1.2-0.6-1.2-1.2v-90.4c0-0.7,0.6-1.2,1.2-1.2h27.9c0.7,0,1.2,0.6,1.2,1.2v90.4
					C429.9,644.8,429.4,645.4,428.7,645.4z M402,642.9h25.4V555H402V642.9z"/>
			</g>
		</g>
		<g>
			<path d="M428.7,498.1h-16.3c-0.7,0-1.2-0.6-1.2-1.2v-67.9c0-0.7,0.6-1.2,1.2-1.2h16.3c0.7,0,1.2,0.6,1.2,1.2v67.9
				C429.9,497.5,429.4,498.1,428.7,498.1z M413.6,495.6h13.8v-65.5h-13.8V495.6z"/>
		</g>
		<g>
			<path d="M382.6,426c-3.2,0-5.8-2.6-5.8-5.8c0-3.2,2.6-5.8,5.8-5.8s5.8,2.6,5.8,5.8C388.4,423.4,385.8,426,382.6,426z
				 M382.6,416.9c-1.8,0-3.3,1.5-3.3,3.3c0,1.8,1.5,3.3,3.3,3.3s3.3-1.5,3.3-3.3C386,418.4,384.5,416.9,382.6,416.9z"/>
		</g>
		<g>
			<path d="M398.5,426c-3.2,0-5.8-2.6-5.8-5.8c0-3.2,2.6-5.8,5.8-5.8s5.8,2.6,5.8,5.8C404.3,423.4,401.7,426,398.5,426z
				 M398.5,416.9c-1.8,0-3.3,1.5-3.3,3.3c0,1.8,1.5,3.3,3.3,3.3s3.3-1.5,3.3-3.3C401.9,418.4,400.4,416.9,398.5,416.9z"/>
		</g>
		<g>
			<path d="M482.6,744.8h-81c-0.7,0-1.2-0.6-1.2-1.2s0.6-1.2,1.2-1.2h81c0.7,0,1.2,0.6,1.2,1.2S483.3,744.8,482.6,744.8z"/>
		</g>
		<g>
			<path d="M963.8,744.8h-75.6c-0.7,0-1.2-0.6-1.2-1.2s0.6-1.2,1.2-1.2h75.6c0.7,0,1.2,0.6,1.2,1.2S964.4,744.8,963.8,744.8z"/>
		</g>
		<g>
			<path d="M443.3,710.3c-0.7,0-1.2-0.6-1.2-1.2V536.6c0-0.7,0.6-1.2,1.2-1.2c0.7,0,1.2,0.6,1.2,1.2v172.5
				C444.5,709.8,444,710.3,443.3,710.3z"/>
		</g>
		<g>
			<path d="M443.3,517.2c-0.7,0-1.2-0.6-1.2-1.2v-61.1c0-0.7,0.6-1.2,1.2-1.2c0.7,0,1.2,0.6,1.2,1.2v61.1
				C444.5,516.6,444,517.2,443.3,517.2z"/>
		</g>
		<g>
			<path d="M443.3,436.5c-0.7,0-1.2-0.6-1.2-1.2v-27.5c0-0.7,0.6-1.2,1.2-1.2c0.7,0,1.2,0.6,1.2,1.2v27.5
				C444.5,436,444,436.5,443.3,436.5z"/>
		</g>
		<g>
			<path d="M930.7,710.3c-0.7,0-1.2-0.6-1.2-1.2V452.4c0-0.7,0.6-1.2,1.2-1.2s1.2,0.6,1.2,1.2v256.7
				C931.9,709.8,931.4,710.3,930.7,710.3z"/>
		</g>
		<g>
			<path d="M930.7,434c-0.7,0-1.2-0.6-1.2-1.2v-53.3c0-0.7,0.6-1.2,1.2-1.2s1.2,0.6,1.2,1.2v53.3C931.9,433.4,931.4,434,930.7,434z"
				/>
		</g>
		<g>
			<path d="M930.7,359.5c-0.7,0-1.2-0.6-1.2-1.2v-35.5c0-0.7,0.6-1.2,1.2-1.2s1.2,0.6,1.2,1.2v35.5
				C931.9,358.9,931.4,359.5,930.7,359.5z"/>
		</g>
		<g>
			<path d="M572.3,602.7h-24.4c-0.7,0-1.2-0.6-1.2-1.2s0.6-1.2,1.2-1.2h24.4c0.7,0,1.2,0.6,1.2,1.2S572.9,602.7,572.3,602.7z"/>
		</g>
		<g>
			<path d="M856.3,602.7h-24.4c-0.7,0-1.2-0.6-1.2-1.2s0.6-1.2,1.2-1.2h24.4c0.7,0,1.2,0.6,1.2,1.2S857,602.7,856.3,602.7z"/>
		</g>
		<g>
			<path d="M488.1,636.3c-0.6,0-1.1-0.4-1.2-1c-0.2-0.7,0.3-1.3,0.9-1.5l72-16.4c0.7-0.2,1.3,0.3,1.5,0.9s-0.3,1.3-0.9,1.5l-72,16.4
				C488.2,636.3,488.2,636.3,488.1,636.3z"/>
		</g>
		<g>
			<path d="M916.1,636.3c-0.1,0-0.2,0-0.3,0l-72-16.4c-0.7-0.2-1.1-0.8-0.9-1.5c0.2-0.7,0.8-1.1,1.5-0.9l72,16.4
				c0.7,0.2,1.1,0.8,0.9,1.5C917.2,636,916.6,636.3,916.1,636.3z"/>
		</g>
		<g>
			<path d="M586.6,581.6c-0.7,0-1.2-0.6-1.2-1.2v-36.7c0-0.7,0.6-1.2,1.2-1.2s1.2,0.6,1.2,1.2v36.7
				C587.8,581,587.3,581.6,586.6,581.6z"/>
		</g>
		<g>
			<path d="M572.3,581.6c-0.7,0-1.2-0.6-1.2-1.2v-19.5c0-0.7,0.6-1.2,1.2-1.2s1.2,0.6,1.2,1.2v19.5
				C573.5,581,572.9,581.6,572.3,581.6z"/>
		</g>
		<g>
			<path d="M557.9,581.6c-0.7,0-1.2-0.6-1.2-1.2v-27.2c0-0.7,0.6-1.2,1.2-1.2c0.7,0,1.2,0.6,1.2,1.2v27.2
				C559.2,581,558.6,581.6,557.9,581.6z"/>
		</g>
		<g>
			<path d="M846.2,581.6c-0.7,0-1.2-0.6-1.2-1.2v-21.7c0-0.7,0.6-1.2,1.2-1.2s1.2,0.6,1.2,1.2v21.7
				C847.5,581,846.9,581.6,846.2,581.6z"/>
		</g>
		<g>
			<path d="M831.9,581.6c-0.7,0-1.2-0.6-1.2-1.2v-35c0-0.7,0.6-1.2,1.2-1.2s1.2,0.6,1.2,1.2v35C833.1,581,832.6,581.6,831.9,581.6z"
				/>
		</g>
		<g>
			<path d="M817.6,581.6c-0.7,0-1.2-0.6-1.2-1.2v-17.5c0-0.7,0.6-1.2,1.2-1.2s1.2,0.6,1.2,1.2v17.5
				C818.8,581,818.2,581.6,817.6,581.6z"/>
		</g>
		<g>
			<path d="M597.5,516h-62.2c-0.7,0-1.2-0.6-1.2-1.2s0.6-1.2,1.2-1.2h62.2c0.7,0,1.2,0.6,1.2,1.2S598.2,516,597.5,516z"/>
		</g>
		<g>
			<path d="M622.6,516h-12.4c-0.7,0-1.2-0.6-1.2-1.2s0.6-1.2,1.2-1.2h12.4c0.7,0,1.2,0.6,1.2,1.2S623.3,516,622.6,516z"/>
		</g>
		<g>
			<path d="M733.1,399.9c-0.5,0-0.9-0.3-1.1-0.7c-0.3-0.6,0-1.4,0.6-1.6l45.6-21.9c0.6-0.3,1.4,0,1.6,0.6c0.3,0.6,0,1.4-0.6,1.6
				l-45.6,21.9C733.5,399.9,733.3,399.9,733.1,399.9z"/>
		</g>
		<g>
			<path d="M677.8,399.9c-0.5,0-0.9-0.3-1.1-0.7c-0.3-0.6,0-1.4,0.6-1.6l45.6-21.9c0.6-0.3,1.3,0,1.6,0.6c0.3,0.6,0,1.4-0.6,1.6
				l-45.6,21.9C678.2,399.9,678,399.9,677.8,399.9z"/>
		</g>
		<g>
			<path d="M622.5,399.9c-0.5,0-0.9-0.3-1.1-0.7c-0.3-0.6,0-1.4,0.6-1.6l45.6-21.9c0.6-0.3,1.3,0,1.6,0.6c0.3,0.6,0,1.4-0.6,1.6
				L623,399.8C622.9,399.9,622.7,399.9,622.5,399.9z"/>
		</g>
	</g>
	<g>
		<g>
			<g>
				<path fill="#FFFFFF" d="M975.4,862.9h179.2c9.6,0,18.1-4.6,23.5-11.7H951.8C957.2,858.3,965.7,862.9,975.4,862.9z"/>
				<path d="M1154.6,864.1H975.4c-9.7,0-18.6-4.4-24.5-12.2c-0.3-0.4-0.3-0.9-0.1-1.3c0.2-0.4,0.6-0.7,1.1-0.7h226.3
					c0.5,0,0.9,0.3,1.1,0.7c0.2,0.4,0.2,0.9-0.1,1.3C1173.2,859.7,1164.2,864.1,1154.6,864.1z M954.4,852.4
					c5.4,5.9,12.9,9.3,20.9,9.3h179.2c8.1,0,15.5-3.3,20.9-9.3H954.4z"/>
			</g>
			<g>
				<path fill="#FFFFFF" d="M945.8,833.3c0,6.7,2.3,12.9,6,17.9h226.3c3.8-5,6-11.2,6-17.9v-20.1H945.8V833.3z"/>
				<path d="M1178.1,852.4H951.8c-0.4,0-0.7-0.2-1-0.5c-4.1-5.4-6.3-11.9-6.3-18.6v-20.1c0-0.7,0.6-1.2,1.2-1.2h238.4
					c0.7,0,1.2,0.6,1.2,1.2v20.1c0,6.8-2.2,13.2-6.3,18.6C1178.8,852.2,1178.5,852.4,1178.1,852.4z M952.4,849.9h225
					c3.6-4.9,5.4-10.6,5.4-16.6v-18.9H947v18.9C947,839.3,948.9,845,952.4,849.9z"/>
			</g>
			<g>
				<path fill="#FFFFFF" d="M951.8,775.1c-3.8,5-6.1,11.2-6.1,17.9v20.1h238.4V793c0-6.7-2.3-12.9-6.1-17.9H951.8z"/>
				<path d="M1184.1,814.4H945.8c-0.7,0-1.2-0.6-1.2-1.2V793c0-6.8,2.2-13.2,6.3-18.6c0.2-0.3,0.6-0.5,1-0.5h226.3
					c0.4,0,0.7,0.2,1,0.5c4.1,5.4,6.3,11.9,6.3,18.6v20.1C1185.4,813.8,1184.8,814.4,1184.1,814.4z M947,811.9h235.9V793
					c0-6-1.9-11.8-5.4-16.6h-225c-3.6,4.9-5.4,10.6-5.4,16.6V811.9z"/>
			</g>
			<g>
				<path fill="#FFFFFF" d="M1154.6,763.4H975.4c-9.6,0-18.1,4.6-23.5,11.7h226.3C1172.7,768,1164.2,763.4,1154.6,763.4z"/>
				<path d="M1178.1,776.4H951.8c-0.5,0-0.9-0.3-1.1-0.7c-0.2-0.4-0.2-0.9,0.1-1.3c5.9-7.8,14.8-12.2,24.5-12.2h179.2
					c9.7,0,18.6,4.4,24.5,12.2c0.3,0.4,0.3,0.9,0.1,1.3C1179,776.1,1178.6,776.4,1178.1,776.4z M954.5,773.9h221
					c-5.4-5.9-12.9-9.2-20.9-9.2H975.4C967.3,764.7,959.8,768,954.5,773.9z"/>
			</g>
		</g>
		<g>
			<g>
				<path fill="#FFFFFF" d="M975.4,753.4h179.2c9.6,0,18.1-4.6,23.5-11.7H951.8C957.2,748.8,965.7,753.4,975.4,753.4z"/>
				<path d="M1154.6,754.6H975.4c-9.7,0-18.6-4.4-24.5-12.2c-0.3-0.4-0.3-0.9-0.1-1.3c0.2-0.4,0.6-0.7,1.1-0.7h226.3
					c0.5,0,0.9,0.3,1.1,0.7c0.2,0.4,0.2,0.9-0.1,1.3C1173.2,750.1,1164.2,754.6,1154.6,754.6z M954.4,742.9
					c5.4,5.9,12.9,9.3,20.9,9.3h179.2c8.1,0,15.5-3.3,20.9-9.3H954.4z"/>
			</g>
			<g>
				<path fill="#FFFFFF" d="M945.8,723.8c0,6.7,2.3,12.9,6,17.9h226.3c3.8-5,6-11.1,6-17.9v-20.1H945.8V723.8z"/>
				<path d="M1178.1,742.9H951.8c-0.4,0-0.7-0.2-1-0.5c-4.1-5.4-6.3-11.9-6.3-18.6v-20.1c0-0.7,0.6-1.2,1.2-1.2h238.4
					c0.7,0,1.2,0.6,1.2,1.2v20.1c0,6.8-2.2,13.2-6.3,18.6C1178.8,742.7,1178.5,742.9,1178.1,742.9z M952.4,740.4h225
					c3.6-4.9,5.4-10.6,5.4-16.6v-18.9H947v18.9C947,729.8,948.9,735.5,952.4,740.4z"/>
			</g>
			<g>
				<path fill="#FFFFFF" d="M951.8,665.6c-3.8,5-6.1,11.2-6.1,17.9v20.1h238.4v-20.1c0-6.7-2.3-12.9-6.1-17.9H951.8z"/>
				<path d="M1184.1,704.9H945.8c-0.7,0-1.2-0.6-1.2-1.2v-20.1c0-6.8,2.2-13.2,6.3-18.6c0.2-0.3,0.6-0.5,1-0.5h226.3
					c0.4,0,0.7,0.2,1,0.5c4.1,5.4,6.3,11.9,6.3,18.6v20.1C1185.4,704.3,1184.8,704.9,1184.1,704.9z M947,702.4h235.9v-18.9
					c0-6-1.9-11.8-5.4-16.6h-225c-3.6,4.9-5.4,10.6-5.4,16.6V702.4z"/>
			</g>
			<g>
				<path fill="#FFFFFF" d="M1154.6,653.9H975.4c-9.6,0-18.1,4.6-23.5,11.7h226.3C1172.7,658.5,1164.2,653.9,1154.6,653.9z"/>
				<path d="M1178.1,666.8H951.8c-0.5,0-0.9-0.3-1.1-0.7c-0.2-0.4-0.2-0.9,0.1-1.3c5.9-7.8,14.8-12.2,24.5-12.2h179.2
					c9.7,0,18.6,4.4,24.5,12.2c0.3,0.4,0.3,0.9,0.1,1.3C1179,666.6,1178.6,666.8,1178.1,666.8z M954.5,664.4h221
					c-5.4-5.9-12.9-9.2-20.9-9.2H975.4C967.3,655.1,959.8,658.5,954.5,664.4z"/>
			</g>
		</g>
		<g>
			<g>
				<path fill="#FFFFFF" d="M975.4,643.8h179.2c9.6,0,18.1-4.6,23.5-11.7H951.8C957.2,639.2,965.7,643.8,975.4,643.8z"/>
				<path d="M1154.6,645.1H975.4c-9.7,0-18.6-4.4-24.5-12.2c-0.3-0.4-0.3-0.9-0.1-1.3c0.2-0.4,0.6-0.7,1.1-0.7h226.3
					c0.5,0,0.9,0.3,1.1,0.7c0.2,0.4,0.2,0.9-0.1,1.3C1173.2,640.6,1164.2,645.1,1154.6,645.1z M954.4,633.4
					c5.4,5.9,12.9,9.3,20.9,9.3h179.2c8.1,0,15.5-3.3,20.9-9.3H954.4z"/>
			</g>
			<g>
				<path fill="#FFFFFF" d="M945.8,614.2c0,6.7,2.3,12.9,6,17.9h226.3c3.8-5,6-11.1,6-17.9v-20.1H945.8V614.2z"/>
				<path d="M1178.1,633.4H951.8c-0.4,0-0.7-0.2-1-0.5c-4.1-5.4-6.3-11.9-6.3-18.6v-20.1c0-0.7,0.6-1.2,1.2-1.2h238.4
					c0.7,0,1.2,0.6,1.2,1.2v20.1c0,6.8-2.2,13.2-6.3,18.6C1178.8,633.2,1178.5,633.4,1178.1,633.4z M952.4,630.9h225
					c3.6-4.9,5.4-10.6,5.4-16.6v-18.9H947v18.9C947,620.3,948.9,626,952.4,630.9z"/>
			</g>
			<g>
				<path fill="#FFFFFF" d="M951.8,556.1c-3.8,5-6.1,11.2-6.1,17.9v20.1h238.4V574c0-6.7-2.3-12.9-6.1-17.9H951.8z"/>
				<path d="M1184.1,595.3H945.8c-0.7,0-1.2-0.6-1.2-1.2V574c0-6.8,2.2-13.2,6.3-18.6c0.2-0.3,0.6-0.5,1-0.5h226.3
					c0.4,0,0.7,0.2,1,0.5c4.1,5.4,6.3,11.9,6.3,18.6v20.1C1185.4,594.8,1184.8,595.3,1184.1,595.3z M947,592.9h235.9V574
					c0-6-1.9-11.8-5.4-16.6h-225c-3.6,4.9-5.4,10.6-5.4,16.6V592.9z"/>
			</g>
			<g>
				<path fill="#FFFFFF" d="M1154.6,544.4H975.4c-9.6,0-18.1,4.6-23.5,11.7h226.3C1172.7,549,1164.2,544.4,1154.6,544.4z"/>
				<path d="M1178.1,557.3H951.8c-0.5,0-0.9-0.3-1.1-0.7c-0.2-0.4-0.2-0.9,0.1-1.3c5.9-7.8,14.8-12.2,24.5-12.2h179.2
					c9.7,0,18.6,4.4,24.5,12.2c0.3,0.4,0.3,0.9,0.1,1.3C1179,557.1,1178.6,557.3,1178.1,557.3z M954.5,554.9h221
					c-5.4-5.9-12.9-9.2-20.9-9.2H975.4C967.3,545.6,959.8,548.9,954.5,554.9z"/>
			</g>
		</g>
		<g>
			<polyline fill="#FFFFFF" points="1166.9,599.5 1179.6,612.2 1166.8,625 			"/>
			<path d="M1166.8,626.3c-0.3,0-0.6-0.1-0.9-0.4c-0.5-0.5-0.5-1.3,0-1.7l11.9-11.9l-11.9-11.9c-0.5-0.5-0.5-1.3,0-1.7
				c0.5-0.5,1.3-0.5,1.7,0l12.7,12.7c0.5,0.5,0.5,1.3,0,1.7l-12.8,12.8C1167.5,626.1,1167.1,626.3,1166.8,626.3z"/>
		</g>
		<g>
			<polyline fill="#FFFFFF" points="1152.6,599.5 1165.3,612.3 1152.5,625.1 			"/>
			<path d="M1152.5,626.3c-0.3,0-0.6-0.1-0.9-0.4c-0.5-0.5-0.5-1.3,0-1.7l11.9-11.9l-11.9-11.9c-0.5-0.5-0.5-1.3,0-1.7
				s1.3-0.5,1.7,0l12.7,12.7c0.2,0.2,0.4,0.5,0.4,0.9c0,0.3-0.1,0.6-0.4,0.9l-12.8,12.8C1153.1,626.2,1152.8,626.3,1152.5,626.3z"/>
		</g>
		<g>
			<polyline fill="#FFFFFF" points="1138.3,599.6 1151,612.3 1138.2,625.1 			"/>
			<path d="M1138.2,626.3c-0.3,0-0.6-0.1-0.9-0.4c-0.5-0.5-0.5-1.3,0-1.7l11.9-11.9l-11.9-11.9c-0.5-0.5-0.5-1.3,0-1.7
				s1.3-0.5,1.7,0l12.7,12.7c0.2,0.2,0.4,0.5,0.4,0.9c0,0.3-0.1,0.6-0.4,0.9l-12.8,12.8C1138.8,626.2,1138.5,626.3,1138.2,626.3z"/>
		</g>
		<g>
			<polyline fill="#FFFFFF" points="1123.9,599.6 1136.7,612.3 1123.9,625.1 			"/>
			<path d="M1123.9,626.3c-0.3,0-0.6-0.1-0.9-0.4c-0.5-0.5-0.5-1.3,0-1.7l11.9-11.9l-11.9-11.9c-0.5-0.5-0.5-1.3,0-1.7
				c0.5-0.5,1.3-0.5,1.7,0l12.7,12.7c0.2,0.2,0.4,0.5,0.4,0.9c0,0.3-0.1,0.6-0.4,0.9l-12.8,12.8
				C1124.5,626.2,1124.2,626.3,1123.9,626.3z"/>
		</g>
		<g>
			<polyline fill="#FFFFFF" points="1109.6,599.6 1122.3,612.4 1109.6,625.1 			"/>
			<path d="M1109.6,626.4c-0.3,0-0.6-0.1-0.9-0.4c-0.5-0.5-0.5-1.3,0-1.7l11.9-11.9l-11.9-11.9c-0.5-0.5-0.5-1.3,0-1.7
				c0.5-0.5,1.3-0.5,1.7,0l12.7,12.7c0.5,0.5,0.5,1.3,0,1.7l-12.8,12.8C1110.2,626.3,1109.9,626.4,1109.6,626.4z"/>
		</g>
		<g>
			<polyline fill="#FFFFFF" points="1095.3,599.7 1108,612.4 1095.3,625.2 			"/>
			<path d="M1095.3,626.4c-0.3,0-0.6-0.1-0.9-0.4c-0.5-0.5-0.5-1.3,0-1.7l11.9-11.9l-11.9-11.9c-0.5-0.5-0.5-1.3,0-1.7
				c0.5-0.5,1.3-0.5,1.7,0l12.7,12.7c0.5,0.5,0.5,1.3,0,1.7l-12.8,12.8C1095.9,626.3,1095.6,626.4,1095.3,626.4z"/>
		</g>
		<g>
			<polyline fill="#FFFFFF" points="1081,599.7 1093.7,612.4 1080.9,625.2 			"/>
			<path d="M1080.9,626.4c-0.3,0-0.6-0.1-0.9-0.4c-0.5-0.5-0.5-1.3,0-1.7l11.9-11.9l-11.9-11.9c-0.5-0.5-0.5-1.3,0-1.7
				c0.5-0.5,1.3-0.5,1.7,0l12.7,12.7c0.2,0.2,0.4,0.5,0.4,0.9c0,0.3-0.1,0.6-0.4,0.9l-12.8,12.8
				C1081.6,626.3,1081.3,626.4,1080.9,626.4z"/>
		</g>
		<g>
			<polyline fill="#FFFFFF" points="1066.7,599.7 1079.4,612.5 1066.6,625.2 			"/>
			<path d="M1066.6,626.5c-0.3,0-0.6-0.1-0.9-0.4c-0.5-0.5-0.5-1.3,0-1.7l11.9-11.9l-11.9-11.9c-0.5-0.5-0.5-1.3,0-1.7
				c0.5-0.5,1.3-0.5,1.7,0l12.7,12.7c0.2,0.2,0.4,0.5,0.4,0.9s-0.1,0.6-0.4,0.9l-12.8,12.8C1067.3,626.3,1066.9,626.5,1066.6,626.5z
				"/>
		</g>
		<g>
			<polyline fill="#FFFFFF" points="1052.4,599.8 1065.1,612.5 1052.3,625.3 			"/>
			<path d="M1052.3,626.5c-0.3,0-0.6-0.1-0.9-0.4c-0.5-0.5-0.5-1.3,0-1.7l11.9-11.9l-11.9-11.9c-0.5-0.5-0.5-1.3,0-1.7
				c0.5-0.5,1.3-0.5,1.7,0l12.7,12.7c0.5,0.5,0.5,1.3,0,1.7l-12.8,12.8C1052.9,626.4,1052.6,626.5,1052.3,626.5z"/>
		</g>
		<g>
			<polyline fill="#FFFFFF" points="1038.1,599.8 1050.8,612.5 1038,625.3 			"/>
			<path d="M1038,626.5c-0.3,0-0.6-0.1-0.9-0.4c-0.5-0.5-0.5-1.3,0-1.7l11.9-11.9l-11.9-11.9c-0.5-0.5-0.5-1.3,0-1.7
				c0.5-0.5,1.3-0.5,1.7,0l12.7,12.7c0.5,0.5,0.5,1.3,0,1.7l-12.8,12.8C1038.6,626.4,1038.3,626.5,1038,626.5z"/>
		</g>
		<g>
			<polyline fill="#FFFFFF" points="1023.7,599.8 1036.5,612.5 1023.7,625.3 			"/>
			<path d="M1023.7,626.6c-0.3,0-0.6-0.1-0.9-0.4c-0.5-0.5-0.5-1.3,0-1.7l11.9-11.9l-11.9-11.9c-0.5-0.5-0.5-1.3,0-1.7
				c0.5-0.5,1.3-0.5,1.7,0l12.7,12.7c0.2,0.2,0.4,0.5,0.4,0.9c0,0.3-0.1,0.6-0.4,0.9l-12.8,12.8
				C1024.3,626.4,1024,626.6,1023.7,626.6z"/>
		</g>
		<g>
			<polyline fill="#FFFFFF" points="1009.4,599.9 1022.2,612.6 1009.4,625.4 			"/>
			<path d="M1009.4,626.6c-0.3,0-0.6-0.1-0.9-0.4c-0.5-0.5-0.5-1.3,0-1.7l11.9-11.9l-11.9-11.9c-0.5-0.5-0.5-1.3,0-1.7
				s1.3-0.5,1.7,0l12.7,12.7c0.5,0.5,0.5,1.3,0,1.7l-12.8,12.8C1010,626.5,1009.7,626.6,1009.4,626.6z"/>
		</g>
		<g>
			<polyline fill="#FFFFFF" points="995.1,599.9 1007.8,612.6 995.1,625.4 			"/>
			<path d="M995.1,626.6c-0.3,0-0.6-0.1-0.9-0.4c-0.5-0.5-0.5-1.3,0-1.7l11.9-11.9l-11.9-11.9c-0.5-0.5-0.5-1.3,0-1.7s1.3-0.5,1.7,0
				l12.7,12.7c0.5,0.5,0.5,1.3,0,1.7l-12.8,12.8C995.7,626.5,995.4,626.6,995.1,626.6z"/>
		</g>
		<g>
			<polyline fill="#FFFFFF" points="980.8,599.9 993.5,612.6 980.7,625.4 			"/>
			<path d="M980.7,626.7c-0.3,0-0.6-0.1-0.9-0.4c-0.5-0.5-0.5-1.3,0-1.7l11.9-11.9l-11.9-11.9c-0.5-0.5-0.5-1.3,0-1.7s1.3-0.5,1.7,0
				l12.7,12.7c0.5,0.5,0.5,1.3,0,1.7l-12.8,12.8C981.4,626.5,981.1,626.7,980.7,626.7z"/>
		</g>
		<g>
			<polyline fill="#FFFFFF" points="966.5,599.9 979.2,612.7 966.4,625.5 			"/>
			<path d="M966.4,626.7c-0.3,0-0.6-0.1-0.9-0.4c-0.5-0.5-0.5-1.3,0-1.7l11.9-11.9l-11.9-11.9c-0.5-0.5-0.5-1.3,0-1.7
				c0.5-0.5,1.3-0.5,1.7,0l12.7,12.7c0.2,0.2,0.4,0.5,0.4,0.9s-0.1,0.6-0.4,0.9l-12.8,12.8C967.1,626.6,966.7,626.7,966.4,626.7z"/>
		</g>
		<g>
			<polyline fill="#FFFFFF" points="952.2,600 964.9,612.7 952.1,625.5 			"/>
			<path d="M952.1,626.7c-0.3,0-0.6-0.1-0.9-0.4c-0.5-0.5-0.5-1.3,0-1.7l11.9-11.9l-11.9-11.9c-0.5-0.5-0.5-1.3,0-1.7s1.3-0.5,1.7,0
				l12.7,12.7c0.2,0.2,0.4,0.5,0.4,0.9c0,0.3-0.1,0.6-0.4,0.9L953,626.4C952.8,626.6,952.4,626.7,952.1,626.7z"/>
		</g>
		<g>
			<polyline fill="#FFFFFF" points="1166.9,562.7 1179.6,575.5 1166.8,588.2 			"/>
			<path d="M1166.8,589.5c-0.3,0-0.6-0.1-0.9-0.4c-0.5-0.5-0.5-1.3,0-1.7l11.9-11.9l-11.9-11.9c-0.5-0.5-0.5-1.3,0-1.7
				c0.5-0.5,1.3-0.5,1.7,0l12.7,12.7c0.5,0.5,0.5,1.3,0,1.7l-12.8,12.8C1167.5,589.3,1167.1,589.5,1166.8,589.5z"/>
		</g>
		<g>
			<polyline fill="#FFFFFF" points="1152.6,562.8 1165.3,575.5 1152.5,588.3 			"/>
			<path d="M1152.5,589.5c-0.3,0-0.6-0.1-0.9-0.4c-0.5-0.5-0.5-1.3,0-1.7l11.9-11.9l-11.9-11.9c-0.5-0.5-0.5-1.3,0-1.7
				c0.5-0.5,1.3-0.5,1.7,0l12.7,12.7c0.2,0.2,0.4,0.5,0.4,0.9c0,0.3-0.1,0.6-0.4,0.9l-12.8,12.8
				C1153.1,589.4,1152.8,589.5,1152.5,589.5z"/>
		</g>
		<g>
			<polyline fill="#FFFFFF" points="1138.3,562.8 1151,575.5 1138.2,588.3 			"/>
			<path d="M1138.2,589.5c-0.3,0-0.6-0.1-0.9-0.4c-0.5-0.5-0.5-1.3,0-1.7l11.9-11.9l-11.9-11.9c-0.5-0.5-0.5-1.3,0-1.7
				c0.5-0.5,1.3-0.5,1.7,0l12.7,12.7c0.2,0.2,0.4,0.5,0.4,0.9c0,0.3-0.1,0.6-0.4,0.9l-12.8,12.8
				C1138.8,589.4,1138.5,589.5,1138.2,589.5z"/>
		</g>
		<g>
			<polyline fill="#FFFFFF" points="1123.9,562.8 1136.7,575.5 1123.9,588.3 			"/>
			<path d="M1123.9,589.6c-0.3,0-0.6-0.1-0.9-0.4c-0.5-0.5-0.5-1.3,0-1.7l11.9-11.9l-11.9-11.9c-0.5-0.5-0.5-1.3,0-1.7
				s1.3-0.5,1.7,0l12.7,12.7c0.2,0.2,0.4,0.5,0.4,0.9s-0.1,0.6-0.4,0.9l-12.8,12.8C1124.5,589.4,1124.2,589.6,1123.9,589.6z"/>
		</g>
		<g>
			<polyline fill="#FFFFFF" points="1109.6,562.9 1122.3,575.6 1109.6,588.4 			"/>
			<path d="M1109.6,589.6c-0.3,0-0.6-0.1-0.9-0.4c-0.5-0.5-0.5-1.3,0-1.7l11.9-11.9l-11.9-11.9c-0.5-0.5-0.5-1.3,0-1.7
				c0.5-0.5,1.3-0.5,1.7,0l12.7,12.7c0.5,0.5,0.5,1.3,0,1.7l-12.8,12.8C1110.2,589.5,1109.9,589.6,1109.6,589.6z"/>
		</g>
		<g>
			<polyline fill="#FFFFFF" points="1095.3,562.9 1108,575.6 1095.3,588.4 			"/>
			<path d="M1095.3,589.6c-0.3,0-0.6-0.1-0.9-0.4c-0.5-0.5-0.5-1.3,0-1.7l11.9-11.9l-11.9-11.9c-0.5-0.5-0.5-1.3,0-1.7
				c0.5-0.5,1.3-0.5,1.7,0l12.7,12.7c0.5,0.5,0.5,1.3,0,1.7l-12.8,12.8C1095.9,589.5,1095.6,589.6,1095.3,589.6z"/>
		</g>
		<g>
			<polyline fill="#FFFFFF" points="1081,562.9 1093.7,575.6 1080.9,588.4 			"/>
			<path d="M1080.9,589.7c-0.3,0-0.6-0.1-0.9-0.4c-0.5-0.5-0.5-1.3,0-1.7l11.9-11.9l-11.9-11.9c-0.5-0.5-0.5-1.3,0-1.7
				s1.3-0.5,1.7,0l12.7,12.7c0.2,0.2,0.4,0.5,0.4,0.9c0,0.3-0.1,0.6-0.4,0.9l-12.8,12.8C1081.6,589.5,1081.3,589.7,1080.9,589.7z"/>
		</g>
		<g>
			<polyline fill="#FFFFFF" points="1066.7,562.9 1079.4,575.7 1066.6,588.4 			"/>
			<path d="M1066.6,589.7c-0.3,0-0.6-0.1-0.9-0.4c-0.5-0.5-0.5-1.3,0-1.7l11.9-11.9l-11.9-11.9c-0.5-0.5-0.5-1.3,0-1.7
				c0.5-0.5,1.3-0.5,1.7,0l12.7,12.7c0.2,0.2,0.4,0.5,0.4,0.9c0,0.3-0.1,0.6-0.4,0.9l-12.8,12.8
				C1067.3,589.6,1066.9,589.7,1066.6,589.7z"/>
		</g>
		<g>
			<polyline fill="#FFFFFF" points="1052.4,563 1065.1,575.7 1052.3,588.5 			"/>
			<path d="M1052.3,589.7c-0.3,0-0.6-0.1-0.9-0.4c-0.5-0.5-0.5-1.3,0-1.7l11.9-11.9l-11.9-11.9c-0.5-0.5-0.5-1.3,0-1.7
				c0.5-0.5,1.3-0.5,1.7,0l12.7,12.7c0.5,0.5,0.5,1.3,0,1.7l-12.8,12.8C1052.9,589.6,1052.6,589.7,1052.3,589.7z"/>
		</g>
		<g>
			<polyline fill="#FFFFFF" points="1038.1,563 1050.8,575.7 1038,588.5 			"/>
			<path d="M1038,589.7c-0.3,0-0.6-0.1-0.9-0.4c-0.5-0.5-0.5-1.3,0-1.7l11.9-11.9l-11.9-11.9c-0.5-0.5-0.5-1.3,0-1.7
				c0.5-0.5,1.3-0.5,1.7,0l12.7,12.7c0.5,0.5,0.5,1.3,0,1.7l-12.8,12.8C1038.6,589.6,1038.3,589.7,1038,589.7z"/>
		</g>
		<g>
			<polyline fill="#FFFFFF" points="1023.7,563 1036.5,575.8 1023.7,588.5 			"/>
			<path d="M1023.7,589.8c-0.3,0-0.6-0.1-0.9-0.4c-0.5-0.5-0.5-1.3,0-1.7l11.9-11.9l-11.9-11.9c-0.5-0.5-0.5-1.3,0-1.7
				c0.5-0.5,1.3-0.5,1.7,0l12.7,12.7c0.2,0.2,0.4,0.5,0.4,0.9s-0.1,0.6-0.4,0.9l-12.8,12.8C1024.3,589.7,1024,589.8,1023.7,589.8z"
				/>
		</g>
		<g>
			<polyline fill="#FFFFFF" points="1009.4,563.1 1022.2,575.8 1009.4,588.6 			"/>
			<path d="M1009.4,589.8c-0.3,0-0.6-0.1-0.9-0.4c-0.5-0.5-0.5-1.3,0-1.7l11.9-11.9l-11.9-11.9c-0.5-0.5-0.5-1.3,0-1.7
				c0.5-0.5,1.3-0.5,1.7,0l12.7,12.7c0.5,0.5,0.5,1.3,0,1.7l-12.8,12.8C1010,589.7,1009.7,589.8,1009.4,589.8z"/>
		</g>
		<g>
			<polyline fill="#FFFFFF" points="995.1,563.1 1007.8,575.8 995.1,588.6 			"/>
			<path d="M995.1,589.8c-0.3,0-0.6-0.1-0.9-0.4c-0.5-0.5-0.5-1.3,0-1.7l11.9-11.9L994.2,564c-0.5-0.5-0.5-1.3,0-1.7
				c0.5-0.5,1.3-0.5,1.7,0l12.7,12.7c0.5,0.5,0.5,1.3,0,1.7l-12.8,12.8C995.7,589.7,995.4,589.8,995.1,589.8z"/>
		</g>
		<g>
			<polyline fill="#FFFFFF" points="980.8,563.1 993.5,575.9 980.7,588.6 			"/>
			<path d="M980.7,589.9c-0.3,0-0.6-0.1-0.9-0.4c-0.5-0.5-0.5-1.3,0-1.7l11.9-11.9L979.9,564c-0.5-0.5-0.5-1.3,0-1.7
				c0.5-0.5,1.3-0.5,1.7,0l12.7,12.7c0.5,0.5,0.5,1.3,0,1.7l-12.8,12.8C981.4,589.7,981.1,589.9,980.7,589.9z"/>
		</g>
		<g>
			<polyline fill="#FFFFFF" points="966.5,563.2 979.2,575.9 966.4,588.7 			"/>
			<path d="M966.4,589.9c-0.3,0-0.6-0.1-0.9-0.4c-0.5-0.5-0.5-1.3,0-1.7l11.9-11.9L965.6,564c-0.5-0.5-0.5-1.3,0-1.7
				c0.5-0.5,1.3-0.5,1.7,0l12.7,12.7c0.2,0.2,0.4,0.5,0.4,0.9c0,0.3-0.1,0.6-0.4,0.9l-12.8,12.8
				C967.1,589.8,966.7,589.9,966.4,589.9z"/>
		</g>
		<g>
			<polyline fill="#FFFFFF" points="952.2,563.2 964.9,575.9 952.1,588.7 			"/>
			<path d="M952.1,589.9c-0.3,0-0.6-0.1-0.9-0.4c-0.5-0.5-0.5-1.3,0-1.7l11.9-11.9l-11.9-11.9c-0.5-0.5-0.5-1.3,0-1.7s1.3-0.5,1.7,0
				l12.7,12.7c0.2,0.2,0.4,0.5,0.4,0.9c0,0.3-0.1,0.6-0.4,0.9L953,589.6C952.8,589.8,952.4,589.9,952.1,589.9z"/>
		</g>
		<g>
			<polyline fill="#FFFFFF" points="1166.9,709 1179.6,721.8 1166.8,734.5 			"/>
			<path d="M1166.8,735.8c-0.3,0-0.6-0.1-0.9-0.4c-0.5-0.5-0.5-1.3,0-1.7l11.9-11.9l-11.9-11.9c-0.5-0.5-0.5-1.3,0-1.7
				c0.5-0.5,1.3-0.5,1.7,0l12.7,12.7c0.5,0.5,0.5,1.3,0,1.7l-12.8,12.8C1167.5,735.7,1167.1,735.8,1166.8,735.8z"/>
		</g>
		<g>
			<polyline fill="#FFFFFF" points="1152.6,709.1 1165.3,721.8 1152.5,734.6 			"/>
			<path d="M1152.5,735.8c-0.3,0-0.6-0.1-0.9-0.4c-0.5-0.5-0.5-1.3,0-1.7l11.9-11.9l-11.9-11.9c-0.5-0.5-0.5-1.3,0-1.7
				s1.3-0.5,1.7,0l12.7,12.7c0.2,0.2,0.4,0.5,0.4,0.9c0,0.3-0.1,0.6-0.4,0.9l-12.8,12.8C1153.1,735.7,1152.8,735.8,1152.5,735.8z"/>
		</g>
		<g>
			<polyline fill="#FFFFFF" points="1138.3,709.1 1151,721.8 1138.2,734.6 			"/>
			<path d="M1138.2,735.8c-0.3,0-0.6-0.1-0.9-0.4c-0.5-0.5-0.5-1.3,0-1.7l11.9-11.9l-11.9-11.9c-0.5-0.5-0.5-1.3,0-1.7
				s1.3-0.5,1.7,0l12.7,12.7c0.2,0.2,0.4,0.5,0.4,0.9c0,0.3-0.1,0.6-0.4,0.9l-12.8,12.8C1138.8,735.7,1138.5,735.8,1138.2,735.8z"/>
		</g>
		<g>
			<polyline fill="#FFFFFF" points="1123.9,709.1 1136.7,721.9 1123.9,734.6 			"/>
			<path d="M1123.9,735.9c-0.3,0-0.6-0.1-0.9-0.4c-0.5-0.5-0.5-1.3,0-1.7l11.9-11.9l-11.9-11.9c-0.5-0.5-0.5-1.3,0-1.7
				c0.5-0.5,1.3-0.5,1.7,0l12.7,12.7c0.2,0.2,0.4,0.5,0.4,0.9c0,0.3-0.1,0.6-0.4,0.9l-12.8,12.8
				C1124.5,735.7,1124.2,735.9,1123.9,735.9z"/>
		</g>
		<g>
			<polyline fill="#FFFFFF" points="1109.6,709.2 1122.3,721.9 1109.6,734.7 			"/>
			<path d="M1109.6,735.9c-0.3,0-0.6-0.1-0.9-0.4c-0.5-0.5-0.5-1.3,0-1.7l11.9-11.9l-11.9-11.9c-0.5-0.5-0.5-1.3,0-1.7
				c0.5-0.5,1.3-0.5,1.7,0l12.7,12.7c0.5,0.5,0.5,1.3,0,1.7l-12.8,12.8C1110.2,735.8,1109.9,735.9,1109.6,735.9z"/>
		</g>
		<g>
			<polyline fill="#FFFFFF" points="1095.3,709.2 1108,721.9 1095.3,734.7 			"/>
			<path d="M1095.3,735.9c-0.3,0-0.6-0.1-0.9-0.4c-0.5-0.5-0.5-1.3,0-1.7l11.9-11.9l-11.9-11.9c-0.5-0.5-0.5-1.3,0-1.7
				c0.5-0.5,1.3-0.5,1.7,0l12.7,12.7c0.5,0.5,0.5,1.3,0,1.7l-12.8,12.8C1095.9,735.8,1095.6,735.9,1095.3,735.9z"/>
		</g>
		<g>
			<polyline fill="#FFFFFF" points="1081,709.2 1093.7,721.9 1080.9,734.7 			"/>
			<path d="M1080.9,736c-0.3,0-0.6-0.1-0.9-0.4c-0.5-0.5-0.5-1.3,0-1.7l11.9-11.9l-11.9-11.9c-0.5-0.5-0.5-1.3,0-1.7s1.3-0.5,1.7,0
				l12.7,12.7c0.2,0.2,0.4,0.5,0.4,0.9c0,0.3-0.1,0.6-0.4,0.9l-12.8,12.8C1081.6,735.8,1081.3,736,1080.9,736z"/>
		</g>
		<g>
			<polyline fill="#FFFFFF" points="1066.7,709.3 1079.4,722 1066.6,734.8 			"/>
			<path d="M1066.6,736c-0.3,0-0.6-0.1-0.9-0.4c-0.5-0.5-0.5-1.3,0-1.7l11.9-11.9l-11.9-11.9c-0.5-0.5-0.5-1.3,0-1.7s1.3-0.5,1.7,0
				l12.7,12.7c0.2,0.2,0.4,0.5,0.4,0.9c0,0.3-0.1,0.6-0.4,0.9l-12.8,12.8C1067.3,735.9,1066.9,736,1066.6,736z"/>
		</g>
		<g>
			<polyline fill="#FFFFFF" points="1052.4,709.3 1065.1,722 1052.3,734.8 			"/>
			<path d="M1052.3,736c-0.3,0-0.6-0.1-0.9-0.4c-0.5-0.5-0.5-1.3,0-1.7l11.9-11.9l-11.9-11.9c-0.5-0.5-0.5-1.3,0-1.7
				c0.5-0.5,1.3-0.5,1.7,0l12.7,12.7c0.5,0.5,0.5,1.3,0,1.7l-12.8,12.8C1052.9,735.9,1052.6,736,1052.3,736z"/>
		</g>
		<g>
			<polyline fill="#FFFFFF" points="1038.1,709.3 1050.8,722 1038,734.8 			"/>
			<path d="M1038,736.1c-0.3,0-0.6-0.1-0.9-0.4c-0.5-0.5-0.5-1.3,0-1.7L1049,722l-11.9-11.9c-0.5-0.5-0.5-1.3,0-1.7
				c0.5-0.5,1.3-0.5,1.7,0l12.7,12.7c0.5,0.5,0.5,1.3,0,1.7l-12.8,12.8C1038.6,735.9,1038.3,736.1,1038,736.1z"/>
		</g>
		<g>
			<polyline fill="#FFFFFF" points="1023.7,709.3 1036.5,722.1 1023.7,734.8 			"/>
			<path d="M1023.7,736.1c-0.3,0-0.6-0.1-0.9-0.4c-0.5-0.5-0.5-1.3,0-1.7l11.9-11.9l-11.9-11.9c-0.5-0.5-0.5-1.3,0-1.7
				c0.5-0.5,1.3-0.5,1.7,0l12.7,12.7c0.2,0.2,0.4,0.5,0.4,0.9c0,0.3-0.1,0.6-0.4,0.9l-12.8,12.8C1024.3,736,1024,736.1,1023.7,736.1
				z"/>
		</g>
		<g>
			<polyline fill="#FFFFFF" points="1009.4,709.4 1022.2,722.1 1009.4,734.9 			"/>
			<path d="M1009.4,736.1c-0.3,0-0.6-0.1-0.9-0.4c-0.5-0.5-0.5-1.3,0-1.7l11.9-11.9l-11.9-11.9c-0.5-0.5-0.5-1.3,0-1.7
				s1.3-0.5,1.7,0l12.7,12.7c0.5,0.5,0.5,1.3,0,1.7l-12.8,12.8C1010,736,1009.7,736.1,1009.4,736.1z"/>
		</g>
		<g>
			<polyline fill="#FFFFFF" points="995.1,709.4 1007.8,722.1 995.1,734.9 			"/>
			<path d="M995.1,736.1c-0.3,0-0.6-0.1-0.9-0.4c-0.5-0.5-0.5-1.3,0-1.7l11.9-11.9l-11.9-11.9c-0.5-0.5-0.5-1.3,0-1.7s1.3-0.5,1.7,0
				l12.7,12.7c0.5,0.5,0.5,1.3,0,1.7l-12.8,12.8C995.7,736,995.4,736.1,995.1,736.1z"/>
		</g>
		<g>
			<polyline fill="#FFFFFF" points="980.8,709.4 993.5,722.2 980.7,734.9 			"/>
			<path d="M980.7,736.2c-0.3,0-0.6-0.1-0.9-0.4c-0.5-0.5-0.5-1.3,0-1.7l11.9-11.9l-11.9-11.9c-0.5-0.5-0.5-1.3,0-1.7s1.3-0.5,1.7,0
				l12.7,12.7c0.5,0.5,0.5,1.3,0,1.7l-12.8,12.8C981.4,736.1,981.1,736.2,980.7,736.2z"/>
		</g>
		<g>
			<polyline fill="#FFFFFF" points="966.5,709.5 979.2,722.2 966.4,735 			"/>
			<path d="M966.4,736.2c-0.3,0-0.6-0.1-0.9-0.4c-0.5-0.5-0.5-1.3,0-1.7l11.9-11.9l-11.9-11.9c-0.5-0.5-0.5-1.3,0-1.7
				c0.5-0.5,1.3-0.5,1.7,0l12.7,12.7c0.2,0.2,0.4,0.5,0.4,0.9c0,0.3-0.1,0.6-0.4,0.9l-12.8,12.8
				C967.1,736.1,966.7,736.2,966.4,736.2z"/>
		</g>
		<g>
			<polyline fill="#FFFFFF" points="952.2,709.5 964.9,722.2 952.1,735 			"/>
			<path d="M952.1,736.2c-0.3,0-0.6-0.1-0.9-0.4c-0.5-0.5-0.5-1.3,0-1.7l11.9-11.9l-11.9-11.9c-0.5-0.5-0.5-1.3,0-1.7
				c0.5-0.5,1.3-0.5,1.7,0l12.7,12.7c0.2,0.2,0.4,0.5,0.4,0.9c0,0.3-0.1,0.6-0.4,0.9L953,735.9C952.8,736.1,952.4,736.2,952.1,736.2
				z"/>
		</g>
		<g>
			<polyline fill="#FFFFFF" points="1166.9,672.3 1179.6,685 1166.8,697.8 			"/>
			<path d="M1166.8,699c-0.3,0-0.6-0.1-0.9-0.4c-0.5-0.5-0.5-1.3,0-1.7l11.9-11.9l-11.9-11.9c-0.5-0.5-0.5-1.3,0-1.7
				c0.5-0.5,1.3-0.5,1.7,0l12.7,12.7c0.5,0.5,0.5,1.3,0,1.7l-12.8,12.8C1167.5,698.9,1167.1,699,1166.8,699z"/>
		</g>
		<g>
			<polyline fill="#FFFFFF" points="1152.6,672.3 1165.3,685 1152.5,697.8 			"/>
			<path d="M1152.5,699c-0.3,0-0.6-0.1-0.9-0.4c-0.5-0.5-0.5-1.3,0-1.7l11.9-11.9l-11.9-11.9c-0.5-0.5-0.5-1.3,0-1.7
				c0.5-0.5,1.3-0.5,1.7,0l12.7,12.7c0.2,0.2,0.4,0.5,0.4,0.9c0,0.3-0.1,0.6-0.4,0.9l-12.8,12.8C1153.1,698.9,1152.8,699,1152.5,699
				z"/>
		</g>
		<g>
			<polyline fill="#FFFFFF" points="1138.3,672.3 1151,685 1138.2,697.8 			"/>
			<path d="M1138.2,699c-0.3,0-0.6-0.1-0.9-0.4c-0.5-0.5-0.5-1.3,0-1.7l11.9-11.9l-11.9-11.9c-0.5-0.5-0.5-1.3,0-1.7s1.3-0.5,1.7,0
				l12.7,12.7c0.2,0.2,0.4,0.5,0.4,0.9c0,0.3-0.1,0.6-0.4,0.9l-12.8,12.8C1138.8,698.9,1138.5,699,1138.2,699z"/>
		</g>
		<g>
			<polyline fill="#FFFFFF" points="1123.9,672.3 1136.7,685.1 1123.9,697.8 			"/>
			<path d="M1123.9,699.1c-0.3,0-0.6-0.1-0.9-0.4c-0.5-0.5-0.5-1.3,0-1.7l11.9-11.9l-11.9-11.9c-0.5-0.5-0.5-1.3,0-1.7
				c0.5-0.5,1.3-0.5,1.7,0l12.7,12.7c0.2,0.2,0.4,0.5,0.4,0.9c0,0.3-0.1,0.6-0.4,0.9l-12.8,12.8
				C1124.5,699,1124.2,699.1,1123.9,699.1z"/>
		</g>
		<g>
			<polyline fill="#FFFFFF" points="1109.6,672.4 1122.3,685.1 1109.6,697.9 			"/>
			<path d="M1109.6,699.1c-0.3,0-0.6-0.1-0.9-0.4c-0.5-0.5-0.5-1.3,0-1.7l11.9-11.9l-11.9-11.9c-0.5-0.5-0.5-1.3,0-1.7
				c0.5-0.5,1.3-0.5,1.7,0l12.7,12.7c0.5,0.5,0.5,1.3,0,1.7l-12.8,12.8C1110.2,699,1109.9,699.1,1109.6,699.1z"/>
		</g>
		<g>
			<polyline fill="#FFFFFF" points="1095.3,672.4 1108,685.1 1095.3,697.9 			"/>
			<path d="M1095.3,699.1c-0.3,0-0.6-0.1-0.9-0.4c-0.5-0.5-0.5-1.3,0-1.7l11.9-11.9l-11.9-11.9c-0.5-0.5-0.5-1.3,0-1.7
				c0.5-0.5,1.3-0.5,1.7,0l12.7,12.7c0.5,0.5,0.5,1.3,0,1.7l-12.8,12.8C1095.9,699,1095.6,699.1,1095.3,699.1z"/>
		</g>
		<g>
			<polyline fill="#FFFFFF" points="1081,672.4 1093.7,685.2 1080.9,697.9 			"/>
			<path d="M1080.9,699.2c-0.3,0-0.6-0.1-0.9-0.4c-0.5-0.5-0.5-1.3,0-1.7l11.9-11.9l-11.9-11.9c-0.5-0.5-0.5-1.3,0-1.7
				c0.5-0.5,1.3-0.5,1.7,0l12.7,12.7c0.2,0.2,0.4,0.5,0.4,0.9c0,0.3-0.1,0.6-0.4,0.9l-12.8,12.8
				C1081.6,699.1,1081.3,699.2,1080.9,699.2z"/>
		</g>
		<g>
			<polyline fill="#FFFFFF" points="1066.7,672.5 1079.4,685.2 1066.6,698 			"/>
			<path d="M1066.6,699.2c-0.3,0-0.6-0.1-0.9-0.4c-0.5-0.5-0.5-1.3,0-1.7l11.9-11.9l-11.9-11.9c-0.5-0.5-0.5-1.3,0-1.7
				c0.5-0.5,1.3-0.5,1.7,0l12.7,12.7c0.2,0.2,0.4,0.5,0.4,0.9s-0.1,0.6-0.4,0.9l-12.8,12.8C1067.3,699.1,1066.9,699.2,1066.6,699.2z
				"/>
		</g>
		<g>
			<polyline fill="#FFFFFF" points="1052.4,672.5 1065.1,685.2 1052.3,698 			"/>
			<path d="M1052.3,699.2c-0.3,0-0.6-0.1-0.9-0.4c-0.5-0.5-0.5-1.3,0-1.7l11.9-11.9l-11.9-11.9c-0.5-0.5-0.5-1.3,0-1.7
				c0.5-0.5,1.3-0.5,1.7,0l12.7,12.7c0.5,0.5,0.5,1.3,0,1.7l-12.8,12.8C1052.9,699.1,1052.6,699.2,1052.3,699.2z"/>
		</g>
		<g>
			<polyline fill="#FFFFFF" points="1038.1,672.5 1050.8,685.3 1038,698 			"/>
			<path d="M1038,699.3c-0.3,0-0.6-0.1-0.9-0.4c-0.5-0.5-0.5-1.3,0-1.7l11.9-11.9l-11.9-11.9c-0.5-0.5-0.5-1.3,0-1.7
				c0.5-0.5,1.3-0.5,1.7,0l12.7,12.7c0.5,0.5,0.5,1.3,0,1.7l-12.8,12.8C1038.6,699.1,1038.3,699.3,1038,699.3z"/>
		</g>
		<g>
			<polyline fill="#FFFFFF" points="1023.7,672.6 1036.5,685.3 1023.7,698.1 			"/>
			<path d="M1023.7,699.3c-0.3,0-0.6-0.1-0.9-0.4c-0.5-0.5-0.5-1.3,0-1.7l11.9-11.9l-11.9-11.9c-0.5-0.5-0.5-1.3,0-1.7
				c0.5-0.5,1.3-0.5,1.7,0l12.7,12.7c0.2,0.2,0.4,0.5,0.4,0.9s-0.1,0.6-0.4,0.9l-12.8,12.8C1024.3,699.2,1024,699.3,1023.7,699.3z"
				/>
		</g>
		<g>
			<polyline fill="#FFFFFF" points="1009.4,672.6 1022.2,685.3 1009.4,698.1 			"/>
			<path d="M1009.4,699.3c-0.3,0-0.6-0.1-0.9-0.4c-0.5-0.5-0.5-1.3,0-1.7l11.9-11.9l-11.9-11.9c-0.5-0.5-0.5-1.3,0-1.7
				s1.3-0.5,1.7,0l12.7,12.7c0.5,0.5,0.5,1.3,0,1.7l-12.8,12.8C1010,699.2,1009.7,699.3,1009.4,699.3z"/>
		</g>
		<g>
			<polyline fill="#FFFFFF" points="995.1,672.6 1007.8,685.3 995.1,698.1 			"/>
			<path d="M995.1,699.4c-0.3,0-0.6-0.1-0.9-0.4c-0.5-0.5-0.5-1.3,0-1.7l11.9-11.9l-11.9-11.9c-0.5-0.5-0.5-1.3,0-1.7s1.3-0.5,1.7,0
				l12.7,12.7c0.5,0.5,0.5,1.3,0,1.7L995.9,699C995.7,699.2,995.4,699.4,995.1,699.4z"/>
		</g>
		<g>
			<polyline fill="#FFFFFF" points="980.8,672.7 993.5,685.4 980.7,698.2 			"/>
			<path d="M980.7,699.4c-0.3,0-0.6-0.1-0.9-0.4c-0.5-0.5-0.5-1.3,0-1.7l11.9-11.9l-11.9-11.9c-0.5-0.5-0.5-1.3,0-1.7s1.3-0.5,1.7,0
				l12.7,12.7c0.5,0.5,0.5,1.3,0,1.7L981.6,699C981.4,699.3,981.1,699.4,980.7,699.4z"/>
		</g>
		<g>
			<polyline fill="#FFFFFF" points="966.5,672.7 979.2,685.4 966.4,698.2 			"/>
			<path d="M966.4,699.4c-0.3,0-0.6-0.1-0.9-0.4c-0.5-0.5-0.5-1.3,0-1.7l11.9-11.9l-11.9-11.9c-0.5-0.5-0.5-1.3,0-1.7
				c0.5-0.5,1.3-0.5,1.7,0l12.7,12.7c0.2,0.2,0.4,0.5,0.4,0.9s-0.1,0.6-0.4,0.9l-12.8,12.8C967.1,699.3,966.7,699.4,966.4,699.4z"/>
		</g>
		<g>
			<polyline fill="#FFFFFF" points="952.2,672.7 964.9,685.4 952.1,698.2 			"/>
			<path d="M952.1,699.4c-0.3,0-0.6-0.1-0.9-0.4c-0.5-0.5-0.5-1.3,0-1.7l11.9-11.9l-11.9-11.9c-0.5-0.5-0.5-1.3,0-1.7s1.3-0.5,1.7,0
				l12.7,12.7c0.2,0.2,0.4,0.5,0.4,0.9s-0.1,0.6-0.4,0.9L953,699.1C952.8,699.3,952.4,699.4,952.1,699.4z"/>
		</g>
		<g>
			<polyline fill="#FFFFFF" points="1166.9,818.6 1179.6,831.3 1166.8,844.1 			"/>
			<path d="M1166.8,845.3c-0.3,0-0.6-0.1-0.9-0.4c-0.5-0.5-0.5-1.3,0-1.7l11.9-11.9l-11.9-11.9c-0.5-0.5-0.5-1.3,0-1.7
				c0.5-0.5,1.3-0.5,1.7,0l12.7,12.7c0.5,0.5,0.5,1.3,0,1.7l-12.8,12.8C1167.5,845.2,1167.1,845.3,1166.8,845.3z"/>
		</g>
		<g>
			<polyline fill="#FFFFFF" points="1152.6,818.6 1165.3,831.3 1152.5,844.1 			"/>
			<path d="M1152.5,845.3c-0.3,0-0.6-0.1-0.9-0.4c-0.5-0.5-0.5-1.3,0-1.7l11.9-11.9l-11.9-11.9c-0.5-0.5-0.5-1.3,0-1.7
				s1.3-0.5,1.7,0l12.7,12.7c0.2,0.2,0.4,0.5,0.4,0.9s-0.1,0.6-0.4,0.9l-12.8,12.8C1153.1,845.2,1152.8,845.3,1152.5,845.3z"/>
		</g>
		<g>
			<polyline fill="#FFFFFF" points="1138.3,818.6 1151,831.3 1138.2,844.1 			"/>
			<path d="M1138.2,845.4c-0.3,0-0.6-0.1-0.9-0.4c-0.5-0.5-0.5-1.3,0-1.7l11.9-11.9l-11.9-11.9c-0.5-0.5-0.5-1.3,0-1.7
				s1.3-0.5,1.7,0l12.7,12.7c0.2,0.2,0.4,0.5,0.4,0.9c0,0.3-0.1,0.6-0.4,0.9l-12.8,12.8C1138.8,845.2,1138.5,845.4,1138.2,845.4z"/>
		</g>
		<g>
			<polyline fill="#FFFFFF" points="1123.9,818.7 1136.7,831.4 1123.9,844.2 			"/>
			<path d="M1123.9,845.4c-0.3,0-0.6-0.1-0.9-0.4c-0.5-0.5-0.5-1.3,0-1.7l11.9-11.9l-11.9-11.9c-0.5-0.5-0.5-1.3,0-1.7
				s1.3-0.5,1.7,0l12.7,12.7c0.2,0.2,0.4,0.5,0.4,0.9c0,0.3-0.1,0.6-0.4,0.9l-12.8,12.8C1124.5,845.3,1124.2,845.4,1123.9,845.4z"/>
		</g>
		<g>
			<polyline fill="#FFFFFF" points="1109.6,818.7 1122.3,831.4 1109.6,844.2 			"/>
			<path d="M1109.6,845.4c-0.3,0-0.6-0.1-0.9-0.4c-0.5-0.5-0.5-1.3,0-1.7l11.9-11.9l-11.9-11.9c-0.5-0.5-0.5-1.3,0-1.7
				c0.5-0.5,1.3-0.5,1.7,0l12.7,12.7c0.5,0.5,0.5,1.3,0,1.7l-12.8,12.8C1110.2,845.3,1109.9,845.4,1109.6,845.4z"/>
		</g>
		<g>
			<polyline fill="#FFFFFF" points="1095.3,818.7 1108,831.4 1095.3,844.2 			"/>
			<path d="M1095.3,845.5c-0.3,0-0.6-0.1-0.9-0.4c-0.5-0.5-0.5-1.3,0-1.7l11.9-11.9l-11.9-11.9c-0.5-0.5-0.5-1.3,0-1.7
				c0.5-0.5,1.3-0.5,1.7,0l12.7,12.7c0.5,0.5,0.5,1.3,0,1.7l-12.8,12.8C1095.9,845.3,1095.6,845.5,1095.3,845.5z"/>
		</g>
		<g>
			<polyline fill="#FFFFFF" points="1081,818.7 1093.7,831.5 1080.9,844.2 			"/>
			<path d="M1080.9,845.5c-0.3,0-0.6-0.1-0.9-0.4c-0.5-0.5-0.5-1.3,0-1.7l11.9-11.9l-11.9-11.9c-0.5-0.5-0.5-1.3,0-1.7
				s1.3-0.5,1.7,0l12.7,12.7c0.2,0.2,0.4,0.5,0.4,0.9s-0.1,0.6-0.4,0.9l-12.8,12.8C1081.6,845.4,1081.3,845.5,1080.9,845.5z"/>
		</g>
		<g>
			<polyline fill="#FFFFFF" points="1066.7,818.8 1079.4,831.5 1066.6,844.3 			"/>
			<path d="M1066.6,845.5c-0.3,0-0.6-0.1-0.9-0.4c-0.5-0.5-0.5-1.3,0-1.7l11.9-11.9l-11.9-11.9c-0.5-0.5-0.5-1.3,0-1.7
				s1.3-0.5,1.7,0l12.7,12.7c0.2,0.2,0.4,0.5,0.4,0.9c0,0.3-0.1,0.6-0.4,0.9l-12.8,12.8C1067.3,845.4,1066.9,845.5,1066.6,845.5z"/>
		</g>
		<g>
			<polyline fill="#FFFFFF" points="1052.4,818.8 1065.1,831.5 1052.3,844.3 			"/>
			<path d="M1052.3,845.5c-0.3,0-0.6-0.1-0.9-0.4c-0.5-0.5-0.5-1.3,0-1.7l11.9-11.9l-11.9-11.9c-0.5-0.5-0.5-1.3,0-1.7
				c0.5-0.5,1.3-0.5,1.7,0l12.7,12.7c0.5,0.5,0.5,1.3,0,1.7l-12.8,12.8C1052.9,845.4,1052.6,845.5,1052.3,845.5z"/>
		</g>
		<g>
			<polyline fill="#FFFFFF" points="1038.1,818.8 1050.8,831.6 1038,844.3 			"/>
			<path d="M1038,845.6c-0.3,0-0.6-0.1-0.9-0.4c-0.5-0.5-0.5-1.3,0-1.7l11.9-11.9l-11.9-11.9c-0.5-0.5-0.5-1.3,0-1.7
				c0.5-0.5,1.3-0.5,1.7,0l12.7,12.7c0.5,0.5,0.5,1.3,0,1.7l-12.8,12.8C1038.6,845.5,1038.3,845.6,1038,845.6z"/>
		</g>
		<g>
			<polyline fill="#FFFFFF" points="1023.7,818.9 1036.5,831.6 1023.7,844.4 			"/>
			<path d="M1023.7,845.6c-0.3,0-0.6-0.1-0.9-0.4c-0.5-0.5-0.5-1.3,0-1.7l11.9-11.9l-11.9-11.9c-0.5-0.5-0.5-1.3,0-1.7
				c0.5-0.5,1.3-0.5,1.7,0l12.7,12.7c0.2,0.2,0.4,0.5,0.4,0.9c0,0.3-0.1,0.6-0.4,0.9l-12.8,12.8
				C1024.3,845.5,1024,845.6,1023.7,845.6z"/>
		</g>
		<g>
			<polyline fill="#FFFFFF" points="1009.4,818.9 1022.2,831.6 1009.4,844.4 			"/>
			<path d="M1009.4,845.6c-0.3,0-0.6-0.1-0.9-0.4c-0.5-0.5-0.5-1.3,0-1.7l11.9-11.9l-11.9-11.9c-0.5-0.5-0.5-1.3,0-1.7
				c0.5-0.5,1.3-0.5,1.7,0l12.7,12.7c0.5,0.5,0.5,1.3,0,1.7l-12.8,12.8C1010,845.5,1009.7,845.6,1009.4,845.6z"/>
		</g>
		<g>
			<polyline fill="#FFFFFF" points="995.1,818.9 1007.8,831.7 995.1,844.4 			"/>
			<path d="M995.1,845.7c-0.3,0-0.6-0.1-0.9-0.4c-0.5-0.5-0.5-1.3,0-1.7l11.9-11.9l-11.9-11.9c-0.5-0.5-0.5-1.3,0-1.7
				c0.5-0.5,1.3-0.5,1.7,0l12.7,12.7c0.5,0.5,0.5,1.3,0,1.7l-12.8,12.8C995.7,845.5,995.4,845.7,995.1,845.7z"/>
		</g>
		<g>
			<polyline fill="#FFFFFF" points="980.8,819 993.5,831.7 980.7,844.5 			"/>
			<path d="M980.7,845.7c-0.3,0-0.6-0.1-0.9-0.4c-0.5-0.5-0.5-1.3,0-1.7l11.9-11.9l-11.9-11.9c-0.5-0.5-0.5-1.3,0-1.7
				c0.5-0.5,1.3-0.5,1.7,0l12.7,12.7c0.5,0.5,0.5,1.3,0,1.7l-12.8,12.8C981.4,845.6,981.1,845.7,980.7,845.7z"/>
		</g>
		<g>
			<polyline fill="#FFFFFF" points="966.5,819 979.2,831.7 966.4,844.5 			"/>
			<path d="M966.4,845.7c-0.3,0-0.6-0.1-0.9-0.4c-0.5-0.5-0.5-1.3,0-1.7l11.9-11.9l-11.9-11.9c-0.5-0.5-0.5-1.3,0-1.7
				c0.5-0.5,1.3-0.5,1.7,0l12.7,12.7c0.2,0.2,0.4,0.5,0.4,0.9c0,0.3-0.1,0.6-0.4,0.9l-12.8,12.8
				C967.1,845.6,966.7,845.7,966.4,845.7z"/>
		</g>
		<g>
			<polyline fill="#FFFFFF" points="952.2,819 964.9,831.7 952.1,844.5 			"/>
			<path d="M952.1,845.8c-0.3,0-0.6-0.1-0.9-0.4c-0.5-0.5-0.5-1.3,0-1.7l11.9-11.9l-11.9-11.9c-0.5-0.5-0.5-1.3,0-1.7
				c0.5-0.5,1.3-0.5,1.7,0l12.7,12.7c0.2,0.2,0.4,0.5,0.4,0.9c0,0.3-0.1,0.6-0.4,0.9L953,845.4C952.8,845.6,952.4,845.8,952.1,845.8
				z"/>
		</g>
		<g>
			<polyline fill="#FFFFFF" points="1166.9,781.8 1179.6,794.5 1166.8,807.3 			"/>
			<path d="M1166.8,808.5c-0.3,0-0.6-0.1-0.9-0.4c-0.5-0.5-0.5-1.3,0-1.7l11.9-11.9l-11.9-11.9c-0.5-0.5-0.5-1.3,0-1.7
				c0.5-0.5,1.3-0.5,1.7,0l12.7,12.7c0.5,0.5,0.5,1.3,0,1.7l-12.8,12.8C1167.5,808.4,1167.1,808.5,1166.8,808.5z"/>
		</g>
		<g>
			<polyline fill="#FFFFFF" points="1152.6,781.8 1165.3,794.5 1152.5,807.3 			"/>
			<path d="M1152.5,808.5c-0.3,0-0.6-0.1-0.9-0.4c-0.5-0.5-0.5-1.3,0-1.7l11.9-11.9l-11.9-11.9c-0.5-0.5-0.5-1.3,0-1.7
				s1.3-0.5,1.7,0l12.7,12.7c0.2,0.2,0.4,0.5,0.4,0.9c0,0.3-0.1,0.6-0.4,0.9l-12.8,12.8C1153.1,808.4,1152.8,808.5,1152.5,808.5z"/>
		</g>
		<g>
			<polyline fill="#FFFFFF" points="1138.3,781.8 1151,794.6 1138.2,807.3 			"/>
			<path d="M1138.2,808.6c-0.3,0-0.6-0.1-0.9-0.4c-0.5-0.5-0.5-1.3,0-1.7l11.9-11.9l-11.9-11.9c-0.5-0.5-0.5-1.3,0-1.7
				s1.3-0.5,1.7,0l12.7,12.7c0.2,0.2,0.4,0.5,0.4,0.9c0,0.3-0.1,0.6-0.4,0.9l-12.8,12.8C1138.8,808.5,1138.5,808.6,1138.2,808.6z"/>
		</g>
		<g>
			<polyline fill="#FFFFFF" points="1123.9,781.9 1136.7,794.6 1123.9,807.4 			"/>
			<path d="M1123.9,808.6c-0.3,0-0.6-0.1-0.9-0.4c-0.5-0.5-0.5-1.3,0-1.7l11.9-11.9l-11.9-11.9c-0.5-0.5-0.5-1.3,0-1.7
				c0.5-0.5,1.3-0.5,1.7,0l12.7,12.7c0.2,0.2,0.4,0.5,0.4,0.9c0,0.3-0.1,0.6-0.4,0.9l-12.8,12.8
				C1124.5,808.5,1124.2,808.6,1123.9,808.6z"/>
		</g>
		<g>
			<polyline fill="#FFFFFF" points="1109.6,781.9 1122.3,794.6 1109.6,807.4 			"/>
			<path d="M1109.6,808.6c-0.3,0-0.6-0.1-0.9-0.4c-0.5-0.5-0.5-1.3,0-1.7l11.9-11.9l-11.9-11.9c-0.5-0.5-0.5-1.3,0-1.7
				c0.5-0.5,1.3-0.5,1.7,0l12.7,12.7c0.5,0.5,0.5,1.3,0,1.7l-12.8,12.8C1110.2,808.5,1109.9,808.6,1109.6,808.6z"/>
		</g>
		<g>
			<polyline fill="#FFFFFF" points="1095.3,781.9 1108,794.7 1095.3,807.4 			"/>
			<path d="M1095.3,808.7c-0.3,0-0.6-0.1-0.9-0.4c-0.5-0.5-0.5-1.3,0-1.7l11.9-11.9l-11.9-11.9c-0.5-0.5-0.5-1.3,0-1.7
				c0.5-0.5,1.3-0.5,1.7,0l12.7,12.7c0.5,0.5,0.5,1.3,0,1.7l-12.8,12.8C1095.9,808.5,1095.6,808.7,1095.3,808.7z"/>
		</g>
		<g>
			<polyline fill="#FFFFFF" points="1081,782 1093.7,794.7 1080.9,807.5 			"/>
			<path d="M1080.9,808.7c-0.3,0-0.6-0.1-0.9-0.4c-0.5-0.5-0.5-1.3,0-1.7l11.9-11.9l-11.9-11.9c-0.5-0.5-0.5-1.3,0-1.7
				s1.3-0.5,1.7,0l12.7,12.7c0.2,0.2,0.4,0.5,0.4,0.9c0,0.3-0.1,0.6-0.4,0.9l-12.8,12.8C1081.6,808.6,1081.3,808.7,1080.9,808.7z"/>
		</g>
		<g>
			<polyline fill="#FFFFFF" points="1066.7,782 1079.4,794.7 1066.6,807.5 			"/>
			<path d="M1066.6,808.7c-0.3,0-0.6-0.1-0.9-0.4c-0.5-0.5-0.5-1.3,0-1.7l11.9-11.9l-11.9-11.9c-0.5-0.5-0.5-1.3,0-1.7
				s1.3-0.5,1.7,0l12.7,12.7c0.2,0.2,0.4,0.5,0.4,0.9c0,0.3-0.1,0.6-0.4,0.9l-12.8,12.8C1067.3,808.6,1066.9,808.7,1066.6,808.7z"/>
		</g>
		<g>
			<polyline fill="#FFFFFF" points="1052.4,782 1065.1,794.7 1052.3,807.5 			"/>
			<path d="M1052.3,808.8c-0.3,0-0.6-0.1-0.9-0.4c-0.5-0.5-0.5-1.3,0-1.7l11.9-11.9l-11.9-11.9c-0.5-0.5-0.5-1.3,0-1.7
				c0.5-0.5,1.3-0.5,1.7,0l12.7,12.7c0.5,0.5,0.5,1.3,0,1.7l-12.8,12.8C1052.9,808.6,1052.6,808.8,1052.3,808.8z"/>
		</g>
		<g>
			<polyline fill="#FFFFFF" points="1038.1,782 1050.8,794.8 1038,807.6 			"/>
			<path d="M1038,808.8c-0.3,0-0.6-0.1-0.9-0.4c-0.5-0.5-0.5-1.3,0-1.7l11.9-11.9l-11.9-11.9c-0.5-0.5-0.5-1.3,0-1.7
				c0.5-0.5,1.3-0.5,1.7,0l12.7,12.7c0.5,0.5,0.5,1.3,0,1.7l-12.8,12.8C1038.6,808.7,1038.3,808.8,1038,808.8z"/>
		</g>
		<g>
			<polyline fill="#FFFFFF" points="1023.7,782.1 1036.5,794.8 1023.7,807.6 			"/>
			<path d="M1023.7,808.8c-0.3,0-0.6-0.1-0.9-0.4c-0.5-0.5-0.5-1.3,0-1.7l11.9-11.9l-11.9-11.9c-0.5-0.5-0.5-1.3,0-1.7
				c0.5-0.5,1.3-0.5,1.7,0l12.7,12.7c0.2,0.2,0.4,0.5,0.4,0.9c0,0.3-0.1,0.6-0.4,0.9l-12.8,12.8
				C1024.3,808.7,1024,808.8,1023.7,808.8z"/>
		</g>
		<g>
			<polyline fill="#FFFFFF" points="1009.4,782.1 1022.2,794.8 1009.4,807.6 			"/>
			<path d="M1009.4,808.8c-0.3,0-0.6-0.1-0.9-0.4c-0.5-0.5-0.5-1.3,0-1.7l11.9-11.9l-11.9-11.9c-0.5-0.5-0.5-1.3,0-1.7
				s1.3-0.5,1.7,0L1023,794c0.5,0.5,0.5,1.3,0,1.7l-12.8,12.8C1010,808.7,1009.7,808.8,1009.4,808.8z"/>
		</g>
		<g>
			<polyline fill="#FFFFFF" points="995.1,782.1 1007.8,794.9 995.1,807.6 			"/>
			<path d="M995.1,808.9c-0.3,0-0.6-0.1-0.9-0.4c-0.5-0.5-0.5-1.3,0-1.7l11.9-11.9L994.2,783c-0.5-0.5-0.5-1.3,0-1.7s1.3-0.5,1.7,0
				l12.7,12.7c0.5,0.5,0.5,1.3,0,1.7l-12.8,12.8C995.7,808.8,995.4,808.9,995.1,808.9z"/>
		</g>
		<g>
			<polyline fill="#FFFFFF" points="980.8,782.2 993.5,794.9 980.7,807.7 			"/>
			<path d="M980.7,808.9c-0.3,0-0.6-0.1-0.9-0.4c-0.5-0.5-0.5-1.3,0-1.7l11.9-11.9L979.9,783c-0.5-0.5-0.5-1.3,0-1.7s1.3-0.5,1.7,0
				l12.7,12.7c0.5,0.5,0.5,1.3,0,1.7l-12.8,12.8C981.4,808.8,981.1,808.9,980.7,808.9z"/>
		</g>
		<g>
			<polyline fill="#FFFFFF" points="966.5,782.2 979.2,794.9 966.4,807.7 			"/>
			<path d="M966.4,808.9c-0.3,0-0.6-0.1-0.9-0.4c-0.5-0.5-0.5-1.3,0-1.7l11.9-11.9l-11.9-11.9c-0.5-0.5-0.5-1.3,0-1.7
				c0.5-0.5,1.3-0.5,1.7,0l12.7,12.7c0.2,0.2,0.4,0.5,0.4,0.9c0,0.3-0.1,0.6-0.4,0.9l-12.8,12.8
				C967.1,808.8,966.7,808.9,966.4,808.9z"/>
		</g>
		<g>
			<polyline fill="#FFFFFF" points="952.2,782.2 964.9,795 952.1,807.7 			"/>
			<path d="M952.1,809c-0.3,0-0.6-0.1-0.9-0.4c-0.5-0.5-0.5-1.3,0-1.7l11.9-11.9l-11.9-11.9c-0.5-0.5-0.5-1.3,0-1.7
				c0.5-0.5,1.3-0.5,1.7,0l12.7,12.7c0.2,0.2,0.4,0.5,0.4,0.9c0,0.3-0.1,0.6-0.4,0.9L953,808.6C952.8,808.9,952.4,809,952.1,809z"/>
		</g>
		<g>
			<g>
				<path fill="#FFFFFF" d="M1229,644.2c-65.8,0-119.2,53.4-119.2,119.2c0,65.8,53.4,119.2,119.2,119.2
					c65.8,0,119.2-53.4,119.2-119.2C1348.2,697.6,1294.9,644.2,1229,644.2z M1229,870.9c-59.4,0-107.5-48.1-107.5-107.5
					c0-59.4,48.1-107.5,107.5-107.5c59.4,0,107.5,48.1,107.5,107.5C1336.5,822.8,1288.4,870.9,1229,870.9z"/>
				<path d="M1229,883.8c-66.4,0-120.4-54-120.4-120.4c0-66.4,54-120.4,120.4-120.4c66.4,0,120.4,54,120.4,120.4
					C1349.5,829.8,1295.4,883.8,1229,883.8z M1229,645.5c-65,0-118,52.9-118,118c0,65,52.9,118,118,118c65,0,118-52.9,118-118
					C1347,698.4,1294.1,645.5,1229,645.5z M1229,872.1c-59.9,0-108.7-48.8-108.7-108.7s48.8-108.7,108.7-108.7
					c59.9,0,108.7,48.8,108.7,108.7S1289,872.1,1229,872.1z M1229,657.2c-58.6,0-106.2,47.7-106.2,106.2
					c0,58.6,47.7,106.2,106.2,106.2c58.6,0,106.2-47.7,106.2-106.2C1335.3,704.8,1287.6,657.2,1229,657.2z"/>
			</g>
			<g>
				<path fill="#FFFFFF" d="M1229,741.1c4.1,0,7.9,1.1,11.1,3l12.7-41.7c-7.4-2.9-15.4-4.5-23.8-4.5c-8.4,0-16.4,1.6-23.8,4.5
					l12.7,41.7C1221.2,742.2,1225,741.1,1229,741.1z"/>
				<path d="M1240.2,745.3c-0.2,0-0.4-0.1-0.6-0.2c-6.4-3.7-14.6-3.7-21.1,0c-0.3,0.2-0.7,0.2-1.1,0.1c-0.4-0.1-0.6-0.4-0.7-0.8
					l-12.7-41.7c-0.2-0.6,0.1-1.3,0.7-1.5c15.5-6.1,33-6.1,48.6,0c0.6,0.2,0.9,0.9,0.7,1.5l-12.7,41.7c-0.1,0.4-0.4,0.7-0.7,0.8
					C1240.5,745.2,1240.3,745.3,1240.2,745.3z M1229,739.8c3.6,0,7.2,0.8,10.4,2.4l11.9-39.2c-14.3-5.3-30.3-5.3-44.6,0l11.9,39.2
					C1221.9,740.7,1225.4,739.8,1229,739.8z"/>
			</g>
			<g>
				<path fill="#FFFFFF" d="M1206.7,763.4c0-4.1,1.1-7.9,3-11.1l-41.7-12.7c-2.9,7.4-4.5,15.4-4.5,23.8s1.6,16.4,4.5,23.8l41.7-12.7
					C1207.8,771.3,1206.7,767.5,1206.7,763.4z"/>
				<path d="M1168,788.5c-0.5,0-1-0.3-1.1-0.8c-3-7.8-4.6-15.9-4.6-24.3c0-8.3,1.5-16.5,4.6-24.3c0.2-0.6,0.9-0.9,1.5-0.7l41.7,12.7
					c0.4,0.1,0.7,0.4,0.8,0.7c0.1,0.3,0.1,0.7-0.1,1.1c-1.9,3.2-2.8,6.9-2.8,10.5c0,3.7,1,7.3,2.8,10.5c0.2,0.3,0.2,0.7,0.1,1.1
					c-0.1,0.4-0.4,0.6-0.8,0.7l-41.7,12.7C1168.2,788.5,1168.1,788.5,1168,788.5z M1168.7,741.1c-2.7,7.2-4,14.7-4,22.3
					s1.3,15.2,4,22.3l39.2-11.9c-1.6-3.2-2.4-6.8-2.4-10.4c0-3.6,0.8-7.2,2.4-10.4L1168.7,741.1z"/>
			</g>
			<g>
				<path fill="#FFFFFF" d="M1229,785.8c-4.1,0-7.9-1.1-11.1-3l-12.7,41.7c7.4,2.9,15.4,4.5,23.8,4.5c8.4,0,16.4-1.6,23.8-4.5
					l-12.7-41.7C1236.9,784.7,1233.1,785.8,1229,785.8z"/>
				<path d="M1229,830.2c-8.3,0-16.5-1.5-24.3-4.6c-0.6-0.2-0.9-0.9-0.7-1.5l12.7-41.7c0.1-0.4,0.4-0.7,0.7-0.8
					c0.3-0.1,0.7-0.1,1.1,0.1c6.4,3.7,14.6,3.7,21.1,0c0.3-0.2,0.7-0.2,1.1-0.1c0.4,0.1,0.6,0.4,0.7,0.8l12.7,41.7
					c0.2,0.6-0.1,1.3-0.7,1.5C1245.5,828.7,1237.4,830.2,1229,830.2z M1206.7,823.7c14.3,5.3,30.3,5.3,44.6,0l-11.9-39.2
					c-6.5,3.2-14.3,3.2-20.8,0L1206.7,823.7z"/>
			</g>
			<g>
				<path fill="#FFFFFF" d="M1229,655.9c-59.4,0-107.5,48.1-107.5,107.5c0,59.4,48.1,107.5,107.5,107.5
					c59.4,0,107.5-48.1,107.5-107.5C1336.5,704.1,1288.4,655.9,1229,655.9z M1252.9,824.5c-7.4,2.9-15.4,4.5-23.8,4.5
					c-8.4,0-16.4-1.6-23.8-4.5c-17-6.7-30.6-20.2-37.2-37.2c-2.9-7.4-4.5-15.4-4.5-23.8s1.6-16.4,4.5-23.8
					c6.7-17,20.2-30.6,37.2-37.2c7.4-2.9,15.4-4.5,23.8-4.5c8.4,0,16.4,1.6,23.8,4.5c17,6.6,30.6,20.2,37.2,37.2
					c2.9,7.4,4.5,15.4,4.5,23.8s-1.6,16.4-4.5,23.8C1283.5,804.3,1269.9,817.8,1252.9,824.5z"/>
				<path d="M1229,872.1c-59.9,0-108.7-48.8-108.7-108.7s48.8-108.7,108.7-108.7c59.9,0,108.7,48.8,108.7,108.7
					S1289,872.1,1229,872.1z M1229,657.2c-58.6,0-106.2,47.7-106.2,106.2c0,58.6,47.7,106.2,106.2,106.2
					c58.6,0,106.2-47.7,106.2-106.2C1335.3,704.8,1287.6,657.2,1229,657.2z M1229,830.2c-8.3,0-16.5-1.5-24.3-4.6
					c-17.3-6.8-31.2-20.6-37.9-37.9c-3-7.8-4.6-15.9-4.6-24.3c0-8.3,1.5-16.5,4.6-24.3c6.8-17.3,20.6-31.2,37.9-37.9
					c15.5-6.1,33-6.1,48.6,0c17.3,6.8,31.2,20.6,37.9,37.9c3,7.8,4.6,15.9,4.6,24.3s-1.5,16.5-4.6,24.3
					c-6.8,17.3-20.6,31.2-37.9,37.9C1245.5,828.7,1237.4,830.2,1229,830.2z M1229,699.1c-8,0-15.9,1.5-23.4,4.4
					c-16.7,6.5-30,19.8-36.5,36.5c-2.9,7.5-4.4,15.3-4.4,23.4c0,8,1.5,15.9,4.4,23.4c6.5,16.7,19.8,30,36.5,36.5
					c15,5.8,31.8,5.8,46.8,0c16.7-6.5,30-19.8,36.5-36.5c2.9-7.5,4.4-15.3,4.4-23.4c0-8-1.5-15.9-4.4-23.4
					c-6.5-16.7-19.8-30-36.5-36.5C1244.9,700.6,1237.1,699.1,1229,699.1z"/>
			</g>
			<g>
				<path fill="#FFFFFF" d="M1290.1,739.6l-41.7,12.7c1.9,3.3,3,7.1,3,11.1s-1.1,7.9-3,11.1l41.7,12.7c2.9-7.4,4.5-15.4,4.5-23.8
					S1293,747,1290.1,739.6z"/>
				<path d="M1290.1,788.5c-0.1,0-0.2,0-0.4-0.1l-41.7-12.7c-0.4-0.1-0.7-0.4-0.8-0.7c-0.1-0.3-0.1-0.7,0.1-1.1
					c1.9-3.2,2.8-6.9,2.8-10.5c0-3.7-1-7.3-2.8-10.5c-0.2-0.3-0.2-0.7-0.1-1.1c0.1-0.4,0.4-0.6,0.8-0.7l41.7-12.7
					c0.6-0.2,1.3,0.1,1.5,0.7c3,7.8,4.6,15.9,4.6,24.3s-1.5,16.5-4.6,24.3C1291.1,788.2,1290.6,788.5,1290.1,788.5z M1250.2,773.8
					l39.2,11.9c2.7-7.2,4-14.7,4-22.3s-1.3-15.2-4-22.3l-39.2,11.9c1.6,3.2,2.4,6.8,2.4,10.4C1252.6,767,1251.8,770.6,1250.2,773.8z
					"/>
			</g>
			<g>
				<path fill="#FFFFFF" d="M1248.4,752.3c-2-3.4-4.8-6.3-8.2-8.2c-3.3-1.9-7.1-3-11.1-3c-4.1,0-7.9,1.1-11.1,3
					c-3.4,2-6.3,4.8-8.2,8.2c-1.9,3.3-3,7.1-3,11.1c0,4.1,1.1,7.9,3,11.1c2,3.4,4.8,6.3,8.2,8.2c3.3,1.9,7.1,3,11.1,3
					c4.1,0,7.9-1.1,11.1-3c3.4-2,6.3-4.8,8.2-8.2c1.9-3.3,3-7.1,3-11.1S1250.3,755.6,1248.4,752.3z"/>
				<path d="M1229,787c-4.1,0-8.2-1.1-11.8-3.2c-3.6-2.1-6.6-5.1-8.7-8.7c-2.1-3.6-3.2-7.7-3.2-11.8c0-4.1,1.1-8.2,3.2-11.8
					c2.1-3.6,5.1-6.6,8.7-8.7c7.2-4.1,16.4-4.1,23.5,0c3.6,2.1,6.6,5.1,8.7,8.7c2.1,3.6,3.2,7.6,3.2,11.8c0,4.1-1.1,8.2-3.2,11.8
					c-2.1,3.6-5.1,6.6-8.7,8.7C1237.2,785.9,1233.1,787,1229,787z M1229,742.3c-3.7,0-7.3,1-10.5,2.8c-3.2,1.9-5.9,4.6-7.8,7.8
					c-1.9,3.2-2.8,6.9-2.8,10.5c0,3.7,1,7.3,2.8,10.5c1.9,3.2,4.6,5.9,7.8,7.8c6.4,3.7,14.6,3.7,21.1,0c3.2-1.9,5.9-4.6,7.8-7.8
					c1.9-3.2,2.8-6.9,2.8-10.5c0-3.7-1-7.3-2.8-10.5c-1.9-3.2-4.5-5.9-7.8-7.8C1236.4,743.3,1232.7,742.3,1229,742.3z"/>
			</g>
			<g>
				<circle fill="#FFFFFF" cx="1229" cy="750.3" r="4.6"/>
				<path d="M1229,756.2c-3.2,0-5.9-2.6-5.9-5.9s2.6-5.9,5.9-5.9c3.2,0,5.9,2.6,5.9,5.9S1232.3,756.2,1229,756.2z M1229,746.9
					c-1.9,0-3.4,1.5-3.4,3.4s1.5,3.4,3.4,3.4c1.9,0,3.4-1.5,3.4-3.4S1230.9,746.9,1229,746.9z"/>
			</g>
			<g>
				<circle fill="#FFFFFF" cx="1229" cy="776.5" r="4.6"/>
				<path d="M1229,782.4c-3.2,0-5.9-2.6-5.9-5.9s2.6-5.9,5.9-5.9c3.2,0,5.9,2.6,5.9,5.9S1232.3,782.4,1229,782.4z M1229,773.2
					c-1.9,0-3.4,1.5-3.4,3.4s1.5,3.4,3.4,3.4c1.9,0,3.4-1.5,3.4-3.4S1230.9,773.2,1229,773.2z"/>
			</g>
			<g>
				<circle fill="#FFFFFF" cx="1242.2" cy="763.4" r="4.6"/>
				<path d="M1242.2,769.3c-3.2,0-5.9-2.6-5.9-5.9s2.6-5.9,5.9-5.9c3.2,0,5.9,2.6,5.9,5.9S1245.4,769.3,1242.2,769.3z M1242.2,760
					c-1.9,0-3.4,1.5-3.4,3.4s1.5,3.4,3.4,3.4c1.9,0,3.4-1.5,3.4-3.4S1244,760,1242.2,760z"/>
			</g>
			<g>
				<circle fill="#FFFFFF" cx="1215.9" cy="763.4" r="4.6"/>
				<path d="M1215.9,769.3c-3.2,0-5.9-2.6-5.9-5.9s2.6-5.9,5.9-5.9c3.2,0,5.9,2.6,5.9,5.9S1219.1,769.3,1215.9,769.3z M1215.9,760
					c-1.9,0-3.4,1.5-3.4,3.4s1.5,3.4,3.4,3.4c1.9,0,3.4-1.5,3.4-3.4S1217.8,760,1215.9,760z"/>
			</g>
		</g>
	</g>
	<g>
		<g>
			<path d="M1112.5,370.3h-78.9c-0.7,0-1.2-0.6-1.2-1.2V267.9c0-0.7,0.6-1.2,1.2-1.2h78.9c0.7,0,1.2,0.6,1.2,1.2V369
				C1113.7,369.7,1113.2,370.3,1112.5,370.3z M1034.8,367.8h76.4v-98.6h-76.4V367.8z"/>
		</g>
		<g>
			<path d="M1104,291.8H1042c-0.7,0-1.2-0.6-1.2-1.2v-9c0-0.7,0.6-1.2,1.2-1.2h62.1c0.7,0,1.2,0.6,1.2,1.2v9
				C1105.3,291.2,1104.7,291.8,1104,291.8z M1043.2,289.3h59.6v-6.6h-59.6V289.3z"/>
		</g>
		<g>
			<path d="M1104,311.5H1042c-0.7,0-1.2-0.6-1.2-1.2v-9c0-0.7,0.6-1.2,1.2-1.2h62.1c0.7,0,1.2,0.6,1.2,1.2v9
				C1105.3,310.9,1104.7,311.5,1104,311.5z M1043.2,309h59.6v-6.6h-59.6V309z"/>
		</g>
		<g>
			<path d="M1104,331.2H1042c-0.7,0-1.2-0.6-1.2-1.2v-9c0-0.7,0.6-1.2,1.2-1.2h62.1c0.7,0,1.2,0.6,1.2,1.2v9
				C1105.3,330.7,1104.7,331.2,1104,331.2z M1043.2,328.8h59.6v-6.6h-59.6V328.8z"/>
		</g>
		<g>
			<path d="M1073,350.9h-31c-0.7,0-1.2-0.6-1.2-1.2v-9c0-0.7,0.6-1.2,1.2-1.2h31c0.7,0,1.2,0.6,1.2,1.2v9
				C1074.3,350.4,1073.7,350.9,1073,350.9z M1043.2,348.5h28.6v-6.6h-28.6V348.5z"/>
		</g>
		<g>
			<path d="M1120.5,501.6h-95c-0.7,0-1.2-0.6-1.2-1.2V383.9c0-0.5,0.3-1,0.8-1.2c0.5-0.2,1,0,1.4,0.4c5.4,6.3,13.3,10,21.6,10h49.9
				c8.3,0,16.2-3.6,21.6-10c0.3-0.4,0.9-0.5,1.4-0.4c0.5,0.2,0.8,0.6,0.8,1.2v116.5C1121.7,501,1121.2,501.6,1120.5,501.6z
				 M1026.8,499.1h92.5V387c-5.7,5.5-13.3,8.6-21.3,8.6H1048c-8,0-15.6-3.1-21.3-8.6V499.1z"/>
		</g>
		<g>
			<path d="M1098,395.5H1048c-9,0-17.6-4-23.5-10.9c-4.8-5.6-7.4-12.7-7.4-20v-91.2c0-17,13.8-30.8,30.8-30.8h49.9
				c17,0,30.8,13.8,30.8,30.8v91.2c0,7.3-2.6,14.4-7.4,20C1115.6,391.6,1107,395.5,1098,395.5z M1048,245.1
				c-15.6,0-28.4,12.7-28.4,28.4v91.2c0,6.7,2.4,13.2,6.8,18.4c5.4,6.3,13.3,10,21.6,10h49.9c8.3,0,16.2-3.6,21.6-10
				c4.4-5.1,6.8-11.7,6.8-18.4v-91.2c0-15.6-12.7-28.4-28.4-28.4H1048z"/>
		</g>
		<g>
			<path d="M1050.9,429.6h-11.7c-2.5,0-4.5-2-4.5-4.5v-11.7c0-2.5,2-4.5,4.5-4.5h11.7c2.5,0,4.5,2,4.5,4.5v11.7
				C1055.4,427.6,1053.4,429.6,1050.9,429.6z M1039.2,411.4c-1.1,0-2.1,0.9-2.1,2.1v11.7c0,1.1,0.9,2.1,2.1,2.1h11.7
				c1.1,0,2.1-0.9,2.1-2.1v-11.7c0-1.1-0.9-2.1-2.1-2.1H1039.2z"/>
		</g>
		<g>
			<path d="M1078.8,429.6h-11.7c-2.5,0-4.5-2-4.5-4.5v-11.7c0-2.5,2-4.5,4.5-4.5h11.7c2.5,0,4.5,2,4.5,4.5v11.7
				C1083.4,427.6,1081.3,429.6,1078.8,429.6z M1067.2,411.4c-1.1,0-2.1,0.9-2.1,2.1v11.7c0,1.1,0.9,2.1,2.1,2.1h11.7
				c1.1,0,2.1-0.9,2.1-2.1v-11.7c0-1.1-0.9-2.1-2.1-2.1H1067.2z"/>
		</g>
		<g>
			<path d="M1106.8,429.6h-11.7c-2.5,0-4.5-2-4.5-4.5v-11.7c0-2.5,2-4.5,4.5-4.5h11.7c2.5,0,4.5,2,4.5,4.5v11.7
				C1111.3,427.6,1109.3,429.6,1106.8,429.6z M1095.1,411.4c-1.1,0-2.1,0.9-2.1,2.1v11.7c0,1.1,0.9,2.1,2.1,2.1h11.7
				c1.1,0,2.1-0.9,2.1-2.1v-11.7c0-1.1-0.9-2.1-2.1-2.1H1095.1z"/>
		</g>
		<g>
			<path d="M1050.9,456.8h-11.7c-2.5,0-4.5-2-4.5-4.5v-11.7c0-2.5,2-4.5,4.5-4.5h11.7c2.5,0,4.5,2,4.5,4.5v11.7
				C1055.4,454.7,1053.4,456.8,1050.9,456.8z M1039.2,438.5c-1.1,0-2.1,0.9-2.1,2.1v11.7c0,1.1,0.9,2.1,2.1,2.1h11.7
				c1.1,0,2.1-0.9,2.1-2.1v-11.7c0-1.1-0.9-2.1-2.1-2.1H1039.2z"/>
		</g>
		<g>
			<path d="M1078.8,456.8h-11.7c-2.5,0-4.5-2-4.5-4.5v-11.7c0-2.5,2-4.5,4.5-4.5h11.7c2.5,0,4.5,2,4.5,4.5v11.7
				C1083.4,454.7,1081.3,456.8,1078.8,456.8z M1067.2,438.5c-1.1,0-2.1,0.9-2.1,2.1v11.7c0,1.1,0.9,2.1,2.1,2.1h11.7
				c1.1,0,2.1-0.9,2.1-2.1v-11.7c0-1.1-0.9-2.1-2.1-2.1H1067.2z"/>
		</g>
		<g>
			<path d="M1106.8,456.8h-11.7c-2.5,0-4.5-2-4.5-4.5v-11.7c0-2.5,2-4.5,4.5-4.5h11.7c2.5,0,4.5,2,4.5,4.5v11.7
				C1111.3,454.7,1109.3,456.8,1106.8,456.8z M1095.1,438.5c-1.1,0-2.1,0.9-2.1,2.1v11.7c0,1.1,0.9,2.1,2.1,2.1h11.7
				c1.1,0,2.1-0.9,2.1-2.1v-11.7c0-1.1-0.9-2.1-2.1-2.1H1095.1z"/>
		</g>
		<g>
			<path d="M1050.9,483.9h-11.7c-2.5,0-4.5-2-4.5-4.5v-11.7c0-2.5,2-4.5,4.5-4.5h11.7c2.5,0,4.5,2,4.5,4.5v11.7
				C1055.4,481.9,1053.4,483.9,1050.9,483.9z M1039.2,465.6c-1.1,0-2.1,0.9-2.1,2.1v11.7c0,1.1,0.9,2.1,2.1,2.1h11.7
				c1.1,0,2.1-0.9,2.1-2.1v-11.7c0-1.1-0.9-2.1-2.1-2.1H1039.2z"/>
		</g>
		<g>
			<path d="M1078.8,483.9h-11.7c-2.5,0-4.5-2-4.5-4.5v-11.7c0-2.5,2-4.5,4.5-4.5h11.7c2.5,0,4.5,2,4.5,4.5v11.7
				C1083.4,481.9,1081.3,483.9,1078.8,483.9z M1067.2,465.6c-1.1,0-2.1,0.9-2.1,2.1v11.7c0,1.1,0.9,2.1,2.1,2.1h11.7
				c1.1,0,2.1-0.9,2.1-2.1v-11.7c0-1.1-0.9-2.1-2.1-2.1H1067.2z"/>
		</g>
		<g>
			<path d="M1106.8,483.9h-11.7c-2.5,0-4.5-2-4.5-4.5v-11.7c0-2.5,2-4.5,4.5-4.5h11.7c2.5,0,4.5,2,4.5,4.5v11.7
				C1111.3,481.9,1109.3,483.9,1106.8,483.9z M1095.1,465.6c-1.1,0-2.1,0.9-2.1,2.1v11.7c0,1.1,0.9,2.1,2.1,2.1h11.7
				c1.1,0,2.1-0.9,2.1-2.1v-11.7c0-1.1-0.9-2.1-2.1-2.1H1095.1z"/>
		</g>
	</g>
	<g>
		<g>
			<g>
				<g>
					<path d="M1203.5,394h-38.7c-0.4,0-0.8-0.2-1-0.6c-0.2-0.4-0.2-0.8-0.1-1.2l7.8-15.7c0.2-0.4,0.6-0.7,1.1-0.7h23.1
						c0.5,0,0.9,0.3,1.1,0.7l7.8,15.7c0.2,0.4,0.2,0.8-0.1,1.2C1204.4,393.8,1204,394,1203.5,394z M1166.8,391.5h34.7l-6.6-13.2
						h-21.6L1166.8,391.5z"/>
				</g>
				<g>
					<path d="M1184.2,498.3c-11.3,0-20.6-9.2-20.6-20.6v-85c0-0.7,0.6-1.2,1.2-1.2h38.7c0.7,0,1.2,0.6,1.2,1.2v85
						C1204.8,489.1,1195.5,498.3,1184.2,498.3z M1166.1,394v83.8c0,10,8.1,18.1,18.1,18.1s18.1-8.1,18.1-18.1V394H1166.1z"/>
				</g>
			</g>
			<g>
				<path d="M1176.9,477c-0.7,0-1.2-0.6-1.2-1.2v-69.7c0-0.7,0.6-1.2,1.2-1.2s1.2,0.6,1.2,1.2v69.7
					C1178.2,476.5,1177.6,477,1176.9,477z"/>
			</g>
			<g>
				<path d="M1191.5,477c-0.7,0-1.2-0.6-1.2-1.2v-69.7c0-0.7,0.6-1.2,1.2-1.2c0.7,0,1.2,0.6,1.2,1.2v69.7
					C1192.7,476.5,1192.1,477,1191.5,477z"/>
			</g>
			<g>
				<path d="M1184.2,378.3c-0.7,0-1.2-0.6-1.2-1.2v-88.9c0-0.7,0.6-1.2,1.2-1.2c0.7,0,1.2,0.6,1.2,1.2v88.9
					C1185.4,377.7,1184.9,378.3,1184.2,378.3z"/>
			</g>
			<g>
				<path d="M1184.2,289.4c-0.4,0-0.7-0.2-1-0.5l-11.3-14.8c-0.2-0.3-0.3-0.7-0.2-1.1l5.1-17.7c0.2-0.5,0.6-0.9,1.2-0.9h12.4
					c0.5,0,1,0.4,1.2,0.9l5.1,17.7c0.1,0.4,0,0.8-0.2,1.1l-11.3,14.8C1184.9,289.2,1184.6,289.4,1184.2,289.4z M1174.3,273.1l9.9,13
					l9.9-13l-4.7-16.2h-10.5L1174.3,273.1z"/>
			</g>
		</g>
		<g>
			<path d="M1282.6,498.3c-0.2,0-0.4-0.1-0.6-0.2c-0.4-0.2-0.6-0.6-0.6-1.1v-42.3H1251v42.3c0,0.4-0.2,0.8-0.6,1.1
				c-0.4,0.2-0.8,0.2-1.2,0c-12.7-6.4-20.5-19.2-20.5-33.4c0-13.9,7.5-26.4,19.8-33l0-115.2c-12.2-6.6-19.8-19.1-19.8-33
				c0-14.2,7.9-27,20.5-33.4c0.4-0.2,0.8-0.2,1.2,0c0.4,0.2,0.6,0.6,0.6,1.1v42.3h30.3v-42.3c0-0.4,0.2-0.8,0.6-1.1
				c0.4-0.2,0.8-0.2,1.2,0c12.7,6.4,20.5,19.3,20.5,33.4c0,13.9-7.5,26.4-19.7,33l0,115.2c12.2,6.6,19.8,19.1,19.8,33
				c0,14.2-7.9,27-20.5,33.4C1283,498.3,1282.8,498.3,1282.6,498.3z M1249.8,452.4h32.8c0.7,0,1.2,0.6,1.2,1.2V495
				c10.8-6.3,17.4-17.7,17.4-30.2c0-13.2-7.3-25.1-19.1-31.2c-0.4-0.2-0.7-0.6-0.7-1.1l0-116.7c0-0.5,0.3-0.9,0.7-1.1
				c11.8-6,19.1-18,19.1-31.2c0-12.6-6.6-24-17.4-30.2v41.4c0,0.7-0.6,1.2-1.2,1.2h-32.8c-0.7,0-1.2-0.6-1.2-1.2v-41.4
				c-10.8,6.3-17.4,17.7-17.4,30.2c0,13.2,7.3,25.1,19.1,31.2c0.4,0.2,0.7,0.6,0.7,1.1l0,116.7c0,0.5-0.3,0.9-0.7,1.1
				c-11.8,6-19.1,18-19.1,31.2c0,12.6,6.6,24,17.4,30.2v-41.4C1248.6,452.9,1249.1,452.4,1249.8,452.4z"/>
		</g>
		<g>
			<path d="M1270.5,433.4c-0.7,0-1.2-0.6-1.2-1.2V316.1c0-0.7,0.6-1.2,1.2-1.2s1.2,0.6,1.2,1.2v116.1
				C1271.7,432.9,1271.2,433.4,1270.5,433.4z"/>
		</g>
	</g>
	<g>
		<g>
			<path fill="#FFFFFF" d="M449.6,635.6H161.3c-8.3,0-15.1,6.8-15.1,15.1v181.9h318.6V650.7C464.7,642.4,458,635.6,449.6,635.6z"/>
			<path d="M464.7,833.9H146.2c-0.7,0-1.2-0.6-1.2-1.2V650.7c0-9,7.3-16.3,16.3-16.3h288.3c9,0,16.3,7.3,16.3,16.3v181.9
				C466,833.4,465.4,833.9,464.7,833.9z M147.4,831.5h316.1V650.7c0-7.7-6.2-13.9-13.9-13.9H161.3c-7.7,0-13.9,6.2-13.9,13.9V831.5z
				"/>
		</g>
		<g>
			<rect x="160.6" y="651.4" fill="#FFFFFF" width="289" height="164.9"/>
			<path d="M449.6,817.5h-289c-0.7,0-1.2-0.6-1.2-1.2V651.4c0-0.7,0.6-1.2,1.2-1.2h289c0.7,0,1.2,0.6,1.2,1.2v164.9
				C450.8,817,450.3,817.5,449.6,817.5z M161.9,815.1h286.5V652.6H161.9V815.1z"/>
		</g>
		<g>
			<path fill="#FFFFFF" d="M106.5,832.7v7.7v2.5c0,8.3,6.8,15.1,15.1,15.1h367.6c8.3,0,15.1-6.8,15.1-15.1v-2.5v-7.7H106.5z"/>
			<path d="M489.3,859.3H121.6c-9,0-16.3-7.3-16.3-16.3v-10.3c0-0.7,0.6-1.2,1.2-1.2h397.8c0.7,0,1.2,0.6,1.2,1.2v10.3
				C505.6,852,498.3,859.3,489.3,859.3z M107.8,833.9v9c0,7.7,6.2,13.9,13.9,13.9h367.6c7.7,0,13.9-6.2,13.9-13.9v-9H107.8z"/>
		</g>
		<g>
			<rect x="180.4" y="783.8" fill="#FFFFFF" width="61.5" height="12.6"/>
			<path d="M241.9,797.7h-61.5c-0.7,0-1.2-0.6-1.2-1.2v-12.6c0-0.7,0.6-1.2,1.2-1.2h61.5c0.7,0,1.2,0.6,1.2,1.2v12.6
				C243.1,797.1,242.6,797.7,241.9,797.7z M181.7,795.2h59v-10.1h-59V795.2z"/>
		</g>
		<g>
			<rect x="180.4" y="762.6" fill="#FFFFFF" width="190.3" height="12.6"/>
			<path d="M370.8,776.5H180.4c-0.7,0-1.2-0.6-1.2-1.2v-12.6c0-0.7,0.6-1.2,1.2-1.2h190.3c0.7,0,1.2,0.6,1.2,1.2v12.6
				C372,775.9,371.4,776.5,370.8,776.5z M181.7,774h187.9v-10.1H181.7V774z"/>
		</g>
		<g>
			<rect x="180.4" y="741.5" fill="#FFFFFF" width="132.8" height="12.6"/>
			<path d="M313.3,755.3H180.4c-0.7,0-1.2-0.6-1.2-1.2v-12.6c0-0.7,0.6-1.2,1.2-1.2h132.8c0.7,0,1.2,0.6,1.2,1.2V754
				C314.5,754.7,313.9,755.3,313.3,755.3z M181.7,752.8H312v-10.1H181.7V752.8z"/>
		</g>
		<g>
			<rect x="180.4" y="720.3" fill="#FFFFFF" width="77.4" height="12.6"/>
			<path d="M257.9,734.1h-77.4c-0.7,0-1.2-0.6-1.2-1.2v-12.6c0-0.7,0.6-1.2,1.2-1.2h77.4c0.7,0,1.2,0.6,1.2,1.2v12.6
				C259.1,733.5,258.5,734.1,257.9,734.1z M181.7,731.6h75v-10.1h-75V731.6z"/>
		</g>
		<g>
			<rect x="180.4" y="671.6" fill="#FFFFFF" width="56.5" height="33.2"/>
			<path d="M236.9,706h-56.5c-0.7,0-1.2-0.6-1.2-1.2v-33.2c0-0.7,0.6-1.2,1.2-1.2h56.5c0.7,0,1.2,0.6,1.2,1.2v33.2
				C238.1,705.4,237.6,706,236.9,706z M181.7,703.5h54v-30.7h-54V703.5z"/>
		</g>
		<g>
			<circle fill="#FFFFFF" cx="410.2" cy="686.3" r="12.2"/>
			<path d="M410.2,699.7c-7.4,0-13.4-6-13.4-13.4c0-7.4,6-13.4,13.4-13.4c7.4,0,13.4,6,13.4,13.4
				C423.6,693.6,417.6,699.7,410.2,699.7z M410.2,675.3c-6,0-10.9,4.9-10.9,10.9s4.9,10.9,10.9,10.9s10.9-4.9,10.9-10.9
				S416.2,675.3,410.2,675.3z"/>
		</g>
		<g>
			<circle fill="#FFFFFF" cx="342.9" cy="700.3" r="12.2"/>
			<path d="M342.9,713.7c-7.4,0-13.4-6-13.4-13.4c0-7.4,6-13.4,13.4-13.4c7.4,0,13.4,6,13.4,13.4
				C356.3,707.7,350.3,713.7,342.9,713.7z M342.9,689.4c-6,0-10.9,4.9-10.9,10.9c0,6,4.9,10.9,10.9,10.9s10.9-4.9,10.9-10.9
				C353.8,694.3,348.9,689.4,342.9,689.4z"/>
		</g>
		<g>
			<circle fill="#FFFFFF" cx="410.2" cy="747.7" r="12.2"/>
			<path d="M410.2,761.2c-7.4,0-13.4-6-13.4-13.4c0-7.4,6-13.4,13.4-13.4c7.4,0,13.4,6,13.4,13.4
				C423.6,755.1,417.6,761.2,410.2,761.2z M410.2,736.8c-6,0-10.9,4.9-10.9,10.9c0,6,4.9,10.9,10.9,10.9s10.9-4.9,10.9-10.9
				C421.1,741.7,416.2,736.8,410.2,736.8z"/>
		</g>
		<g>
			<path d="M354.8,699.1c-0.6,0-1.1-0.4-1.2-1c-0.1-0.7,0.3-1.3,1-1.5l43.5-9.1c0.7-0.1,1.3,0.3,1.5,1c0.1,0.7-0.3,1.3-1,1.5
				L355,699C355,699.1,354.9,699.1,354.8,699.1z"/>
		</g>
		<g>
			<path d="M410.2,736.8c-0.7,0-1.2-0.6-1.2-1.2v-37.1c0-0.7,0.6-1.2,1.2-1.2s1.2,0.6,1.2,1.2v37.1
				C411.4,736.3,410.9,736.8,410.2,736.8z"/>
		</g>
		<g>
			<path d="M349.6,844.5h-89c-0.7,0-1.2-0.6-1.2-1.2v-10.5c0-0.7,0.6-1.2,1.2-1.2h89c0.7,0,1.2,0.6,1.2,1.2v10.5
				C350.9,843.9,350.3,844.5,349.6,844.5z M261.9,842h86.5v-8.1h-86.5V842z"/>
		</g>
	</g>
	<g>
		<path d="M610.4,745.6c-0.2,0-0.5-0.1-0.7-0.2c-0.6-0.4-0.7-1.1-0.3-1.7l57.7-85.4v-94.8c0-0.7,0.6-1.2,1.2-1.2
			c0.7,0,1.2,0.6,1.2,1.2v95.2c0,0.2-0.1,0.5-0.2,0.7l-58,85.7C611.1,745.4,610.8,745.6,610.4,745.6z"/>
	</g>
	<g>
		<path d="M793.8,745.6c-0.4,0-0.8-0.2-1-0.5l-58-85.7c-0.1-0.2-0.2-0.4-0.2-0.7v-95.2c0-0.7,0.6-1.2,1.2-1.2c0.7,0,1.2,0.6,1.2,1.2
			v94.8l57.7,85.4c0.4,0.6,0.2,1.3-0.3,1.7C794.3,745.5,794,745.6,793.8,745.6z"/>
	</g>
	<g>
		<path d="M281.8,543.9H120.7c-10.1,0-18.3-8.2-18.3-18.3V223.7c0-10.1,8.2-18.3,18.3-18.3h161.1c10.1,0,18.3,8.2,18.3,18.3v301.8
			C300.2,535.7,291.9,543.9,281.8,543.9z M120.7,207.8c-8.8,0-15.9,7.1-15.9,15.9v301.8c0,8.8,7.1,15.9,15.9,15.9h161.1
			c8.8,0,15.9-7.1,15.9-15.9V223.7c0-8.8-7.1-15.9-15.9-15.9H120.7z"/>
	</g>
	<g>
		<path d="M274.7,492.6H127.8c-0.7,0-1.2-0.6-1.2-1.2V232.7c0-0.7,0.6-1.2,1.2-1.2h146.9c0.7,0,1.2,0.6,1.2,1.2v258.6
			C275.9,492,275.4,492.6,274.7,492.6z M129,490.1h144.4V234H129V490.1z"/>
	</g>
	<g>
		<path d="M228.3,516.8h-54.2c-0.7,0-1.2-0.6-1.2-1.2s0.6-1.2,1.2-1.2h54.2c0.7,0,1.2,0.6,1.2,1.2S229,516.8,228.3,516.8z"/>
	</g>
	<g>
		<path d="M252.6,350.1H149.9c-0.7,0-1.2-0.6-1.2-1.2s0.6-1.2,1.2-1.2h102.7c0.7,0,1.2,0.6,1.2,1.2S253.3,350.1,252.6,350.1z"/>
	</g>
	<g>
		<path d="M252.6,385.5H149.9c-0.7,0-1.2-0.6-1.2-1.2c0-0.7,0.6-1.2,1.2-1.2h102.7c0.7,0,1.2,0.6,1.2,1.2
			C253.8,385,253.3,385.5,252.6,385.5z"/>
	</g>
	<g>
		<path d="M252.6,421H149.9c-0.7,0-1.2-0.6-1.2-1.2c0-0.7,0.6-1.2,1.2-1.2h102.7c0.7,0,1.2,0.6,1.2,1.2
			C253.8,420.5,253.3,421,252.6,421z"/>
	</g>
	<g>
		<path d="M181.3,460.2h-31.4c-0.7,0-1.2-0.6-1.2-1.2s0.6-1.2,1.2-1.2h31.4c0.7,0,1.2,0.6,1.2,1.2S182,460.2,181.3,460.2z"/>
	</g>
	<g>
		<g>
			<path d="M146.2,558c-25,0-45.4-20.3-45.4-45.4c0-25,20.3-45.4,45.4-45.4c25,0,45.4,20.3,45.4,45.4
				C191.5,537.7,171.2,558,146.2,558z M146.2,469.8c-23.7,0-42.9,19.2-42.9,42.9c0,23.7,19.2,42.9,42.9,42.9
				c23.7,0,42.9-19.2,42.9-42.9C189.1,489,169.8,469.8,146.2,469.8z"/>
		</g>
		<g>
			<path fill="#FFFFFF" d="M228,509.6l-2,0c-6.4-0.1-12.4-2.6-16.9-7.1c-9.3-9.4-9.3-24.6,0.1-34c0.6-0.6,1.3-1.2,2-1.7l1.6-1.3
				l-1.2-1.6c-2.4-3.2-4.9-6-7.5-8.7c-2.6-2.6-5.5-5.2-8.6-7.5l-1.6-1.2l-1.3,1.6c-0.5,0.7-1.1,1.4-1.8,2c-4.5,4.5-10.5,7-16.9,7
				c-6.5,0-12.5-2.5-17-7.1c-4.5-4.5-7-10.5-7-16.9v-2l-2-0.1c-7.5-0.2-15,0.6-22.3,2.4l-2,0.5l0.5,2c1.8,8.1-0.7,16.3-6.5,22.2
				c-4.5,4.5-10.5,6.9-16.9,6.9c-5.5,0-10.8-1.9-15-5.3l-1.6-1.3l-1.3,1.5c-4.9,5.7-9,12.2-12.2,19.2l-0.9,1.9l1.9,0.9
				c2.5,1.2,4.8,2.8,6.7,4.7c9.3,9.4,9.2,24.6-0.1,33.9c-3.3,3.2-7.4,5.4-11.9,6.4l-2,0.4l0.4,2c1.5,7.4,4,14.6,7.4,21.4l0.9,1.8
				l1.9-0.9c3.2-1.5,6.8-2.3,10.3-2.3c6.5,0,12.5,2.5,17,7.1c7.2,7.2,9,18.2,4.5,27.4l-0.9,1.8l1.8,0.9c6.6,3.4,13.7,6,21.1,7.5
				l2,0.4l0.4-2c1-4.5,3.3-8.7,6.5-11.9c4.5-4.5,10.5-7,16.9-7c6.4,0,12.5,2.5,17,7.1c2,2,3.6,4.4,4.8,6.9l0.9,1.9l1.9-0.9
				c7-3.1,13.5-7.2,19.3-12.1l1.6-1.3l-1.3-1.6c-7.6-9.6-6.8-23.3,1.9-31.9c4.5-4.5,10.5-6.9,16.9-6.9c1.8,0,3.6,0.2,5.3,0.6l2,0.4
				l0.5-2c1.8-7.2,2.7-14.6,2.5-22.2L228,509.6z M146.2,556.8c-24.4,0-44.1-19.8-44.1-44.1c0-24.4,19.8-44.1,44.1-44.1
				c24.4,0,44.1,19.8,44.1,44.1C190.3,537.1,170.5,556.8,146.2,556.8z"/>
			<path d="M130.8,595.7c-0.1,0-0.2,0-0.2,0l-2-0.4c-7.5-1.6-14.8-4.1-21.5-7.6l-1.8-0.9c-0.6-0.3-0.8-1-0.5-1.6l0.9-1.8
				c4.2-8.7,2.5-19.1-4.3-26c-4.3-4.3-10-6.7-16.1-6.7c-3.4,0-6.8,0.8-9.8,2.2l-1.9,0.9c-0.6,0.3-1.3,0-1.6-0.6l-0.9-1.8
				c-3.5-6.9-6-14.2-7.5-21.7l-0.4-2c-0.1-0.7,0.3-1.3,0.9-1.5l2-0.4c4.3-0.9,8.2-3,11.3-6.1c8.9-8.8,9-23.3,0.1-32.2
				c-1.8-1.8-4-3.3-6.4-4.5l-1.9-0.9c-0.6-0.3-0.9-1-0.6-1.6l0.9-1.9c3.3-7.1,7.4-13.6,12.4-19.4l1.3-1.6c0.4-0.5,1.2-0.6,1.7-0.2
				l1.6,1.3c4,3.2,9.1,5,14.3,5c6,0,11.7-2.3,16-6.6c5.6-5.5,7.9-13.4,6.2-21l-0.5-2c-0.1-0.7,0.3-1.3,0.9-1.5l2-0.5
				c7.4-1.8,15-2.6,22.6-2.4l2,0.1c0.7,0,1.2,0.6,1.2,1.2v2c0,6.1,2.3,11.7,6.6,16c4.3,4.3,10,6.7,16.2,6.7c6,0,11.7-2.3,16-6.6
				c0.6-0.6,1.2-1.3,1.7-1.9l1.3-1.6c0.4-0.5,1.2-0.6,1.7-0.2l1.6,1.2c3.1,2.3,6,4.9,8.7,7.6c2.6,2.6,5.1,5.5,7.6,8.8l1.2,1.6
				c0.4,0.5,0.3,1.3-0.2,1.7l-1.6,1.3c-0.7,0.5-1.3,1.1-1.9,1.7c-8.9,8.8-8.9,23.3-0.1,32.2c4.2,4.3,9.9,6.7,16,6.7l2,0
				c0.7,0,1.2,0.5,1.2,1.2l0,2c0.2,7.6-0.7,15.2-2.6,22.5l-0.5,2c-0.2,0.6-0.8,1-1.5,0.9l-2-0.4c-1.6-0.4-3.3-0.5-5-0.5
				c-6.1,0-11.8,2.3-16.1,6.6c-8.2,8.2-9,21.2-1.8,30.3l1.3,1.6c0.4,0.5,0.3,1.3-0.2,1.7l-1.6,1.3c-6,5-12.6,9.1-19.6,12.3l-1.9,0.9
				c-0.6,0.3-1.3,0-1.6-0.6l-0.9-1.9c-1.1-2.4-2.7-4.6-4.6-6.6c-4.3-4.3-10-6.7-16.1-6.7c-6.1,0-11.8,2.3-16,6.6
				c-3.1,3-5.2,7-6.2,11.3l-0.4,2C131.9,595.3,131.4,595.7,130.8,595.7z M107.5,585.1l0.7,0.4c6.5,3.4,13.5,5.9,20.8,7.4l0.8,0.2
				l0.2-0.8c1.1-4.8,3.5-9.1,6.9-12.5c4.7-4.7,11.1-7.3,17.8-7.3c6.8,0,13.1,2.6,17.9,7.5c2.1,2.2,3.8,4.6,5.1,7.3l0.4,0.8l0.8-0.4
				c6.9-3.1,13.3-7.1,19.1-11.9l0.6-0.5l-0.5-0.7c-8-10.1-7.1-24.5,2-33.6c4.7-4.7,11.1-7.3,17.8-7.3c1.9,0,3.8,0.2,5.6,0.6l0.8,0.2
				l0.2-0.8c1.8-7.1,2.7-14.5,2.5-21.9l0-0.8l-0.8,0c-6.7-0.1-13-2.7-17.7-7.5c-9.8-9.9-9.8-25.9,0.1-35.7c0.7-0.6,1.4-1.2,2.1-1.8
				l0.7-0.5l-0.5-0.7c-2.4-3.2-4.9-6-7.4-8.5c-2.6-2.6-5.5-5.1-8.5-7.4l-0.7-0.5l-0.5,0.6c-0.6,0.7-1.2,1.4-1.8,2.1
				c-4.8,4.7-11.1,7.3-17.8,7.3c-6.8,0-13.1-2.6-17.9-7.5c-4.7-4.7-7.3-11-7.3-17.8v-0.8l-0.8,0c-7.4-0.2-14.8,0.6-21.9,2.3
				l-0.8,0.2l0.2,0.8c1.9,8.5-0.7,17.2-6.9,23.3c-4.8,4.7-11,7.3-17.7,7.3c-5.7,0-11.4-2-15.8-5.6l-0.7-0.5l-0.6,0.6
				c-4.8,5.7-8.9,12-12.1,18.9l-0.4,0.8l0.8,0.4c2.6,1.3,5,2.9,7,5c9.8,9.9,9.7,25.9-0.1,35.7c-3.4,3.4-7.7,5.7-12.5,6.8l-0.8,0.2
				l0.2,0.8c1.5,7.3,3.9,14.4,7.3,21.1l0.4,0.8l0.8-0.4c3.4-1.6,7.1-2.4,10.9-2.4c6.8,0,13.1,2.6,17.9,7.5
				c7.5,7.6,9.4,19.1,4.8,28.8L107.5,585.1z M146.2,558c-25,0-45.4-20.3-45.4-45.4c0-25,20.3-45.4,45.4-45.4
				c25,0,45.4,20.3,45.4,45.4C191.5,537.7,171.2,558,146.2,558z M146.2,469.8c-23.7,0-42.9,19.2-42.9,42.9
				c0,23.7,19.2,42.9,42.9,42.9c23.7,0,42.9-19.2,42.9-42.9C189.1,489,169.8,469.8,146.2,469.8z"/>
		</g>
	</g>
	<g>
		<g>
			<path d="M201.2,305.5c-9.5,0-17.2-7.7-17.2-17.2c0-9.5,7.7-17.2,17.2-17.2c9.5,0,17.2,7.7,17.2,17.2
				C218.4,297.8,210.7,305.5,201.2,305.5z M201.2,273.6c-8.1,0-14.7,6.6-14.7,14.7c0,8.1,6.6,14.7,14.7,14.7
				c8.1,0,14.7-6.6,14.7-14.7C216,280.2,209.4,273.6,201.2,273.6z"/>
		</g>
		<g>
			<path fill="#FFFFFF" d="M230.8,287.2l-0.7,0c-2.3,0-4.5-0.9-6.1-2.6c-3.4-3.4-3.4-8.9,0-12.3c0.2-0.2,0.5-0.4,0.7-0.6l0.6-0.5
				l-0.4-0.6c-0.9-1.2-1.8-2.2-2.7-3.1c-0.9-1-2-1.9-3.1-2.7l-0.6-0.4l-0.5,0.6c-0.2,0.2-0.4,0.5-0.6,0.7c-1.6,1.6-3.8,2.5-6.1,2.5
				c-2.3,0-4.5-0.9-6.2-2.6c-1.6-1.6-2.5-3.8-2.5-6.1v-0.7l-0.7,0c-2.7-0.1-5.4,0.2-8,0.9l-0.7,0.2l0.2,0.7c0.6,2.9-0.2,5.9-2.4,8
				c-1.6,1.6-3.8,2.5-6.1,2.5c-2,0-3.9-0.7-5.4-1.9l-0.6-0.5l-0.5,0.6c-1.8,2.1-3.3,4.4-4.4,6.9l-0.3,0.7l0.7,0.3
				c0.9,0.4,1.7,1,2.4,1.7c3.4,3.4,3.3,8.9-0.1,12.3c-1.2,1.2-2.7,2-4.3,2.3l-0.7,0.2l0.1,0.7c0.5,2.7,1.4,5.3,2.7,7.7l0.3,0.7
				l0.7-0.3c1.2-0.6,2.4-0.8,3.7-0.8c2.3,0,4.5,0.9,6.2,2.6c2.6,2.6,3.2,6.6,1.6,9.9l-0.3,0.7l0.7,0.3c2.4,1.2,5,2.2,7.6,2.7
				l0.7,0.1l0.2-0.7c0.4-1.6,1.2-3.1,2.4-4.3c1.6-1.6,3.8-2.5,6.1-2.5c2.3,0,4.5,0.9,6.2,2.6c0.7,0.7,1.3,1.6,1.7,2.5l0.3,0.7
				l0.7-0.3c2.5-1.1,4.9-2.6,7-4.4l0.6-0.5l-0.5-0.6c-2.7-3.5-2.5-8.4,0.7-11.5c1.6-1.6,3.8-2.5,6.1-2.5c0.6,0,1.3,0.1,1.9,0.2
				l0.7,0.2l0.2-0.7c0.7-2.6,1-5.3,0.9-8L230.8,287.2z M201.2,304.2c-8.8,0-15.9-7.1-15.9-16c0-8.8,7.1-15.9,15.9-15.9
				s15.9,7.1,15.9,15.9C217.2,297.1,210.1,304.2,201.2,304.2z"/>
			<path d="M195.7,319.1c-0.1,0-0.2,0-0.2,0l-0.7-0.1c-2.8-0.6-5.5-1.5-8-2.8l-0.7-0.3c-0.6-0.3-0.8-1-0.5-1.6l0.3-0.7
				c1.4-2.8,0.8-6.3-1.4-8.5c-2.2-2.2-5.7-2.8-8.5-1.5l-0.7,0.3c-0.6,0.3-1.3,0-1.6-0.6l-0.3-0.7c-1.3-2.6-2.2-5.3-2.8-8.1l-0.1-0.7
				c-0.1-0.7,0.3-1.3,0.9-1.4l0.7-0.2c1.4-0.3,2.7-1,3.7-2c2.9-2.9,2.9-7.6,0-10.5c-0.6-0.6-1.3-1.1-2.1-1.5l-0.7-0.3
				c-0.6-0.3-0.9-1-0.6-1.6l0.3-0.7c1.2-2.6,2.8-5,4.6-7.2l0.5-0.6c0.4-0.5,1.2-0.6,1.7-0.2l0.6,0.5c2.8,2.3,7.3,2.1,9.9-0.5
				c1.8-1.8,2.6-4.4,2-6.9l-0.2-0.7c-0.1-0.7,0.3-1.3,0.9-1.5l0.7-0.2c2.7-0.7,5.6-1,8.4-0.9l0.7,0c0.7,0,1.2,0.6,1.2,1.2v0.7
				c0,2,0.8,3.8,2.2,5.2c2.8,2.8,7.7,2.8,10.5,0c0.2-0.2,0.4-0.4,0.5-0.6l0.5-0.6c0.4-0.5,1.2-0.6,1.7-0.2l0.6,0.4
				c1.1,0.9,2.2,1.8,3.2,2.8c1,1,1.9,2,2.8,3.3l0.4,0.6c0.4,0.5,0.3,1.3-0.2,1.7l-0.6,0.5c-0.2,0.2-0.4,0.4-0.6,0.6
				c-2.9,2.9-2.9,7.6,0,10.5c1.4,1.4,3.2,2.2,5.2,2.2l0.7,0c0.7,0,1.2,0.5,1.2,1.2l0,0.7c0.1,2.8-0.3,5.6-1,8.3l-0.2,0.7
				c-0.2,0.6-0.8,1-1.5,0.9l-0.7-0.2c-2.4-0.5-5.1,0.2-6.9,2c-2.7,2.7-2.9,6.9-0.6,9.9l0.5,0.6c0.4,0.5,0.3,1.3-0.2,1.7l-0.6,0.5
				c-2.2,1.8-4.7,3.4-7.3,4.6l-0.7,0.3c-0.6,0.3-1.3,0-1.6-0.6l-0.3-0.7c-0.4-0.8-0.9-1.5-1.5-2.2c-2.8-2.8-7.7-2.8-10.5,0
				c-1,1-1.7,2.3-2,3.7l-0.2,0.7C196.8,318.7,196.3,319.1,195.7,319.1z M188.3,314.1c2,1,4.2,1.8,6.5,2.3c0.5-1.7,1.4-3.2,2.6-4.5
				c1.9-1.9,4.3-2.9,7-2.9c2.7,0,5.2,1,7,2.9c0.7,0.7,1.3,1.5,1.8,2.4c2.1-1,4.1-2.2,5.9-3.7c-2.8-3.9-2.4-9.4,1.1-12.8
				c2.3-2.3,5.6-3.3,8.7-2.7c0.5-2.2,0.8-4.5,0.8-6.8c-2.5-0.1-4.8-1.2-6.5-2.9c-3.8-3.9-3.8-10.2,0-14c0.2-0.1,0.3-0.3,0.5-0.4
				c-0.8-1-1.5-1.9-2.3-2.6c-0.8-0.8-1.7-1.6-2.6-2.3c-0.1,0.2-0.3,0.3-0.4,0.5c-3.8,3.8-10.3,3.7-14,0c-1.7-1.8-2.8-4-2.9-6.5
				l-0.4,0c-2.2,0-4.3,0.2-6.4,0.7c0.5,3.2-0.5,6.4-2.8,8.7c-1.9,1.8-4.3,2.9-7,2.9c-2.1,0-4.2-0.7-5.8-1.9
				c-1.5,1.8-2.7,3.8-3.8,5.9c0.9,0.5,1.7,1,2.3,1.7c3.8,3.9,3.8,10.2-0.1,14c-1.2,1.2-2.8,2.1-4.4,2.5c0.5,2.3,1.3,4.5,2.3,6.6
				c3.6-1.5,8.1-0.7,10.9,2.2C189.1,306.1,189.9,310.4,188.3,314.1z M201.2,305.5c-9.5,0-17.2-7.7-17.2-17.2
				c0-9.5,7.7-17.2,17.2-17.2c9.5,0,17.2,7.7,17.2,17.2C218.4,297.8,210.7,305.5,201.2,305.5z M201.2,273.6
				c-8.1,0-14.7,6.6-14.7,14.7c0,8.1,6.6,14.7,14.7,14.7c8.1,0,14.7-6.6,14.7-14.7C216,280.2,209.4,273.6,201.2,273.6z"/>
		</g>
	</g>
	<g>
		<path d="M201.2,332.8c-24.1,0-43.8-19.6-43.8-43.8c0-24.1,19.6-43.8,43.8-43.8S245,264.9,245,289
			C245,313.2,225.4,332.8,201.2,332.8z M201.2,247.7c-22.8,0-41.3,18.5-41.3,41.3c0,22.8,18.5,41.3,41.3,41.3s41.3-18.5,41.3-41.3
			C242.5,266.3,224,247.7,201.2,247.7z"/>
	</g>
	<g>
		<g>
			<g>
				<path d="M279,145.5v-15.9c0-2,0-3.6-0.1-4.7c0-1.2-0.1-2.1-0.2-2.6c-0.8-4.6-2.8-7.8-6-9.4c-2.4-1.3-6.3-1.9-11.4-1.9h-22.6
					v34.6h-2.5V73.3h23.8c7.9,0,13.9,1.1,17.6,3.4c4.6,2.9,7,8,7,15.3c0,9.1-4.2,14.9-12.9,17.5l0,1c6,1.2,9.2,5.2,9.9,12.2
					c0,0.3,0.1,1.8,0.1,9.4l0.1,13.4H279z M238.9,108.8H262c13.5,0,20.3-5.6,20.3-16.6c0-9.3-4.3-14.7-12.7-16.3
					c-1-0.1-2.2-0.3-3.8-0.4c-1.6-0.1-3.4-0.2-5.5-0.2h-21.4V108.8z"/>
			</g>
		</g>
		<g>
			<g>
				<polygon points="299.7,145.5 299.7,73.3 343.4,73.3 343.4,75.6 302.2,75.6 302.2,106.8 334.8,106.8 334.8,108.9 302.2,108.9 
					302.2,143.2 344.4,143.2 344.4,145.5 				"/>
			</g>
		</g>
		<g>
			<g>
				<path d="M357.4,145.5V73.3h19.5c17.4,0,25.9,6.2,25.9,18.8c0,5.7-1.8,10.5-5.4,14.1c-2.4,2.4-5.6,4-9.6,4.7
					c-2.3,0.5-6.1,0.7-11.2,0.7h-16.7v33.8H357.4z M359.9,109.6h14.4c8.6,0,14.3-0.6,17.2-2c5.7-2.5,8.6-7.8,8.6-15.8
					c0-9.1-4.7-14.4-14-15.9c-2.4-0.4-6.4-0.6-11.8-0.6h-14.5V109.6z"/>
			</g>
		</g>
		<g>
			<g>
				<path d="M456,145.5l-9.5-24.9h-34.8l-9.6,24.9h-2.3l27.8-72.2h3.2l27.4,72.2H456z M412.6,118.5h33.1l-16.4-43.1L412.6,118.5z"/>
			</g>
		</g>
		<g>
			<g>
				<rect x="467.4" y="73.3" width="2.4" height="72.2"/>
			</g>
		</g>
		<g>
			<g>
				<path d="M530.6,145.5v-15.9c0-2,0-3.6-0.1-4.7c0-1.2-0.1-2.1-0.2-2.6c-0.8-4.6-2.8-7.8-6-9.4c-2.4-1.3-6.3-1.9-11.4-1.9h-22.6
					v34.6H488V73.3h23.8c7.9,0,13.9,1.1,17.6,3.4c4.6,2.9,7,8,7,15.3c0,9.1-4.2,14.9-12.9,17.5l0,1c6,1.2,9.2,5.2,9.9,12.2
					c0,0.3,0.1,1.8,0.1,9.4l0.1,13.4H530.6z M490.5,108.8h23.1c13.5,0,20.3-5.6,20.3-16.6c0-9.3-4.3-14.7-12.7-16.3
					c-1-0.1-2.2-0.3-3.8-0.4c-1.6-0.1-3.4-0.2-5.5-0.2h-21.4V108.8z"/>
			</g>
		</g>
		<g>
			<g>
				<path d="M625.3,145.5l-9.5-24.9H581l-9.6,24.9h-2.3L597,73.3h3.2l27.4,72.2H625.3z M581.9,118.5h33.1l-16.4-43.1L581.9,118.5z"
					/>
			</g>
		</g>
		<g>
			<g>
				<polygon points="685.3,145.5 638.6,77.1 638.6,145.5 636.2,145.5 636.2,73.3 638.9,73.3 685.6,141.8 685.6,73.3 687.9,73.3 
					687.9,145.5 				"/>
			</g>
		</g>
		<g>
			<g>
				<path d="M705.6,145.5V73.3h16.3c10.7,0,18.5,1.2,23.3,3.5c10.6,5.3,15.9,16.3,15.9,32.6c0,16.6-5.3,27.6-15.9,32.5
					c-5.1,2.3-12.9,3.5-23.3,3.5H705.6z M708.1,143.4h14.6c9.9,0,17.3-1.3,22-3.7c9.2-4.8,13.8-15,13.8-30.3
					c0-12.4-3.3-21.6-9.8-27.5c-3.1-2.8-7.3-4.7-12.4-5.6c-1.6-0.3-3.5-0.5-5.8-0.6c-2.2-0.1-4.9-0.2-7.9-0.2h-14.6V143.4z"/>
			</g>
		</g>
		<g>
			<g>
				<path d="M822.9,147c-7.2,0-13-2.1-17.3-6.3c-4.2-3.9-6.6-9.5-7.1-16.6h2.4c0.5,6.3,2.6,11.3,6.4,15.1c3.8,3.8,9.2,5.8,15.8,5.8
					c5.8,0,10.7-1.5,14.5-4.4c4.5-3.2,6.7-7.6,6.7-13.2c0-5.8-2.4-10.2-7-13.1c-2.3-1.5-7.1-3.3-14.7-5.3c-0.2-0.1-0.5-0.2-1.4-0.4
					c-8.3-2.3-13.6-4.5-15.8-6.5c-3.3-3-5-7-5-11.7c0-6.1,2.1-10.8,6.3-14c3.9-3.1,9-4.7,15.2-4.7c6.7,0,12.1,1.8,16.2,5.5
					c4,3.5,6.3,8.6,6.7,15h-2.3c-0.2-5.8-2.3-10.4-6.2-13.7c-3.8-3.3-8.7-4.9-14.7-4.9c-5.5,0-10,1.4-13.4,4.2
					c-3.7,2.9-5.6,7.2-5.6,12.6c0,3.9,1.6,7.4,4.6,10.2c2.3,2.1,7.1,4.1,14.7,6c0.1,0.1,0.3,0.1,0.6,0.2c0.2,0,0.5,0.1,0.8,0.2
					c7.8,2.1,13.1,4.1,16,5.9c5,3.2,7.5,7.8,7.5,13.7c0,6.6-2.4,11.8-7,15.5C835.4,145.3,829.7,147,822.9,147z"/>
			</g>
		</g>
		<g>
			<g>
				<polygon points="860.5,145.5 860.5,73.3 904.2,73.3 904.2,75.6 863,75.6 863,106.8 895.7,106.8 895.7,108.9 863,108.9 
					863,143.2 905.2,143.2 905.2,145.5 				"/>
			</g>
		</g>
		<g>
			<g>
				<path d="M960.9,145.5v-15.9c0-2,0-3.6-0.1-4.7c0-1.2-0.1-2.1-0.2-2.6c-0.8-4.6-2.8-7.8-6-9.4c-2.4-1.3-6.3-1.9-11.4-1.9h-22.6
					v34.6h-2.5V73.3h23.8c7.9,0,13.9,1.1,17.6,3.4c4.6,2.9,7,8,7,15.3c0,9.1-4.2,14.9-12.9,17.5l0.1,1c6,1.2,9.2,5.2,9.9,12.2
					c0,0.3,0.1,1.8,0.1,9.4l0.1,13.4H960.9z M920.7,108.8h23.1c13.5,0,20.3-5.6,20.3-16.6c0-9.3-4.3-14.7-12.7-16.3
					c-1-0.1-2.2-0.3-3.8-0.4c-1.6-0.1-3.4-0.2-5.5-0.2h-21.4V108.8z"/>
			</g>
		</g>
		<g>
			<g>
				<polygon points="998.1,145.5 973.2,73.3 975.6,73.3 999.5,142.5 1023.2,73.3 1025.8,73.3 1000.6,145.5 				"/>
			</g>
		</g>
		<g>
			<g>
				<rect x="1035.5" y="73.3" width="2.4" height="72.2"/>
			</g>
		</g>
		<g>
			<g>
				<path d="M1082.8,146.9c-10.2,0-18-3.8-23.2-11.3c-4.5-6.5-6.7-15.2-6.7-26.1c0-10.8,2.3-19.8,6.9-26.5
					c5.2-7.6,13.2-11.4,23.6-11.4c7.1,0,13.2,2,18.1,5.9c3.4,2.7,5.9,6,7.3,9.9l-2.3,1.2c-3.5-9.9-11.5-14.9-23.8-14.9
					c-9.3,0-16.5,3.9-21.3,11.5c-4,6.4-6.1,14.6-6.1,24.3c0,9.8,2,17.9,5.9,24.1c4.7,7.6,11.7,11.4,21,11.4c7.4,0,13.5-2,18.1-6
					c3.4-3,5.8-6.8,7-11.5l2,1.1c-1.3,4.7-3.7,8.6-7.3,11.8C1097.3,144.7,1090.8,146.9,1082.8,146.9z"/>
			</g>
		</g>
		<g>
			<g>
				<polygon points="1125.4,145.5 1125.4,73.3 1169.1,73.3 1169.1,75.6 1127.8,75.6 1127.8,106.8 1160.5,106.8 1160.5,108.9 
					1127.8,108.9 1127.8,143.2 1170.1,143.2 1170.1,145.5 				"/>
			</g>
		</g>
	</g>
	<g>
		<path d="M1207.1,116.8c-4.2,0-7.5-3.4-7.5-7.5s3.4-7.5,7.5-7.5s7.5,3.4,7.5,7.5S1211.3,116.8,1207.1,116.8z M1207.1,104.2
			c-2.8,0-5.1,2.3-5.1,5.1s2.3,5.1,5.1,5.1s5.1-2.3,5.1-5.1S1209.9,104.2,1207.1,104.2z"/>
	</g>
	<g>
		<path d="M1242.2,116.8c-4.2,0-7.5-3.4-7.5-7.5s3.4-7.5,7.5-7.5c4.2,0,7.5,3.4,7.5,7.5S1246.4,116.8,1242.2,116.8z M1242.2,104.2
			c-2.8,0-5.1,2.3-5.1,5.1s2.3,5.1,5.1,5.1c2.8,0,5.1-2.3,5.1-5.1S1245,104.2,1242.2,104.2z"/>
	</g>
	<g>
		<path d="M1277.4,116.8c-4.2,0-7.5-3.4-7.5-7.5s3.4-7.5,7.5-7.5s7.5,3.4,7.5,7.5S1281.5,116.8,1277.4,116.8z M1277.4,104.2
			c-2.8,0-5.1,2.3-5.1,5.1s2.3,5.1,5.1,5.1s5.1-2.3,5.1-5.1S1280.2,104.2,1277.4,104.2z"/>
	</g>
	<g>
		<path d="M114.8,116.8c-4.2,0-7.5-3.4-7.5-7.5s3.4-7.5,7.5-7.5s7.5,3.4,7.5,7.5S118.9,116.8,114.8,116.8z M114.8,104.2
			c-2.8,0-5.1,2.3-5.1,5.1s2.3,5.1,5.1,5.1s5.1-2.3,5.1-5.1S117.6,104.2,114.8,104.2z"/>
	</g>
	<g>
		<path d="M149.9,116.8c-4.2,0-7.5-3.4-7.5-7.5s3.4-7.5,7.5-7.5s7.5,3.4,7.5,7.5S154.1,116.8,149.9,116.8z M149.9,104.2
			c-2.8,0-5.1,2.3-5.1,5.1s2.3,5.1,5.1,5.1c2.8,0,5.1-2.3,5.1-5.1S152.7,104.2,149.9,104.2z"/>
	</g>
	<g>
		<path d="M185,116.8c-4.2,0-7.5-3.4-7.5-7.5s3.4-7.5,7.5-7.5s7.5,3.4,7.5,7.5S189.2,116.8,185,116.8z M185,104.2
			c-2.8,0-5.1,2.3-5.1,5.1s2.3,5.1,5.1,5.1s5.1-2.3,5.1-5.1S187.8,104.2,185,104.2z"/>
	</g>
	<g>
		<g>
			<path d="M743.2,317.7h-50.1c-0.7,0-1.5-0.3-2-0.7l-23.9-20.6h-21.5c-1.7,0-3.1-1.4-3.1-3.1V271h-8.7v20.6c0,3.5-2.9,6.4-6.4,6.4
				c-3.5,0-6.4-2.9-6.4-6.4v-60.8c0-3.5,2.9-6.4,6.4-6.4c3.5,0,6.4,2.9,6.4,6.4v19.7h8.7v-21.1c0-1.7,1.4-3.1,3.1-3.1h13.2v-9.3
				c0-1.7,1.4-3.1,3.1-3.1h19.5v-7.7h-20.8c-3.5,0-6.4-2.9-6.4-6.4s2.9-6.4,6.4-6.4h60.8c3.5,0,6.4,2.9,6.4,6.4s-2.9,6.4-6.4,6.4
				h-19.6v7.7h23.8c1.7,0,3.1,1.4,3.1,3.1V235h16.2c1.7,0,3.1,1.4,3.1,3.1v8.9h10.6v-9.8c0-1.7,1.4-3.1,3.1-3.1h7.7
				c1.2,0,2.2,0.6,2.7,1.7l10.7,21c0.2,0.4,0.3,0.9,0.3,1.4v28.7c0,0.4-0.1,0.8-0.3,1.2l-8.5,20.1c-0.5,1.1-1.6,1.9-2.8,1.9H759
				c-1.7,0-3.1-1.4-3.1-3.1v-10.6h-9.7v18.3C746.3,316.3,744.9,317.7,743.2,317.7z M632.7,268.5h11.2c0.7,0,1.2,0.6,1.2,1.2v23.5
				c0,0.3,0.3,0.6,0.6,0.6h22c0.3,0,0.6,0.1,0.8,0.3l24.3,20.9c0.1,0.1,0.2,0.1,0.4,0.1h50.1c0.3,0,0.6-0.3,0.6-0.6v-19.6
				c0-0.7,0.6-1.2,1.2-1.2h12.2c0.7,0,1.2,0.6,1.2,1.2v11.9c0,0.3,0.3,0.6,0.6,0.6h12.4c0.2,0,0.5-0.1,0.5-0.4l8.6-20.4v-28.7
				c0-0.1,0-0.2-0.1-0.3l-10.7-21c-0.1-0.2-0.3-0.3-0.5-0.3h-7.7c-0.3,0-0.6,0.3-0.6,0.6v11c0,0.7-0.6,1.2-1.2,1.2h-13
				c-0.7,0-1.2-0.6-1.2-1.2V238c0-0.3-0.3-0.6-0.6-0.6h-17.4c-0.7,0-1.2-0.6-1.2-1.2v-19.1c0-0.3-0.3-0.6-0.6-0.6h-25
				c-0.7,0-1.2-0.6-1.2-1.2v-10.1c0-0.7,0.6-1.2,1.2-1.2h20.8c2.2,0,3.9-1.8,3.9-3.9s-1.8-3.9-3.9-3.9h-60.8c-2.2,0-3.9,1.8-3.9,3.9
				s1.8,3.9,3.9,3.9h22.1c0.7,0,1.2,0.6,1.2,1.2v10.1c0,0.7-0.6,1.2-1.2,1.2h-20.8c-0.3,0-0.6,0.3-0.6,0.6v10.6
				c0,0.7-0.6,1.2-1.2,1.2h-14.4c-0.3,0-0.6,0.3-0.6,0.6v22.3c0,0.7-0.6,1.2-1.2,1.2h-11.2c-0.7,0-1.2-0.6-1.2-1.2v-21
				c0-2.2-1.8-3.9-3.9-3.9c-2.2,0-3.9,1.8-3.9,3.9v60.8c0,2.2,1.8,3.9,3.9,3.9c2.2,0,3.9-1.8,3.9-3.9v-21.9
				C631.4,269.1,632,268.5,632.7,268.5z"/>
		</g>
		<g>
			<path d="M666.3,267.5c-4.6,0-8.4-3.8-8.4-8.4s3.8-8.4,8.4-8.4c4.6,0,8.4,3.8,8.4,8.4S670.9,267.5,666.3,267.5z M666.3,253.1
				c-3.3,0-6,2.7-6,6s2.7,6,6,6c3.3,0,6-2.7,6-6S669.6,253.1,666.3,253.1z"/>
		</g>
		<g>
			<path d="M696.1,267.5c-4.6,0-8.4-3.8-8.4-8.4s3.8-8.4,8.4-8.4c4.6,0,8.4,3.8,8.4,8.4S700.7,267.5,696.1,267.5z M696.1,253.1
				c-3.3,0-6,2.7-6,6s2.7,6,6,6c3.3,0,6-2.7,6-6S699.4,253.1,696.1,253.1z"/>
		</g>
		<g>
			<path d="M725.9,267.5c-4.6,0-8.4-3.8-8.4-8.4s3.8-8.4,8.4-8.4s8.4,3.8,8.4,8.4S730.5,267.5,725.9,267.5z M725.9,253.1
				c-3.3,0-6,2.7-6,6s2.7,6,6,6s6-2.7,6-6S729.1,253.1,725.9,253.1z"/>
		</g>
	</g>
</g>
</svg>
