<svg id="Capa_1" enable-background="new 0 0 512 512" height="512" viewBox="0 0 512 512" width="512" xmlns="http://www.w3.org/2000/svg"><g><g><path d="m386.831 319.753-215.683-215.684-124.869 124.87 96.49 96.49-5.676 17.027 96.49 96.49c9.405 9.405 24.651 9.405 34.056 0 9.404-9.404 9.404-24.651 0-34.055l5.676 5.676c9.404 9.404 24.651 9.404 34.055 0 9.405-9.404 9.405-24.651 0-34.055l5.676 5.676c9.404 9.404 24.651 9.404 34.055 0s9.404-24.651 0-34.055l5.676 5.676c9.404 9.404 24.651 9.404 34.056 0s9.402-24.652-.002-34.056z" fill="#ffe09f"/><g fill="#f6d190"><path d="m232.8 372.055c-5.336-3.704-10.598-6.624-15.279-7.867-4.418-16.55-17.505-29.635-34.055-34.051-4.65-17.407-18.911-31.042-36.668-34.732l-83.492-83.493h-.001l-17.028 17.028 96.489 96.49-5.675 17.027 95.526 95.526c9.221 9.221 24.39 10.581 34.08 1.855 10.334-9.306 10.647-25.239.939-34.946l3.087 3.087 2.589 2.589c9.046 9.046 23.447 9.297 32.905.94l-45.088-45.086c-6.272-6.272-16.443-6.269-22.711.008z"/><path d="m272.605 342.456 37.868 37.868c-.886-1.347-1.919-2.627-3.104-3.812l5.676 5.676c9.238 9.238 24.085 9.347 33.522.436l-45.577-45.576c-6.164-6.164-16.119-6.283-22.429-.268z"/><path d="m317.967 307.366-5.956 5.678 40.766 40.764c.01.01.021.016.031.026 9.361 9.33 24.475 9.352 33.879.091l-46.292-46.291c-6.163-6.163-16.119-6.283-22.428-.268z"/></g><circle cx="137.092" cy="342.456" fill="#d19a6e" r="24.081"/><path d="m352.776 104.069-38.506 38.506c-8.23 8.23-18.542 14.069-29.833 16.891l-10.896 2.724c-11.291 2.822-21.603 8.661-29.832 16.891l-43.219 43.218c-9.22 9.22-10.58 24.389-1.854 34.079 9.305 10.334 25.239 10.647 34.946.94l17.028-17.028c15.674-15.674 41.085-15.674 56.759 0l79.463 79.462 90.814-90.814z" fill="#d19a6e"/><path d="m352.776 104.069-38.505 38.506c-8.231 8.23-18.543 14.069-29.833 16.891l-10.896 2.724c-11.291 2.822-21.603 8.661-29.832 16.891l-43.218 43.218c-9.22 9.22-10.58 24.389-1.855 34.079.297.329.654.559.963.869l1.034-1.034 60.105-60.104c5.141-5.142 11.589-8.793 18.646-10.557l10.894-2.724c15.521-3.879 29.706-11.91 41.021-23.225l27.154-27.154 2.351-2.351v-3.325-14.677z" fill="#c38c66"/><path d="m204.494 115.421-27.853-27.853-147.573 147.573 27.853 27.853c3.135 3.135 8.217 3.135 11.352 0l136.221-136.221c3.135-3.135 3.135-8.217 0-11.352z" fill="#ffd064"/><path d="m193.142 104.07-124.869 124.869c-1.516 1.516-3.531 2.351-5.675 2.351-2.145 0-4.16-.835-5.677-2.352l-32.392-32.393 25.832 25.831-17.028 17.028 23.589 23.589c3.135 3.135 8.217 3.135 11.352 0l136.222-136.222c3.135-3.135 3.134-8.217 0-11.351z" fill="#ffc250"/><path d="m89.893 197.443c12.296-12.296.944-23.648 13.239-35.943 12.293-12.292 23.644-.941 35.937-13.233 12.291-12.291.939-23.643 13.229-35.933 12.277-12.277 23.629-.925 35.906-13.202l-33.131-33.132-130.544 130.546 16.102 50.158c12.316-12.315.964-23.667 13.279-35.982 12.316-12.316 23.667-.964 35.983-13.279z" fill="#95d6a4"/><path d="m455.08 274.336 49.421-49.421-147.574-147.573-49.421 49.421c-3.135 3.135-3.135 8.217 0 11.352l136.221 136.221c3.136 3.134 8.218 3.134 11.353 0z" fill="#ead1ff"/><path d="m373.058 159.735c12.296 12.296 23.648.944 35.943 13.239 12.292 12.293.941 23.644 13.233 35.937 12.291 12.291 23.643.939 35.933 13.229 12.277 12.277.925 23.629 13.202 35.906l33.131-33.131-130.545-130.545-50.159 16.103c12.315 12.316 23.667.964 35.982 13.279 12.316 12.315.965 23.667 13.28 35.983z" fill="#eceaec"/><path d="m466.431 262.984-124.869-124.869c-1.517-1.516-2.352-3.532-2.352-5.676s.835-4.16 2.351-5.676l17.427-17.426-17.028-17.028-34.454 34.454c-3.135 3.135-3.135 8.217 0 11.352l136.221 136.221c3.135 3.135 8.217 3.135 11.352 0z" fill="#d6bdef"/><path d="m40.631 246.704c9.075-9.074 5.321-17.626 7.632-26.425l-23.734-23.734-17.029 17.028z" fill="#78c2a4"/><path d="m323.797 110.473c9.073 9.074 17.626 5.322 26.425 7.632l23.734-23.734-17.028-17.028z" fill="#dad8db"/><path d="m151.767 351.863c-13.3 0-24.081-10.781-24.081-24.081 0-2.803.571-5.452 1.452-7.954-9.369 3.297-16.126 12.132-16.126 22.629 0 13.299 10.78 24.081 24.081 24.081 10.496 0 19.331-6.757 22.629-16.126-2.503.879-5.153 1.451-7.955 1.451z" fill="#c38c66"/><circle cx="171.148" cy="376.512" fill="#d19a6e" r="24.081"/><path d="m185.822 385.918c-13.3 0-24.081-10.781-24.081-24.081 0-2.803.571-5.452 1.452-7.954-9.369 3.297-16.126 12.132-16.126 22.629 0 13.299 10.78 24.081 24.081 24.081 10.496 0 19.331-6.757 22.629-16.126-2.503.879-5.152 1.451-7.955 1.451z" fill="#c38c66"/><circle cx="205.203" cy="410.567" fill="#d19a6e" r="24.081"/><path d="m219.878 419.973c-13.3 0-24.081-10.781-24.081-24.081 0-2.803.571-5.452 1.452-7.954-9.369 3.297-16.126 12.132-16.126 22.629 0 13.299 10.78 24.081 24.081 24.081 10.496 0 19.331-6.757 22.629-16.126-2.504.879-5.153 1.451-7.955 1.451z" fill="#c38c66"/></g><path d="m509.803 219.569c-2.929-2.929-7.678-2.929-10.606 0l-26.441 26.441c-.418-1.872-.503-3.895-.6-6.278-.254-6.238-.602-14.781-8.841-23.02-8.239-8.24-16.782-8.587-23.02-8.841-5.375-.219-8.927-.364-13.024-4.46-4.084-4.085-4.226-7.631-4.44-12.999-.249-6.235-.59-14.774-8.822-23.006-8.231-8.231-16.77-8.571-23.004-8.819-5.366-.213-8.912-.354-12.994-4.437-4.081-4.082-4.222-7.626-4.435-12.991-.248-6.235-.587-14.773-8.817-23.003-8.225-8.225-16.761-8.559-22.993-8.803-2.356-.092-4.36-.171-6.212-.576l26.426-26.426c2.929-2.929 2.929-7.678 0-10.606-2.929-2.93-7.678-2.929-10.606 0l-49.506 49.505c-6.058 6.059-6.058 15.917 0 21.977l.015.015c-5.162 3.853-11.049 6.67-17.341 8.243l-13.075 3.269c-12.626 3.156-24.165 9.689-33.368 18.893l-43.292 43.292c-12.44 12.44-13.375 31.969-2.128 44.459 5.877 6.527 13.937 10.248 22.692 10.477.272.007.543.011.815.011 8.348 0 16.463-3.349 22.375-9.262l17.057-17.057c12.751-12.751 33.499-12.751 46.25 0l79.598 79.598c3.14 3.14 4.869 7.313 4.869 11.753s-1.729 8.614-4.869 11.753-7.313 4.869-11.753 4.869-8.614-1.729-11.753-4.869l-39.799-39.799c-2.929-2.929-7.678-2.929-10.606 0-2.929 2.929-2.929 7.678 0 10.606l34.113 34.113c6.48 6.481 6.48 17.026 0 23.507-3.14 3.14-7.314 4.869-11.753 4.869-4.44 0-8.614-1.729-11.753-4.869l-39.799-39.799c-2.929-2.929-7.678-2.929-10.606 0-2.929 2.929-2.929 7.678 0 10.606l34.115 34.114c6.48 6.481 6.479 17.026-.001 23.506s-17.025 6.48-23.507 0l-39.799-39.799c-2.929-2.929-7.678-2.929-10.606 0-2.929 2.929-2.929 7.678 0 10.606l34.113 34.114c3.14 3.14 4.869 7.313 4.869 11.753 0 4.439-1.729 8.614-4.869 11.753-6.481 6.48-17.025 6.48-23.507 0l-6.709-6.709c7.389-12.165 5.84-28.274-4.662-38.776-6.827-6.827-16.024-9.866-24.966-9.133.071-.867.115-1.74.115-2.621 0-8.446-3.29-16.387-9.262-22.36-6.827-6.827-16.023-9.866-24.966-9.133.071-.867.115-1.74.115-2.621 0-8.447-3.29-16.388-9.262-22.36-5.551-5.551-12.803-8.78-20.58-9.209l-53.72-53.71 114.476-114.476 17.439 17.439c1.464 1.464 3.384 2.197 5.303 2.197s3.839-.732 5.303-2.197c2.929-2.929 2.929-7.678 0-10.606l-17.439-17.439.383-.383c6.058-6.059 6.058-15.917 0-21.977l-49.505-49.505c-2.929-2.929-7.678-2.929-10.606 0-2.929 2.929-2.929 7.678 0 10.606l26.426 26.426c-1.853.405-3.857.484-6.212.576-6.232.244-14.768.578-22.993 8.803-8.23 8.23-8.57 16.769-8.817 23.003-.213 5.366-.354 8.91-4.435 12.992-4.083 4.083-7.628 4.224-12.994 4.437-6.234.248-14.773.588-23.004 8.819-8.232 8.232-8.573 16.771-8.822 23.006-.214 5.368-.356 8.914-4.44 12.999-4.097 4.097-7.648 4.241-13.024 4.46-6.238.254-14.78.602-23.02 8.841s-8.587 16.782-8.841 23.02c-.097 2.383-.181 4.406-.6 6.278l-26.441-26.441c-2.929-2.929-7.678-2.929-10.606 0-2.929 2.929-2.929 7.678 0 10.606l49.505 49.505c3.03 3.03 7.009 4.544 10.989 4.544s7.959-1.515 10.989-4.544l.382-.382 47.085 47.085c-2.497 1.404-4.822 3.151-6.903 5.233-5.973 5.972-9.262 13.913-9.262 22.36s3.29 16.388 9.262 22.36c5.972 5.973 13.913 9.262 22.36 9.262.88 0 1.753-.044 2.621-.115-.733 8.943 2.306 18.139 9.133 24.966 5.973 5.973 13.914 9.262 22.36 9.262.88 0 1.753-.044 2.621-.115-.733 8.943 2.306 18.14 9.133 24.966 6.165 6.165 14.262 9.247 22.36 9.247 5.698 0 11.392-1.533 16.416-4.584l6.709 6.709c5.972 5.973 13.913 9.262 22.36 9.262s16.388-3.289 22.36-9.262c5.479-5.479 8.692-12.616 9.187-20.278 2.699.725 5.475 1.097 8.252 1.097 8.098 0 16.196-3.082 22.36-9.247 5.632-5.632 8.682-12.877 9.169-20.261 2.664.717 5.437 1.095 8.27 1.095 8.446 0 16.387-3.29 22.36-9.262 5.632-5.632 8.682-12.877 9.169-20.261 2.664.717 5.437 1.095 8.27 1.095 8.447 0 16.388-3.29 22.36-9.262 5.973-5.972 9.262-13.913 9.262-22.36 0-5.886-1.602-11.524-4.591-16.424l41.196-41.196.382.382c3.03 3.03 7.009 4.544 10.989 4.544s7.959-1.515 10.989-4.544l49.505-49.505c2.925-2.929 2.925-7.678-.005-10.607zm-447.495 38.134-11.654-11.654c3.728-6.26 3.985-12.335 4.178-17.077.219-5.375.364-8.927 4.46-13.024 4.097-4.097 7.648-4.241 13.024-4.46 6.238-.254 14.78-.602 23.02-8.841 8.232-8.232 8.573-16.771 8.822-23.007.214-5.367.355-8.913 4.44-12.998 4.083-4.083 7.628-4.224 12.994-4.437 6.234-.248 14.773-.588 23.004-8.819 8.23-8.23 8.569-16.768 8.817-23.003.213-5.365.354-8.91 4.436-12.992 4.073-4.073 7.614-4.211 12.974-4.421 4.735-.185 10.8-.432 17.047-4.142l11.657 11.657c.211.211.211.555 0 .765l-130.768 130.767-5.685 5.685c-.212.212-.555.212-.766.001zm74.295 101.523c-4.44 0-8.614-1.729-11.753-4.869s-4.869-7.313-4.869-11.753 1.729-8.614 4.869-11.753 7.313-4.869 11.753-4.869 8.614 1.729 11.753 4.869 4.869 7.313 4.869 11.753-1.729 8.614-4.869 11.753-7.313 4.869-11.753 4.869zm34.113 34.113c-4.439 0-8.614-1.729-11.753-4.869-6.48-6.481-6.48-17.026 0-23.507 3.241-3.241 7.497-4.86 11.753-4.86s8.513 1.621 11.753 4.86c3.14 3.14 4.869 7.314 4.869 11.753 0 4.44-1.729 8.614-4.869 11.753s-7.313 4.87-11.753 4.87zm22.36 29.245c-6.48-6.481-6.48-17.026 0-23.507 6.48-6.48 17.025-6.481 23.507 0 6.48 6.481 6.48 17.026 0 23.507-6.479 6.481-17.025 6.482-23.507 0zm193.692-113.329-74.294-74.295c-18.6-18.6-48.864-18.6-67.462 0l-17.057 17.057c-3.256 3.257-7.58 4.986-12.192 4.863-4.602-.121-8.841-2.081-11.938-5.52-5.807-6.449-5.094-17.132 1.588-23.815l43.292-43.292c7.282-7.281 16.411-12.45 26.399-14.947l13.076-3.269c8.934-2.234 17.251-6.376 24.398-12.1l114.754 114.754zm62.924-40.181c-.211.211-.554.211-.765 0l-136.453-136.453c-.211-.211-.211-.555 0-.765l11.657-11.657c6.248 3.71 12.312 3.957 17.047 4.142 5.36.21 8.901.349 12.974 4.421 4.082 4.082 4.222 7.626 4.436 12.992.248 6.234.587 14.772 8.817 23.002 8.231 8.231 16.77 8.571 23.004 8.819 5.366.213 8.912.354 12.994 4.437 4.084 4.084 4.226 7.63 4.44 12.998.249 6.235.59 14.774 8.822 23.007 8.239 8.24 16.782 8.587 23.02 8.841 5.375.219 8.927.364 13.024 4.46 4.097 4.097 4.241 7.648 4.46 13.024.193 4.742.45 10.817 4.177 17.077z"/></g></svg>