<?xml version="1.0" encoding="UTF-8" standalone="no"?>
<svg
   xmlns:dc="http://purl.org/dc/elements/1.1/"
   xmlns:cc="http://creativecommons.org/ns#"
   xmlns:rdf="http://www.w3.org/1999/02/22-rdf-syntax-ns#"
   xmlns:svg="http://www.w3.org/2000/svg"
   xmlns="http://www.w3.org/2000/svg"
   viewBox="0 0 439.0625 200.575"
   height="200.575"
   width="439.0625"
   xml:space="preserve"
   version="1.1"
   id="svg2"><metadata
     id="metadata8"><rdf:RDF><cc:Work
         rdf:about=""><dc:format>image/svg+xml</dc:format><dc:type
           rdf:resource="http://purl.org/dc/dcmitype/StillImage" /></cc:Work></rdf:RDF></metadata><defs
     id="defs6" /><g
     transform="matrix(1.25,0,0,-1.25,0,200.575)"
     id="g10"><g
       transform="scale(0.1,0.1)"
       id="g12"><path
         id="path14"
         style="fill:#dd3224;fill-opacity:1;fill-rule:nonzero;stroke:none"
         d="m 2049.2,1163.19 c -33.8,-69.2 -74.1,-135.2 -104.1,-206.194 -9.1,-28.203 -24.01,-62.207 -4.9,-89.598 20,-17.207 48,-13.906 72.2,-10.703 92.2,13.7 181.51,41.7 268.8,73.895 86.9,32.305 167.71,81.81 234.7,146.01 40,36.99 62.9,89.79 69.1,143.4 2.1,63.49 -35.29,121.2 -84.81,158.19 -75.59,59.1 -164.29,102.61 -256.89,127.11 -74.2,-108.3 -131.3,-227 -194.1,-342.11 z m -476.9,387.2 c -145.3,-21.19 -289.9,-52.7 -428.1,-102.89 -96.4,-36.01 -190.602,-99.01 -232.501,-196.51 -23,-48.1 -16.402,-106.2 9.602,-151.7 18.402,-38 57.199,-68.9 101.299,-63.99 46.8,7.5 87.9,33.8 129.7,54.7 68.3,40.19 141,72 211.2,108.7 226.21,111.39 454.1,220.59 690.7,308.7 23.8,8.59 49.3,14.6 69.6,30.59 -182.2,28.1 -368,25.2 -551.5,12.4 m -152.1,20.6 c 155,32.2 314.19,36.9 472.01,31.81 128.79,-9.21 258.79,-16.01 384.49,-48.01 135.7,-34.4 266.4,-95.69 372.6,-187.79 36.79,-30.91 68.7,-68.7 86.4,-113.81 36,-84.09 14.7,-184.8 -41.6,-254.795 -42,-51.602 -93.1,-96.7 -151.1,-129.407 -107,-56.297 -222.9,-93.691 -341,-118.386 -186.81,-42.805 -379.21,-62.5 -570.8,-57.207 10.21,35.507 32.8,65.097 51.59,96.296 52.31,86.907 111.81,169.2 166.12,254.809 110.09,160.4 236.09,308.8 354.09,463.3 -95.4,-65.4 -174,-151.51 -256.3,-231.91 -70.61,-76.1 -146,-148.09 -210.61,-229.5 -87.5,-113.495 -175.19,-226.999 -258.79,-343.288 -71.21,5.593 -142.5,17.5 -211.7,35 47.99,79.089 117.1,141.894 180.2,208.691 54.2,55.707 111.99,107.797 167.9,161.797 128.1,113.81 267.1,214.4 406.59,313.6 40.61,29.1 84.21,54.51 122.11,87.2 C 2027,1459.5 1918,1395.8 1808.3,1334.5 1661.6,1253.3 1527.1,1151.79 1399.39,1043.7 1299.71,963.695 1206.8,875.797 1115.2,786.891 c -12.2,-12.696 -30.4,-2.297 -44.4,0.8 -109.601,38.7 -208.698,109.598 -276.999,204.004 -46.903,62.005 -50.102,149.395 -21.699,219.795 48.097,103.01 140.597,178.01 239.298,230.3 128.4,64.2 268.7,100.61 408.8,129.2" /><path
         id="path16"
         style="fill:#68696d;fill-opacity:1;fill-rule:nonzero;stroke:none"
         d="m 0,381.398 c 4.90234,34.493 18.6992,84.301 62.3008,82.704 40.2972,-1.411 86.0972,10.089 122.5002,-11 11.898,-25.801 3.301,-56.903 7.797,-84.711 22.5,29.199 25.703,75.507 61.504,92.211 45.097,6.988 92.097,6.488 137.199,-0.204 C 433.199,450 445.398,404.801 456.699,369 c 14.301,22.398 23.903,47.289 36.5,70.59 14.598,28.711 52.297,23.711 79.203,25 37.399,-3.301 82.598,6.301 112.102,-22.801 C 716,414.102 717.004,368.59 717.402,329.801 716,233.301 718.801,136.789 716,40.3008 716.098,-4.01172 661.301,11.7891 632.699,6.89063 606.5,9.69141 561.199,-3 552.5,31.5 c -8.398,91.191 2.797,183.5 -5.098,274.699 -9.101,40.199 -61.601,25.891 -91.8,30.992 C 454.504,244.59 456,152 455.098,59.3906 454.398,43.1992 454.602,22.3008 438.801,12.6914 395.297,0.0898438 348.699,2.80078 304.504,10.3984 292.598,19.8008 287.598,35 288.199,49.8008 c -2,74.5902 2.602,149.3902 -1.699,223.8982 -2.902,20.09 -1.402,46.789 -22.102,57.903 -23.097,6.789 -47.699,3.796 -71.402,5.488 -7.098,-98.789 -0.199,-197.988 -3.394,-296.8986 -0.7,-11.7031 -1.102,-30.39062 -18,-28.9023 C 126.402,6.69141 80.8008,8.10156 35.8008,13.6992 22.1016,121.691 32.9961,231.398 31.4023,340 31.6016,359.5 11.4023,368.789 0,381.398" /><path
         id="path18"
         style="fill:#68696d;fill-opacity:1;fill-rule:nonzero;stroke:none"
         d="m 1197.1,379.898 c 13.4,28.59 18.8,73.692 56.3,79.602 44.71,6.301 90.8,5.898 134.9,-4.102 9.2,-61.398 5.29,-123.796 6.8,-185.707 13.81,21.2 21.7,49.008 44.4,62.61 36.2,9.488 74.5,5.5 111.5,4.199 38.3,-1.012 63.2,-40.301 61.5,-75.898 -0.7,-83.102 2.6,-166.4106 -2.6,-249.4028 -44.5,-3.09764 -89.2,-3.89842 -133.7,0.4024 -4.31,69 3.51,138.3984 -4.2,206.9884 -2.9,30.199 -44.79,32.301 -65.5,18.711 -13.6,-15.41 -13.3,-37.211 -14.1,-56.602 -0.99,-56.41 2.6,-112.8982 -2.3,-169.0974 -47.89,-7.50004 -97.31,-11.703163 -145.1,-0.8008 -16,10 -11.09,32.5898 -13,48.4883 1.59,90.4019 5.1,180.8009 2.5,271.1989 3.19,24.813 -21.71,36.012 -37.4,49.41" /><path
         id="path20"
         style="fill:#68696d;fill-opacity:1;fill-rule:nonzero;stroke:none"
         d="m 1695.61,456.199 c 45.09,9.692 91.6,7.801 137.09,1.199 6.1,-28.398 5.09,-57.597 -1,-86 -46.09,-6.707 -93,-5.796 -139.1,0.602 -6.51,28 -4.6,56.699 3.01,84.199" /><path
         id="path22"
         style="fill:#68696d;fill-opacity:1;fill-rule:nonzero;stroke:none"
         d="m 2560,252.59 c -20.2,-7.5 -50.4,-9 -56.6,-34.199 -8.3,-29.102 -9.49,-63.891 8.1,-89.903 18,-24.59 52,-12.5 77.89,-15.386 0.32,72.988 1.21,146.089 -0.29,219.089 -12.6,-25.402 -19.9,-52.902 -29.1,-79.601 z m -5.1,127.601 c 10.6,29.899 20.39,74.809 58.4,78.2 38.59,3.007 78,4.597 116.2,-2.192 31.59,-10.398 21,-50.711 23.5,-76.109 -4.6,-123 -2.5,-246.09 -3.8,-369.1994 -51.99,-0.4922 -104.1,-1.8906 -156.1,-0.289 -2.81,26.4882 -3.71,52.9882 -4,79.5898 -9.71,-21.9922 -18.01,-44.8906 -31.6,-64.793 -14.5,-21.10934 -43.2,-14.6992 -65,-17.49996 -38.91,0.80078 -86.9,-6.60938 -114.4,27.80076 -44.6,50.5 -26.4,123.0898 -30.5,184.3008 -5.2,45.891 21.1,94.102 65.99,108.789 58.41,18.102 120.8,3 180.8,10.402 -12.79,13.911 -28.89,25.2 -39.49,41" /><path
         id="path24"
         style="fill:#68696d;fill-opacity:1;fill-rule:nonzero;stroke:none"
         d="m 782.996,254.102 c 8.203,30.589 16.508,73.589 50.703,84.097 82.903,5.992 166.203,-1.008 249.201,-1.109 38,2.601 77.4,-27.399 76.1,-67.289 0.9,-84.403 0.6,-169.199 -3.4,-253.4026 -40.6,-16.808556 -89.3,-5.5976 -132.9,-4.7968 -7.1,41.5976 -4.4,83.8867 -4.2,125.7964 -17,7.5 -35.102,15.5 -54.102,10.5 -19.695,-1.207 -31.097,-28.207 -18.902,-43.609 C 967.004,92.9883 992.203,94.1914 1015.6,89.6914 1006.8,60.6992 990,34.2891 968.699,12.9883 922.5,7.39844 872.699,-0.808594 827.898,15.4883 755.496,62 774.602,202.801 863.5,218.301 c 49.496,4.5 99.496,-0.5 149.1,4.199 0.6,6.602 1.7,19.801 2.3,26.289 -77.302,2.301 -154.701,-0.301 -231.904,5.313" /><path
         id="path26"
         style="fill:#68696d;fill-opacity:1;fill-rule:nonzero;stroke:none"
         d="m 1696.41,335 c 38.3,3.789 79.39,7.691 116.38,-5 43.81,-23.5 26.71,-79.91 29.81,-120 -5.2,-66.699 11.2,-136.5117 -9.7,-200.89844 -38.99,0.69922 -78.51,-4.01172 -117.2,2.68754 -14.4,5.7109 -7.4,25.9023 -10.5,37.9023 -2,56.3986 4.3,113.2966 -2.99,169.4106 -2.11,19.386 -22.82,25.699 -36.51,35.488 6.1,27.5 6.19,61.808 30.71,80.41" /><path
         id="path28"
         style="fill:#68696d;fill-opacity:1;fill-rule:nonzero;stroke:none"
         d="m 1906,326.09 c 10,15.41 30.5,9.898 46,11.898 28.8,-1.199 60.9,3.801 86.59,-12 22.21,-14.199 21.81,-43.187 28.01,-65.988 14.2,23.59 23.11,52.59 45.9,69.5 38.1,13.699 80.1,6.898 119.8,5.988 39.11,1.203 57.3,-42.59 57,-75.797 1.3,-82.8 1.1,-165.5894 -0.39,-248.4019 -44.71,-1.48832 -89.41,-1.39066 -134.11,-0.3008 -6.4,68.7031 1.8,137.9097 -4.3,206.5117 -12.5,36.891 -60.31,25.191 -90.1,26.289 -1.81,-64.687 0,-129.398 -0.3,-194.0976 -3,-12.1016 3.81,-32.3906 -10.71,-38.1914 -35,-2.71094 -70.29,-1.5 -105.29,-0.8984 -18.1,-3.41019 -19.9,16.9882 -21,29.4882 -3.71,59.5 3.1,119.4102 -2.6,178.8082 -1.3,19.204 -22.6,25.102 -35.5,35 4.5,24.493 6.2,51.192 21,72.192" /><path
         id="path30"
         style="fill:#68696d;fill-opacity:1;fill-rule:nonzero;stroke:none"
         d="m 3137.7,249.191 c 5.9,32.899 13.9,85 56.8,85.5 78.5,2 157.2,1.707 235.7,0.11 37.5,0.898 68.8,-23.813 82.3,-57.711 l 0,-277.09 -132,0 c -18.3,44.1914 -9.5,92.6914 -13.2,139.102 -24.6,5.488 -55,10.796 -73.6,-11.204 C 3281.6,84.5 3339.3,97.0898 3361.4,78.4883 3358.9,46.8906 3333,21.8906 3312.1,0 l -116.8,0 c -85.4,36.6914 -77.6,189.391 13.8,212.398 51.7,7.403 104.3,0.293 156.3,5.903 -0.9,7 -2.7,21.09 -3.6,28.199 -74.7,-0.211 -149.6,-4.309 -224.1,2.691" /><path
         id="path32"
         style="fill:#68696d;fill-opacity:1;fill-rule:nonzero;stroke:none"
         d="m 2785,268.898 c 3.7,22.301 7.79,49.891 29.3,62.192 35,6.601 71.7,6.101 106.7,-0.289 24.8,-4.012 32.8,-31 45.09,-49.11 13.31,18.11 22.11,45.399 47.21,49.707 37,6.993 74.8,1.5 111.9,-1.808 -10.2,-27.988 -16.6,-63.891 -44.7,-79.59 -38.8,-8.91 -79.1,-2.91 -118.5,-2.199 -3.7,-62.711 -4,-125.61 -3.41,-188.4104 C 2959.71,38.6992 2953,18.8984 2945.1,0 l -37.4,0 c -27.8,1.69141 -55.4,5 -82.7,9.80078 -9.5,71.48832 -2.3,143.68722 -7,215.50022 -11.59,13.488 -36.91,22.289 -33,43.597" /></g></g></svg>