<?xml version="1.0" encoding="utf-8"?>
<!-- Generator: Adobe Illustrator 16.0.0, SVG Export Plug-In . SVG Version: 6.00 Build 0)  -->
<!DOCTYPE svg PUBLIC "-//W3C//DTD SVG 1.1//EN" "http://www.w3.org/Graphics/SVG/1.1/DTD/svg11.dtd">
<svg version="1.1" id="Layer_1" xmlns="http://www.w3.org/2000/svg" xmlns:xlink="http://www.w3.org/1999/xlink" x="0px" y="0px"
	 width="607.551px" height="638.49px" viewBox="291.521 17.511 607.551 638.49"
	 enable-background="new 291.521 17.511 607.551 638.49" xml:space="preserve">
<path d="M666.667,575.853v18.858c0,14.817-10.777,26.94-24.92,28.961l-4.715,16.838c-2.693,8.756-10.775,15.491-20.205,15.491
	h-45.125c-9.43,0-18.185-6.735-20.206-15.491l-4.714-16.838c-14.144-2.021-24.92-14.144-24.92-28.961v-18.858
	c0-9.429,7.408-18.185,18.185-18.185h109.109C659.259,558.342,666.667,566.424,666.667,575.853z M577.764,35.022v61.963
	c0,9.429,7.408,17.511,17.512,17.511c9.429,0,17.511-7.409,17.511-17.511V35.022c0-9.429-7.408-17.511-17.511-17.511
	C585.846,17.511,577.764,25.593,577.764,35.022z M387.833,321.938c0-9.429-7.408-17.511-17.511-17.511h-61.29
	c-9.429,0-17.511,7.408-17.511,17.511c0,9.43,7.409,17.512,17.511,17.512h61.963C379.751,338.776,387.833,331.368,387.833,321.938z
	 M881.517,304.428h-61.963c-9.43,0-17.512,7.408-17.512,17.511c0,9.43,7.41,17.512,17.512,17.512h61.963
	c9.43,0,17.512-7.409,17.512-17.512C899.703,311.836,892.294,304.428,881.517,304.428z M423.529,468.091l-43.778,43.778
	c-7.409,7.408-7.409,18.185,0,24.92c3.368,3.367,7.409,5.389,12.123,5.389c4.715,0,8.756-2.021,12.124-5.389l43.778-43.778
	c7.409-7.408,7.409-18.185,0-24.92C441.714,461.355,430.938,461.355,423.529,468.091z M785.878,106.415l-43.777,43.778
	c-7.41,7.408-7.41,18.185,0,24.92c4.041,3.367,8.082,5.388,12.797,5.388s8.756-2.021,12.123-5.388l43.777-43.778
	c7.408-7.409,7.408-18.185,0-24.92C803.39,99.68,792.615,99.006,785.878,106.415z M403.998,106.415
	c-7.409-7.409-18.185-7.409-24.92,0c-6.735,7.409-7.409,18.185,0,24.92l44.452,43.778c3.367,3.367,7.408,5.388,12.123,5.388
	s8.756-2.021,12.123-5.388c7.409-7.409,7.409-18.185,0-24.92L403.998,106.415z M767.021,468.091c-7.41-7.408-18.186-7.408-24.92,0
	c-7.41,7.409-7.41,18.185,0,24.92l43.777,43.778c3.367,3.367,7.408,5.389,12.123,5.389s8.756-2.021,12.123-5.389
	c7.41-7.408,7.41-18.185,0-24.92L767.021,468.091z M758.265,323.286c0,41.758-16.838,83.516-45.799,113.149
	c-16.838,17.512-27.615,39.064-30.982,62.637c-3.367,20.206-20.879,35.696-41.758,35.696h-90.25
	c-20.879,0-38.391-14.817-41.758-35.696c-3.368-23.572-14.817-45.799-30.982-62.637c-28.961-30.308-45.125-69.371-45.799-111.129
	c-0.673-90.251,72.066-164.337,161.644-165.011h1.347C684.179,160.969,758.265,233.708,758.265,323.286z M721.896,323.286
	c0-70.045-57.25-127.294-127.968-127.294h-0.674c-70.045,1.347-126.62,58.595-125.946,129.314
	c0.674,32.328,13.47,62.637,35.696,86.883c21.553,22.226,35.696,51.187,40.41,82.168c0.674,3.368,3.368,5.389,6.063,5.389h28.287
	h33.675h28.287c3.367,0,6.063-2.694,6.063-5.389c4.715-30.981,18.857-59.269,41.084-82.168
	C709.099,388.616,721.896,356.288,721.896,323.286z M692.261,323.959c0,53.881-43.779,97.659-97.66,97.659
	c-53.881,0-97.659-43.778-97.659-97.659s43.778-97.659,97.659-97.659C648.482,226.3,692.261,270.078,692.261,323.959z
	 M644.441,302.407l-18.857-18.858l-43.779,43.104l-18.185-18.185l-18.858,18.858l18.185,18.185l18.858,18.858l18.859-18.858
	L644.441,302.407z"/>
<text transform="matrix(1 0 0 1 258.5195 774.5371)" font-family="'Arial-BoldMT'" font-size="33.6756">Created by Gregor Črešnar</text>
<text transform="matrix(1 0 0 1 258.5195 808.2129)" font-family="'Arial-BoldMT'" font-size="33.6756">from the Noun Project</text>
</svg>
