<?xml version="1.0" encoding="utf-8"?>
<!-- Generator: Adobe Illustrator 16.0.3, SVG Export Plug-In . SVG Version: 6.00 Build 0)  -->
<!DOCTYPE svg PUBLIC "-//W3C//DTD SVG 1.1//EN" "http://www.w3.org/Graphics/SVG/1.1/DTD/svg11.dtd">
<svg version="1.1" id="Calque_3" xmlns="http://www.w3.org/2000/svg" xmlns:xlink="http://www.w3.org/1999/xlink" x="0px" y="0px"
	 width="450px" height="240px" viewBox="0 0 450 240" enable-background="new 0 0 450 240" xml:space="preserve">
<g>
	<path fill="#231F20" d="M333.895,80.294h4.447c2.369,0.193,4.74,0.495,7.045,1.102c7.111,1.768,13.758,5.884,17.945,11.963
		c3.045,4.236,4.652,9.376,5.035,14.555c-5.658,0.009-11.314,0-16.965,0c-0.779-3.689-2.529-7.37-5.664-9.613
		c-3.738-2.756-8.658-3.321-13.145-2.615c-4.127,0.565-7.957,2.817-10.547,6.068c-2.143,2.69-3.527,5.92-4.332,9.245
		c-1.504,6.44-1.477,13.276,0.393,19.638c1.211,3.854,3.277,7.587,6.494,10.129c3.154,2.655,7.33,3.811,11.408,3.759
		c4.281,0.069,8.865-0.858,12.133-3.804c3.094-2.742,4.547-6.86,5.029-10.884c-5.473,0-10.943,0-16.416,0
		c0-4.521-0.006-9.042,0-13.564c10.9,0,21.801,0,32.697,0c0.004,13.872,0,27.744,0,41.623c-3.904,0-7.803,0-11.703,0
		c-0.516-2.497-0.988-5.012-1.49-7.509c-1.992,2.305-4.279,4.391-6.943,5.888c-3.471,1.893-7.379,2.963-11.313,3.26
		c-5.963,0.263-12.043-0.596-17.533-2.997c-6.305-2.69-11.76-7.325-15.361-13.161c-5.494-8.729-7.084-19.461-5.832-29.59
		c1.033-8.377,4.408-16.627,10.275-22.794c3.289-3.49,7.377-6.191,11.811-8.011C325.338,81.335,329.613,80.553,333.895,80.294
		L333.895,80.294z"/>
	<path fill="#231F20" d="M30.555,81.037c7.654-1.327,15.779-0.668,22.858,2.659c5.789,2.655,10.733,7.177,13.697,12.835
		c1.891,3.562,2.873,7.558,3.169,11.567c-5.65,0.009-11.295,0.004-16.943,0c-0.791-3.655-2.478-7.318-5.57-9.578
		c-3.733-2.817-8.686-3.409-13.201-2.708c-3.527,0.473-6.824,2.173-9.347,4.666c-3.317,3.356-5.144,7.908-5.969,12.492
		c-0.92,4.937-0.94,10.05,0.072,14.974c0.97,4.873,3.19,9.735,7.14,12.909c3.121,2.637,7.246,3.837,11.29,3.793
		c4.27,0.105,8.82-0.771,12.137-3.627c3.198-2.761,4.723-6.957,5.203-11.06c-5.472,0-10.942,0.009-16.414,0
		c-0.005-4.512-0.005-9.034,0-13.555c10.9,0,21.8-0.009,32.696,0.005c-0.001,13.892,0,27.782,0,41.669c-3.901,0-7.803,0.01-11.704,0
		c-0.498-2.515-0.994-5.028-1.485-7.544c-1.128,1.262-2.3,2.488-3.615,3.557c-3.937,3.331-9.041,5.03-14.119,5.53
		c-4.3,0.263-8.651-0.088-12.832-1.156c-7.387-1.893-14.2-6.222-18.783-12.356c-5.096-6.658-7.604-15.019-8.005-23.334v-4.723
		c0.396-9.035,3.255-18.156,9.087-25.182C15.062,86.597,22.58,82.399,30.555,81.037L30.555,81.037z"/>
	<path fill="#231F20" d="M123.445,81.97c-5.919,0.004-11.841-0.011-17.761,0.004c-9.574,25.299-19.143,50.606-28.71,75.912
		c5.999,0.009,12.003,0.009,18.002,0.009c1.93-5.528,3.898-11.049,5.827-16.588c8.956-0.025,17.916,0,26.872-0.009
		c1.906,5.521,3.762,11.068,5.647,16.597c6.173-0.009,12.344,0.009,18.516-0.009C142.377,132.581,132.915,107.274,123.445,81.97z
		 M120.379,119.384c1.227,3.768,2.486,7.526,3.685,11.296c-3.209-2.331-6.422-4.653-9.635-6.976c-3.212,2.331-6.414,4.68-9.627,7.01
		c1.242-3.768,2.429-7.554,3.675-11.321c-3.212-2.347-6.461-4.648-9.663-7.009c3.977-0.022,7.954,0.009,11.935-0.018
		c1.218-3.754,2.374-7.536,3.665-11.265c1.218,3.759,2.453,7.515,3.672,11.273c3.951,0.009,7.902-0.009,11.85,0.004
		C126.773,114.744,123.545,117.019,120.379,119.384z"/>
	<path fill="#231F20" d="M274.195,82.051c-5.951-0.024-11.9-0.059-17.85,0.018c-9.48,25.293-19.111,50.538-28.627,75.827
		c5.984,0.009,11.973-0.018,17.959,0.009c2.014-5.503,3.859-11.058,5.883-16.552c8.943,0.025,17.885,0,26.832,0.009
		c1.9,5.503,3.746,11.022,5.625,16.534c6.174-0.009,12.346,0.009,18.52-0.009C293.086,132.606,283.613,107.345,274.195,82.051z
		 M256.314,127.734c2.914-8.279,5.885-16.529,8.785-24.807c2.877,8.255,5.695,16.527,8.531,24.807
		C267.855,127.744,262.086,127.734,256.314,127.734z"/>
	<path fill="#231F20" d="M376.582,82.03c19.031,0,38.064,0,57.092,0c0.01,5.056,0.004,10.111,0.004,15.168
		c-13.129,0.008-26.258-0.005-39.387,0.008c-0.006,4.846,0,9.702-0.006,14.546c12.041,0.009,24.076,0.004,36.111,0.004
		c0,4.709,0,9.416,0,14.122c-12.035,0-24.07,0-36.111,0c0,5.634,0,11.269,0,16.902c13.395-0.009,26.783,0.026,40.17-0.018
		c0.068,5.048,0.012,10.086,0.029,15.133c-19.305,0-38.6,0-57.902,0C376.572,132.606,376.576,107.319,376.582,82.03L376.582,82.03z"
		/>
	<path fill="#C72B7E" d="M444.387,88.807c1.508-0.366,1.813-2.664,0.486-3.417c-1.293-0.666-2.822-0.456-4.203-0.259
		c0.018,2.435-0.002,4.868,0.01,7.302c0.404,0,0.82-0.002,1.24-0.002c-0.004-1.032-0.01-2.066,0.004-3.095
		c0.711,0.008,1.705-0.147,2.082,0.648c0.287,0.775,0.342,1.621,0.582,2.41c0.451,0.031,0.906,0.04,1.371,0.048
		C445.381,91.254,445.793,89.445,444.387,88.807z M444.021,88.003c-0.607,0.444-1.4,0.331-2.098,0.346
		c-0.014-0.807-0.014-1.613,0-2.417c0.631,0.021,1.332-0.114,1.91,0.241C444.518,86.48,444.635,87.565,444.021,88.003z"/>
	<path fill="#231F20" d="M447.211,83.579c-1.787-1.543-4.455-1.922-6.619-1.001c-1.734,0.705-3.123,2.208-3.686,3.996
		c-0.734,2.241-0.188,4.863,1.438,6.59c1.982,2.177,5.502,2.659,8.023,1.143c1.699-0.977,2.824-2.791,3.105-4.718v-2.024
		C449.172,86.036,448.426,84.575,447.211,83.579z M446.924,92.349c-1.184,1.387-3.139,2.079-4.916,1.641
		c-2.086-0.453-3.711-2.315-4.021-4.403c-0.51-2.59,1.104-5.444,3.656-6.202c1.838-0.609,3.967,0.053,5.211,1.509
		C448.715,86.912,448.729,90.294,446.924,92.349z"/>
	<path fill="#231F20" d="M221.654,153.979c-2.129-7.396-0.591-15.345-3.058-22.669c-1.319-4.014-4.215-7.66-8.246-9.166
		c1.235-0.754,2.559-1.385,3.689-2.313c3.123-2.304,5.17-5.836,6.142-9.551c1.043-4.047,1.184-8.368,0.175-12.434
		c-1.279-5.186-4.736-9.769-9.349-12.45c-3.592-2.177-7.807-3.174-11.991-3.233c-13.762-0.031-27.528,0.015-41.293-0.022
		c-0.053,25.313-0.006,50.623-0.023,75.938c5.905,0,11.814,0,17.722,0c0-9.727-0.009-19.444,0-29.169
		c5.222,0.016,10.446-0.036,15.659,0.025c3.005,0.043,6.4,0.411,8.592,2.708c2.471,2.725,3.045,6.546,3.457,10.06
		c0.78,5.467,0.385,11.181,2.545,16.376c6.081,0,12.163,0.01,18.244,0C222.974,156.827,222.07,155.513,221.654,153.979z
		 M201.22,112.979c-1.841,2.076-4.745,2.734-7.414,2.86c-6.125,0.006-12.258,0.009-18.388,0c0.004-6.522,0.004-13.042,0.004-19.562
		c5.88-0.009,11.768-0.009,17.648,0c2.738,0.074,5.708,0.539,7.807,2.462c1.936,1.879,2.401,4.728,2.41,7.317
		C203.228,108.467,202.859,111.086,201.22,112.979z"/>
	<path fill="#FFFEFE" d="M444.387,88.807c1.508-0.366,1.813-2.664,0.486-3.417c-1.293-0.666-2.822-0.456-4.203-0.259
		c0.018,2.435-0.002,4.868,0.01,7.302c0.404,0,0.82-0.002,1.24-0.002c-0.004-1.032-0.01-2.066,0.004-3.095
		c0.711,0.008,1.705-0.147,2.082,0.648c0.287,0.775,0.342,1.621,0.582,2.41c0.451,0.031,0.906,0.04,1.371,0.048
		C445.381,91.254,445.793,89.445,444.387,88.807z M444.021,88.003c-0.607,0.444-1.4,0.331-2.098,0.346
		c-0.014-0.807-0.014-1.613,0-2.417c0.631,0.021,1.332-0.114,1.91,0.241C444.518,86.48,444.635,87.565,444.021,88.003z"/>
	<path fill="#231F20" d="M444.387,88.807c1.508-0.366,1.813-2.664,0.486-3.417c-1.293-0.666-2.822-0.456-4.203-0.259
		c0.018,2.435-0.002,4.868,0.01,7.302c0.404,0,0.82-0.002,1.24-0.002c-0.004-1.032-0.01-2.066,0.004-3.095
		c0.711,0.008,1.705-0.147,2.082,0.648c0.287,0.775,0.342,1.621,0.582,2.41c0.451,0.031,0.906,0.04,1.371,0.048
		C445.381,91.254,445.793,89.445,444.387,88.807z M444.021,88.003c-0.607,0.444-1.4,0.331-2.098,0.346
		c-0.014-0.807-0.014-1.613,0-2.417c0.631,0.021,1.332-0.114,1.91,0.241C444.518,86.48,444.635,87.565,444.021,88.003z"/>
</g>
</svg>
